<svg width="32" height="32" viewBox="0 0 32 32" fill="none" xmlns="http://www.w3.org/2000/svg">
<mask id="mask0_1045_20166" style="mask-type:alpha" maskUnits="userSpaceOnUse" x="0" y="6" width="32" height="20">
<path d="M7.82979 26C3.50548 26 0 22.5675 0 18.3333C0 14.1921 3.35322 10.8179 7.54613 10.6716C9.27535 7.87166 12.4144 6 16 6C20.6308 6 24.5169 9.12183 25.5829 13.3335C29.1316 13.3603 32 16.1855 32 19.6667C32 23.0527 29 26 25.8723 25.9914L7.82979 26Z" fill="#C4C4C4"/>
</mask>
<g mask="url(#mask0_1045_20166)">
<path d="M7.83017 25.9996C5.37824 25.9996 3.18957 24.8961 1.75391 23.1686L18.0429 16.333L30.7089 23.4642C29.5926 24.9207 27.9066 25.9996 26.0004 25.991C23.1254 25.9996 12.0629 25.9996 7.83017 25.9996Z" fill="url(#paint0_linear_1045_20166)"/>
<path d="M25.5785 13.3145L18.043 16.333L30.709 23.4642C31.5199 22.406 32.0004 21.0912 32.0004 19.6664C32.0004 16.1853 29.1321 13.36 25.5833 13.3332C25.5817 13.3269 25.5801 13.3207 25.5785 13.3145Z" fill="url(#paint1_linear_1045_20166)"/>
<path d="M7.06445 10.7028L18.0423 16.3333L25.5779 13.3148C24.5051 9.11261 20.6237 6 15.9997 6C12.4141 6 9.27508 7.87166 7.54586 10.6716C7.3841 10.6773 7.22358 10.6877 7.06445 10.7028Z" fill="url(#paint2_linear_1045_20166)"/>
<path d="M1.7535 23.1692L18.0425 16.3336L7.06471 10.7031C3.09947 11.0797 0 14.3522 0 18.3336C0 20.167 0.657197 21.85 1.7535 23.1692Z" fill="url(#paint3_linear_1045_20166)"/>
</g>
<defs>
<linearGradient id="paint0_linear_1045_20166" x1="4.42591" y1="24.6663" x2="27.2309" y2="23.2759" gradientUnits="userSpaceOnUse">
<stop stop-color="#2086B8"/>
<stop offset="1" stop-color="#46D3F6"/>
</linearGradient>
<linearGradient id="paint1_linear_1045_20166" x1="23.8302" y1="19.6663" x2="30.2108" y2="15.2077" gradientUnits="userSpaceOnUse">
<stop stop-color="#1694DB"/>
<stop offset="1" stop-color="#62C3FE"/>
</linearGradient>
<linearGradient id="paint2_linear_1045_20166" x1="8.51037" y1="7.33333" x2="23.3335" y2="15.9348" gradientUnits="userSpaceOnUse">
<stop stop-color="#0D3D78"/>
<stop offset="1" stop-color="#063B83"/>
</linearGradient>
<linearGradient id="paint3_linear_1045_20166" x1="-0.340429" y1="20.0003" x2="14.5634" y2="14.4654" gradientUnits="userSpaceOnUse">
<stop stop-color="#16589B"/>
<stop offset="1" stop-color="#1464B7"/>
</linearGradient>
</defs>
</svg>
