<svg width="19" height="24" viewBox="0 0 19 24" fill="none" xmlns="http://www.w3.org/2000/svg">
<path d="M18.9054 23.2495C18.8994 23.2334 18.8938 23.2183 18.8893 23.2048C18.321 21.4701 16.7121 20.3047 14.8858 20.3047C14.2264 20.3047 13.5966 20.4595 13.0336 20.7361C12.9751 20.6805 12.9153 20.6261 12.854 20.573C12.0194 19.8517 10.9787 19.417 9.88552 19.3249V17.7162C10.2098 17.5598 10.6583 17.5327 11.1722 17.502C12.2005 17.4405 13.4802 17.364 14.5668 16.1765C15.9646 14.6489 16.2616 11.8869 15.9536 11.1876C15.8473 10.9464 15.6779 10.9103 15.5863 10.9103C15.4969 10.9103 15.4107 10.9432 15.3302 11.0078C15.0483 11.234 14.5435 11.2612 13.959 11.2928C12.9339 11.348 11.6581 11.4168 10.6086 12.5636C10.3202 12.8788 10.0812 13.2402 9.8856 13.6221V9.89195C10.1484 9.61752 10.5381 9.3818 10.9756 9.11792C11.992 8.50466 13.257 7.74137 13.7291 5.95248C14.2784 3.86971 13.3477 1.19921 12.6947 0.351685C12.5123 0.115097 12.3397 0 12.167 0C12.0919 0 11.9061 0.0254116 11.8036 0.260626C11.6309 0.656428 11.1222 0.959289 10.5331 1.31007C9.51671 1.91528 8.25168 2.66846 7.79604 4.39555C7.22178 6.5722 8.20795 9.11639 8.83774 9.93387C8.85425 9.95536 8.87064 9.97548 8.88688 9.99505V12.0132C8.70072 11.3205 8.34944 10.6089 7.59373 9.99085C6.4469 9.05317 4.71462 8.72043 3.57967 8.72043C2.47978 8.72043 2.35123 9.00862 2.30904 9.10329C2.28017 9.16807 2.23029 9.33788 2.39049 9.51627C2.63201 9.78513 2.6873 10.2877 2.7513 10.8696C2.86349 11.89 3.00318 13.1599 4.20656 14.1439C5.33143 15.0638 6.96861 15.3916 8.1256 15.3916C8.42979 15.3916 8.68324 15.3706 8.88696 15.3294V19.3376C7.83902 19.451 6.845 19.879 6.04189 20.5731C5.98056 20.6261 5.92079 20.6806 5.8622 20.7362C5.29936 20.4596 4.66945 20.3048 4.01001 20.3048C3.14266 20.3048 2.30962 20.5664 1.60105 21.0613C0.908874 21.5448 0.38269 22.2152 0.0795213 23C-0.0335348 23.2926 -0.025888 23.5455 0.101481 23.7314C0.223675 23.9096 0.434885 24 0.729231 24H4.25369H8.20164H10.6942H14.6421H18.4228C18.6483 24 18.8093 23.9331 18.9013 23.8011C19.0371 23.6058 18.9515 23.374 18.9054 23.2495ZM7.81043 13.7319C7.7971 13.7188 7.78337 13.7059 7.77028 13.6924L7.75039 13.6722L7.74541 13.6671L7.74416 13.6658C7.74271 13.6641 7.7522 13.6758 7.74761 13.6704L7.74522 13.6682L7.73557 13.6599C7.71012 13.6375 7.68436 13.6149 7.65824 13.5921C7.60342 13.5489 7.54985 13.5034 7.49087 13.4611C7.25868 13.2893 6.98582 13.1321 6.6934 12.9793C6.40211 12.8251 6.09314 12.6729 5.80691 12.4947C5.66386 12.4061 5.52711 12.3102 5.40261 12.2083C5.27822 12.1066 5.16767 11.9951 5.07783 11.8817C4.98885 11.7674 4.91799 11.6538 4.87344 11.5446C4.86105 11.5183 4.85129 11.4916 4.8427 11.4657C4.83356 11.44 4.82556 11.4152 4.81815 11.3915C4.80643 11.3425 4.79588 11.2986 4.78898 11.2581C4.78364 11.2164 4.77972 11.18 4.77733 11.1489C4.77478 11.1181 4.77729 11.0923 4.77733 11.071C4.77909 11.0286 4.78007 11.006 4.78007 11.006C4.78007 11.006 4.79266 11.0248 4.81623 11.0602C4.82811 11.0775 4.8409 11.1008 4.85854 11.1249C4.87584 11.1479 4.8956 11.1743 4.91787 11.204C4.94156 11.2317 4.96776 11.2624 4.99626 11.2959C5.02909 11.3259 5.05685 11.3615 5.09532 11.3929C5.16579 11.4597 5.25442 11.5237 5.35284 11.5867C5.45186 11.6497 5.56366 11.7104 5.68841 11.7688C5.81244 11.8281 5.94852 11.885 6.09228 11.945C6.3796 12.0646 6.7003 12.194 7.01916 12.3608C7.17821 12.4444 7.3364 12.5382 7.48644 12.6441C7.63671 12.7496 7.77816 12.8684 7.90353 12.997C7.9667 13.0606 8.02462 13.1284 8.07854 13.1962C8.10431 13.2313 8.12984 13.266 8.15501 13.3002L8.16438 13.313L8.16674 13.3162C8.16293 13.3116 8.17325 13.3242 8.17246 13.3235L8.17344 13.325L8.17717 13.331L8.19234 13.355C8.20258 13.3708 8.21195 13.3872 8.22164 13.4032C8.2992 13.5307 8.37003 13.6534 8.43336 13.7682C8.4643 13.8261 8.49493 13.8809 8.52234 13.9344C8.54924 13.9883 8.57469 14.0399 8.59724 14.0891C8.64288 14.1873 8.68104 14.274 8.71069 14.3467C8.77072 14.4915 8.79833 14.5791 8.79833 14.5791C8.79833 14.5791 8.72202 14.5292 8.60018 14.4334C8.47669 14.3386 8.31332 14.1953 8.11678 14.0211C8.01976 13.9333 7.91674 13.8365 7.81043 13.7319ZM9.46624 9.20917C9.49459 9.12462 9.53121 9.02321 9.57506 8.90831C9.61988 8.7938 9.67058 8.66459 9.7258 8.52364C9.78266 8.38341 9.84666 8.2329 9.91724 8.07541C9.92607 8.05569 9.93493 8.03592 9.94387 8.016L9.95775 7.9862L9.9612 7.97874L9.96211 7.97686C9.96316 7.97486 9.95587 7.98784 9.95924 7.98149L9.96054 7.978L9.96587 7.96396C9.98011 7.92671 9.99458 7.88894 10.0092 7.85082C10.0345 7.77271 10.0625 7.69467 10.0848 7.61228C10.1782 7.28506 10.2355 6.91938 10.2775 6.53679C10.3211 6.15479 10.353 5.75656 10.4202 5.3739C10.4534 5.1828 10.4963 4.9959 10.5506 4.81966C10.6047 4.64359 10.6746 4.47857 10.7551 4.33445C10.8368 4.19084 10.9255 4.06653 11.0207 3.97163C11.0428 3.94696 11.0665 3.92488 11.0901 3.90437C11.1131 3.88351 11.1356 3.86402 11.1572 3.84559C11.2036 3.81139 11.2451 3.78073 11.2844 3.75532C11.3258 3.73108 11.3623 3.71069 11.3938 3.69394C11.4251 3.67728 11.4534 3.66802 11.4757 3.65833C11.521 3.64065 11.5452 3.63128 11.5452 3.63128C11.5452 3.63128 11.5295 3.6519 11.5 3.69061C11.4857 3.70998 11.4654 3.73257 11.4458 3.76077C11.4271 3.78833 11.4058 3.82002 11.3818 3.85551C11.3605 3.89202 11.337 3.93253 11.3112 3.97657C11.2909 4.02386 11.2624 4.06845 11.2428 4.123C11.2322 4.14912 11.2211 4.17618 11.2098 4.20406C11.2004 4.23253 11.1906 4.26182 11.1807 4.2919C11.1702 4.32112 11.163 4.35347 11.1539 4.38488C11.1446 4.41629 11.1363 4.44876 11.13 4.48312C11.0998 4.61739 11.0777 4.76511 11.0641 4.92574C11.0493 5.08594 11.0423 5.25813 11.036 5.43942C11.0239 5.80185 11.0174 6.2026 10.9721 6.61491C10.9491 6.82071 10.9153 7.0295 10.8658 7.23428C10.8166 7.4391 10.7503 7.63981 10.6673 7.82761C10.6267 7.92173 10.5794 8.01188 10.5308 8.09816C10.5048 8.14047 10.479 8.18231 10.4535 8.22365L10.444 8.23906L10.4416 8.2429L10.4368 8.2511L10.4356 8.25278L10.4308 8.25953L10.4116 8.28623C10.3986 8.30384 10.3857 8.32133 10.373 8.33878C10.2705 8.47784 10.1708 8.60772 10.0765 8.72639C10.0287 8.78525 9.98375 8.84223 9.9392 8.89537C9.89403 8.94819 9.85046 8.99815 9.80846 9.04423C9.72486 9.13678 9.65031 9.21619 9.58713 9.28058C9.46149 9.40972 9.38279 9.47901 9.38279 9.47901C9.38279 9.47901 9.40886 9.37799 9.46624 9.20917ZM10.8283 16.1612L10.8306 16.159L10.84 16.1504C10.865 16.1275 10.8904 16.1044 10.916 16.081C10.9649 16.0313 11.0161 15.983 11.0646 15.9291C11.2611 15.7172 11.4473 15.4634 11.6316 15.1896C11.8169 14.9171 12.0023 14.6268 12.211 14.3619C12.3149 14.2295 12.4252 14.1042 12.5402 13.9917C12.655 13.8793 12.778 13.7817 12.9005 13.7049C13.024 13.629 13.1448 13.5711 13.2581 13.539C13.2857 13.5295 13.3133 13.5227 13.34 13.5171C13.3665 13.5108 13.3921 13.5056 13.4164 13.5008C13.4665 13.4946 13.5113 13.489 13.5523 13.4866C13.5943 13.4858 13.6308 13.486 13.6621 13.487C13.693 13.4879 13.7183 13.4932 13.7394 13.4956C13.7814 13.5021 13.8038 13.5055 13.8038 13.5055C13.8038 13.5055 13.7837 13.5159 13.7459 13.5355C13.7274 13.5453 13.7029 13.5554 13.677 13.5703C13.6522 13.5849 13.6237 13.6017 13.5918 13.6205C13.5617 13.641 13.5283 13.6637 13.4919 13.6883C13.4584 13.7176 13.4199 13.7413 13.3845 13.7762C13.3103 13.8388 13.2369 13.9198 13.1634 14.0107C13.09 14.1022 13.0173 14.2066 12.9455 14.3242C12.873 14.4409 12.8013 14.5698 12.7258 14.7061C12.5753 14.9785 12.4113 15.283 12.2104 15.5815C12.1097 15.7303 11.9991 15.8772 11.8773 16.0147C11.7558 16.1524 11.6221 16.28 11.4805 16.3903C11.4104 16.4461 11.3365 16.4962 11.2631 16.5423C11.2254 16.564 11.1882 16.5856 11.1513 16.6068L11.1376 16.6147L11.1342 16.6167C11.1391 16.6134 11.1255 16.6222 11.1264 16.6216L11.1247 16.6224L11.1184 16.6255L11.0928 16.6379C11.0759 16.6464 11.0586 16.6538 11.0417 16.6617C10.9064 16.7247 10.7766 16.7816 10.6556 16.832C10.5946 16.8563 10.5367 16.8807 10.4805 16.9021C10.4239 16.9229 10.3699 16.9425 10.3185 16.9594C10.2159 16.9939 10.1255 17.0223 10.05 17.0438C9.8994 17.0874 9.80936 17.1052 9.80936 17.1052C9.80936 17.1052 9.86732 17.0349 9.97595 16.9244C10.0839 16.8121 10.2443 16.6655 10.439 16.4894C10.5371 16.4027 10.6447 16.3109 10.7604 16.2168C10.7748 16.205 10.7891 16.1927 10.8041 16.1812L10.8263 16.1636L10.832 16.1592L10.8333 16.1582C10.835 16.157 10.8224 16.1651 10.8283 16.1612Z" fill="black"/>
</svg>
