<svg width="24" height="24" viewBox="0 0 24 24" fill="none" xmlns="http://www.w3.org/2000/svg">
<g clip-path="url(#clip0_1442_19336)">
<path d="M19.5345 20.6348H18.9681C18.9737 20.5738 18.9907 20.5159 18.9907 20.4536C18.9907 19.1387 17.7461 18.0718 16.1675 17.963C16.0155 16.7657 14.8863 15.9247 13.6737 16.1724C13.6883 16.1331 13.6964 16.0971 13.7117 16.0575C13.7126 16.0571 13.7126 16.0562 13.7126 16.0559C13.8966 15.5755 14.2569 14.7991 14.716 14.0667C15.0777 13.3812 17.2463 11.5539 17.6295 7.56769C17.6326 7.53591 17.6586 7.51135 17.6905 7.51014C17.7223 7.50892 17.7502 7.53152 17.7557 7.5629C18.3343 10.9228 16.9772 13.3788 16.641 13.9804C19.2124 13.7506 21.0953 11.6776 20.9562 8.68367C20.8533 6.45441 18.3556 3.26803 16.9533 1.64647C16.8457 1.522 16.6712 1.47908 16.5181 1.53924C16.365 1.59948 16.2663 1.74972 16.2724 1.91418C16.3195 3.19803 15.8754 5.26966 13.2546 7.38095C11.3071 9.17893 12.0661 12.0829 13.9546 13.359C13.9376 13.3797 13.9197 13.3949 13.9027 13.4177C13.588 13.7854 13.3445 14.1665 13.1429 14.559C12.9916 14.8596 12.8832 15.1662 12.7974 15.4696C12.4569 15.1205 12.0222 14.8608 11.5294 14.7143C11.7648 13.304 11.4508 11.8298 10.5447 10.7421C9.8499 9.88532 9.16326 9.5916 8.25801 8.38758C6.95782 6.68017 6.43272 4.47481 6.31208 2.83594C6.18989 1.18161 6.37923 0.0731208 6.37923 0.0731208C6.38419 0.0423903 6.36549 0.0112534 6.33476 0.00312363C6.30151 -0.0057378 6.26842 0.013611 6.2594 0.0467804C5.97543 1.00121 5.6617 3.45624 6.20444 5.75907C7.03164 9.27258 8.96945 10.392 9.56568 11.4675C10.0646 12.2217 10.5033 13.3149 10.6669 14.5768C9.44325 14.5768 8.42053 15.2659 7.98225 16.2347C7.73381 16.1724 7.47723 16.1295 7.20952 16.1295C5.45033 16.1295 4.02461 17.5553 4.02461 19.3144C4.02461 19.7926 4.13786 20.2417 4.32647 20.6486C3.46228 20.7202 2.78174 21.4355 2.78174 22.3179C2.78174 23.2476 3.53512 24.0009 4.46484 24.0009H19.5345C20.4642 24.0009 21.2174 23.2476 21.2174 22.3179C21.2175 21.3882 20.4642 20.6348 19.5345 20.6348Z" fill="black"/>
</g>
<defs>
<clipPath id="clip0_1442_19336">
<rect width="24" height="24" fill="white"/>
</clipPath>
</defs>
</svg>
