<svg width="40" height="40" viewBox="0 0 40 40" fill="none" xmlns="http://www.w3.org/2000/svg">
<circle cx="20" cy="20" r="2.5" fill="#1C4A7C"/>
<path fill-rule="evenodd" clip-rule="evenodd" d="M32.0502 15.6166H33.8668C35.4159 15.6258 36.6669 16.8841 36.6668 18.4333V21.6666C36.6588 23.1683 35.4676 24.3963 33.9668 24.4499H32.1502C31.9317 24.4683 31.7434 24.6112 31.6668 24.8166C31.5452 25.0041 31.5452 25.2457 31.6668 25.4333L32.8835 26.6499C33.4097 27.1724 33.7056 27.8834 33.7056 28.6249C33.7056 29.3665 33.4097 30.0774 32.8835 30.5999L30.6502 32.8333C30.1337 33.3647 29.4246 33.6651 28.6835 33.6666C27.9393 33.6568 27.228 33.358 26.7002 32.8333L25.4335 31.5499C25.2459 31.4283 25.0044 31.4283 24.8168 31.5499C24.5668 31.6499 24.3835 31.8166 24.3835 32.0499V33.8666C24.3743 35.4157 23.1159 36.6666 21.5668 36.6666H18.4168C16.9087 36.6675 15.6707 35.4738 15.6168 33.9666V32.1499C15.5984 31.9314 15.4556 31.7432 15.2502 31.6666C15.0419 31.5332 14.7751 31.5332 14.5668 31.6666L13.2835 32.8999C12.761 33.4261 12.0501 33.722 11.3085 33.722C10.5669 33.722 9.85602 33.4261 9.3335 32.8999L7.10016 30.6333C6.5662 30.1116 6.26568 29.3964 6.26683 28.6499C6.2766 27.9057 6.57545 27.1944 7.10016 26.6666L8.45016 25.4333C8.5718 25.2457 8.5718 25.0041 8.45016 24.8166C8.35016 24.5666 8.1835 24.3833 7.95016 24.3833H6.1335C4.58441 24.3741 3.33347 23.1157 3.3335 21.5666V18.4166C3.3335 16.8702 4.5871 15.6166 6.1335 15.6166H7.85016C8.06864 15.5982 8.25689 15.4554 8.3335 15.2499C8.46692 15.0417 8.46692 14.7748 8.3335 14.5666L7.10016 13.3333C6.5584 12.8089 6.25253 12.0872 6.25253 11.3333C6.25253 10.5793 6.5584 9.8576 7.10016 9.33325L9.3835 7.09992C9.89999 6.5685 10.6091 6.26803 11.3502 6.26659C12.0944 6.27636 12.8056 6.5752 13.3335 7.09992L14.5668 8.44992C14.7544 8.57156 14.9959 8.57156 15.1835 8.44992C15.4335 8.34992 15.6168 8.18325 15.6168 7.94992V6.13325C15.626 4.58416 16.8844 3.33322 18.4335 3.33325H21.6668C23.1806 3.37832 24.3842 4.61882 24.3835 6.13325V7.84992C24.4019 8.0684 24.5447 8.25664 24.7502 8.33325C24.9584 8.46667 25.2253 8.46667 25.4335 8.33325L26.7168 7.09992C27.2394 6.57372 27.9503 6.27779 28.6918 6.27779C29.4334 6.27779 30.1443 6.57372 30.6668 7.09992L32.9002 9.38325C33.4325 9.90595 33.7328 10.6205 33.7335 11.3666C33.7359 12.1084 33.4348 12.819 32.9002 13.3333L31.5502 14.5666C31.4285 14.7541 31.4285 14.9957 31.5502 15.1833C31.6502 15.4333 31.8168 15.6166 32.0502 15.6166ZM14.6109 22.2322C15.5138 24.412 17.6408 25.8333 20.0002 25.8333C23.2218 25.8333 25.8335 23.2216 25.8335 19.9999C25.8335 17.6406 24.4122 15.5135 22.2325 14.6106C20.0527 13.7077 17.5437 14.2068 15.8754 15.8751C14.207 17.5434 13.708 20.0525 14.6109 22.2322Z" fill="#1C69BD"/>
</svg>
