<svg width="40" height="40" viewBox="0 0 40 40" fill="none" xmlns="http://www.w3.org/2000/svg">
<path d="M15.0002 18.3333C18.6821 18.3333 21.6668 15.3486 21.6668 11.6667C21.6668 7.98477 18.6821 5 15.0002 5C11.3183 5 8.3335 7.98477 8.3335 11.6667C8.3335 15.3486 11.3183 18.3333 15.0002 18.3333Z" fill="#FFBC44"/>
<path d="M28.3335 21.6666C31.0949 21.6666 33.3335 19.4281 33.3335 16.6666C33.3335 13.9052 31.0949 11.6666 28.3335 11.6666C25.5721 11.6666 23.3335 13.9052 23.3335 16.6666C23.3335 19.4281 25.5721 21.6666 28.3335 21.6666Z" fill="#FFBC44"/>
<path d="M35.0002 33.3334C35.9206 33.3334 36.6668 32.5872 36.6668 31.6667C36.6641 28.4889 34.8543 25.5892 32.0007 24.1908C29.1472 22.7923 25.7467 23.1385 23.2335 25.0833C19.8953 21.7582 14.8847 20.7675 10.5322 22.5719C6.17974 24.3763 3.33987 28.6217 3.3335 33.3334C3.3335 34.2538 4.07969 35 5.00016 35H25.0002C25.9206 35 26.6668 34.2538 26.6668 33.3334" fill="#FDD998"/>
</svg>
