<svg width="24" height="24" viewBox="0 0 24 24" fill="none" xmlns="http://www.w3.org/2000/svg">
<path fill-rule="evenodd" clip-rule="evenodd" d="M21.8701 11.5001C21.2301 10.3901 17.7101 4.82012 11.7301 5.00012C6.20007 5.14012 3.00007 10.0001 2.13007 11.5001C1.95144 11.8095 1.95144 12.1907 2.13007 12.5001C2.76007 13.5901 6.13007 19.0001 12.0201 19.0001H12.2701C17.8001 18.8601 21.0101 14.0001 21.8701 12.5001C22.0487 12.1907 22.0487 11.8095 21.8701 11.5001ZM12.0001 15.5001C10.0671 15.5001 8.50007 13.9331 8.50007 12.0001C8.50007 10.0671 10.0671 8.50012 12.0001 8.50012C13.9331 8.50012 15.5001 10.0671 15.5001 12.0001C15.5001 13.9331 13.9331 15.5001 12.0001 15.5001ZM12.0001 13.5001C12.8285 13.5001 13.5001 12.8285 13.5001 12.0001C13.5001 11.1717 12.8285 10.5001 12.0001 10.5001C11.1716 10.5001 10.5001 11.1717 10.5001 12.0001C10.5001 12.8285 11.1716 13.5001 12.0001 13.5001Z" fill="#0E353D"/>
</svg>
