<svg width="24" height="24" viewBox="0 0 24 24" fill="none" xmlns="http://www.w3.org/2000/svg">
<path d="M16.7229 14.0602C16.4674 13.9289 15.1947 13.3055 14.958 13.2211C14.7213 13.132 14.5479 13.0898 14.3768 13.3523C14.2033 13.6125 13.7111 14.1914 13.5565 14.3672C13.4065 14.5406 13.2541 14.5617 12.9986 14.4328C11.4799 13.6734 10.4838 13.0781 9.48303 11.3602C9.21819 10.9031 9.74787 10.9359 10.2424 9.94922C10.3268 9.77578 10.2846 9.62813 10.219 9.49688C10.1533 9.36563 9.63772 8.09531 9.42209 7.57734C9.2135 7.07344 8.99787 7.14375 8.84084 7.13437C8.69084 7.125 8.51975 7.125 8.34631 7.125C8.17287 7.125 7.89397 7.19063 7.65725 7.44609C7.42053 7.70625 6.75256 8.33203 6.75256 9.60234C6.75256 10.8727 7.67834 12.1031 7.80491 12.2766C7.93616 12.45 9.626 15.0563 12.2205 16.1789C13.8611 16.8867 14.5033 16.9477 15.3236 16.8258C15.8229 16.7508 16.8518 16.2023 17.0651 15.5953C17.2783 14.9906 17.2783 14.4727 17.2151 14.3648C17.1518 14.25 16.9783 14.1844 16.7229 14.0602Z" fill="#B0B6BE"/>
<path d="M21.6844 7.93125C21.1547 6.67266 20.3953 5.54297 19.4274 4.57266C18.4594 3.60469 17.3297 2.84297 16.0688 2.31563C14.7797 1.77422 13.4109 1.5 12 1.5H11.9531C10.5328 1.50703 9.15704 1.78828 7.86329 2.34141C6.61407 2.87578 5.49376 3.63516 4.53517 4.60312C3.57657 5.57109 2.82423 6.69609 2.30392 7.95C1.76485 9.24844 1.49298 10.6289 1.50001 12.0492C1.50704 13.6758 1.8961 15.2906 2.62501 16.7344V20.2969C2.62501 20.8922 3.10782 21.375 3.70314 21.375H7.26798C8.71173 22.1039 10.3266 22.493 11.9531 22.5H12.0024C13.4063 22.5 14.768 22.2281 16.05 21.6961C17.3039 21.1734 18.4313 20.4234 19.3969 19.4648C20.3649 18.5063 21.1266 17.3859 21.6586 16.1367C22.2117 14.843 22.493 13.4672 22.5 12.0469C22.507 10.6195 22.2305 9.23438 21.6844 7.93125ZM18.143 18.1969C16.5 19.8234 14.3203 20.7188 12 20.7188H11.9602C10.5469 20.7117 9.14298 20.3602 7.90314 19.6992L7.70626 19.5938H4.40626V16.2938L4.30079 16.0969C3.63985 14.857 3.28829 13.4531 3.28126 12.0398C3.27189 9.70312 4.16485 7.50937 5.80314 5.85703C7.43907 4.20469 9.62579 3.29062 11.9625 3.28125H12.0024C13.1742 3.28125 14.3109 3.50859 15.382 3.95859C16.4274 4.39687 17.3649 5.02734 18.1711 5.83359C18.975 6.6375 19.6078 7.57734 20.0461 8.62266C20.5008 9.70547 20.7281 10.8539 20.7234 12.0398C20.7094 14.3742 19.793 16.5609 18.143 18.1969Z" fill="#B0B6BE"/>
</svg>
