<svg width="24" height="24" viewBox="0 0 24 24" fill="none" xmlns="http://www.w3.org/2000/svg">
<circle opacity="0.16" cx="12" cy="12" r="12" fill="#27AE60"/>
<path d="M18 8.66667C18.0063 8.62021 18.0063 8.57312 18 8.52667C17.9942 8.48753 17.983 8.44938 17.9667 8.41333C17.9491 8.38075 17.929 8.34955 17.9067 8.32C17.8813 8.27784 17.8499 8.23965 17.8133 8.20667L17.7333 8.16C17.6949 8.1313 17.6521 8.10881 17.6067 8.09333H17.4733C17.4327 8.054 17.3853 8.02237 17.3333 8H14C13.6318 8 13.3333 8.29848 13.3333 8.66667C13.3333 9.03486 13.6318 9.33333 14 9.33333H15.8867L13.22 12.4733L10.34 10.76C10.0582 10.5924 9.69636 10.6546 9.48668 10.9067L6.15335 14.9067C6.03998 15.0427 5.9854 15.2183 6.00166 15.3946C6.01792 15.571 6.10368 15.7336 6.24002 15.8467C6.35996 15.9461 6.51091 16.0003 6.66668 16C6.86497 16.0003 7.05311 15.9124 7.18002 15.76L10.1467 12.2L12.9933 13.9067C13.2721 14.072 13.6293 14.0129 13.84 13.7667L16.6667 10.4667V12C16.6667 12.3682 16.9652 12.6667 17.3333 12.6667C17.7015 12.6667 18 12.3682 18 12V8.66667Z" fill="#27AE60"/>
</svg>
