<svg width="24" height="24" viewBox="0 0 24 24" fill="none" xmlns="http://www.w3.org/2000/svg">
<g id="icon/ navbar/ ic_authenticator">
<path id="Path" opacity="0.48" d="M7.60894 3.93548C8.53283 2.75318 10.0178 2.01867 11.5222 2.04256C13.0258 2.01867 14.5081 2.75141 15.4328 3.93105C16.1718 4.8576 16.562 6.05583 16.501 7.2399C15.8789 7.0992 15.247 7.00893 14.6178 6.90628C14.6001 5.94521 14.0797 5.0169 13.2904 4.4753C12.5461 3.95052 11.5638 3.77619 10.6877 4.03282C9.41956 4.37176 8.44522 5.58946 8.42664 6.90805C7.79744 7.00805 7.16558 7.09831 6.54434 7.24079C6.48328 6.0576 6.87177 4.86114 7.60894 3.93548Z" fill="#637381"/>
<path id="Shape" fill-rule="evenodd" clip-rule="evenodd" d="M19.0016 9.6163C19.0009 9.37182 19.0003 9.12741 19.0018 8.88312C14.2045 7.22382 8.85316 7.22117 4.05493 8.87958C4.05607 9.22319 4.05574 9.56696 4.05542 9.91076C4.05499 10.3692 4.05455 10.8276 4.05759 11.2858C4.13458 12.9982 4.56821 14.6973 5.35051 16.2238C6.63723 18.7929 8.87529 20.8583 11.5222 21.9681C13.3806 21.1858 15.0417 19.9398 16.3071 18.3698C18.0001 16.2858 18.9717 13.6238 18.9921 10.9371C19.004 10.4968 19.0028 10.0564 19.0016 9.6163ZM10.7417 13.6849C10.07 13.3805 9.61245 12.6513 9.67352 11.9088C9.68148 10.9539 10.5638 10.1114 11.5195 10.1495C12.5089 10.1052 13.4169 11.0088 13.3717 11.999C13.4009 12.7105 12.9452 13.392 12.3036 13.684C12.9363 13.9061 13.4833 14.3716 13.7656 14.9831C13.9806 15.4044 14.008 15.8858 14.0169 16.3495C12.354 16.3504 10.6912 16.3504 9.0275 16.3495C9.02042 15.7327 9.12838 15.0893 9.51422 14.5884C9.81157 14.1636 10.2567 13.861 10.7417 13.6849Z" fill="#637381"/>
</g>
</svg>
