<svg width="13" height="9" viewBox="0 0 13 9" fill="none" xmlns="http://www.w3.org/2000/svg">
<path d="M12.2268 1.38819C12.2331 1.34173 12.2331 1.29464 12.2268 1.24819C12.221 1.20905 12.2097 1.1709 12.1934 1.13485C12.1758 1.10227 12.1558 1.07107 12.1334 1.04152C12.1081 0.999355 12.0766 0.961166 12.0401 0.928186L11.9601 0.881519C11.9216 0.852824 11.8789 0.830329 11.8334 0.814853H11.7001C11.6595 0.775516 11.612 0.743891 11.5601 0.721519H8.22676C7.85857 0.721519 7.56009 1.02 7.56009 1.38819C7.56009 1.75638 7.85857 2.05485 8.22676 2.05485H10.1134L7.44676 5.19485L4.56676 3.48152C4.28495 3.31391 3.9231 3.3761 3.71343 3.62819L0.380095 7.62819C0.266722 7.76424 0.212144 7.93982 0.228403 8.11617C0.244663 8.29252 0.330423 8.45515 0.466761 8.56819C0.586703 8.66757 0.73766 8.72182 0.893428 8.72152C1.09172 8.72184 1.27986 8.63388 1.40676 8.48152L4.37343 4.92152L7.22009 6.62819C7.49883 6.79351 7.85608 6.73444 8.06676 6.48819L10.8934 3.18819V4.72152C10.8934 5.08971 11.1919 5.38819 11.5601 5.38819C11.9283 5.38819 12.2268 5.08971 12.2268 4.72152V1.38819Z" fill="#008060"/>
</svg>
