<svg width="16" height="16" viewBox="0 0 16 16" fill="none" xmlns="http://www.w3.org/2000/svg">
<path fill-rule="evenodd" clip-rule="evenodd" d="M9.66895 0.864L7.99995 0L6.33095 0.864L4.47295 1.146L3.63095 2.826L2.29395 4.146L2.59995 6L2.29395 7.854L3.63095 9.174L4.47295 10.854L6.33095 11.136L7.99995 12L9.66895 11.136L11.5269 10.854L12.3689 9.174L13.7059 7.854L13.3999 6L13.7059 4.146L12.3689 2.826L11.5269 1.146L9.66895 0.864ZM10.8649 2.057L9.35495 1.828L7.99995 1.126L6.64495 1.828L5.13495 2.057L4.45095 3.422L3.36495 4.494L3.61395 6L3.36395 7.506L4.45095 8.578L5.13495 9.943L6.64495 10.172L7.99995 10.874L9.35595 10.172L10.8649 9.943L11.5489 8.578L12.6349 7.506L12.3869 6L12.6349 4.494L11.5489 3.422L10.8649 2.057V2.057Z" fill="#BDC1CC"/>
<path d="M4 11.794V16L8 15L12 16V11.794L9.982 12.1L8 13.126L6.018 12.1L4 11.794Z" fill="#BDC1CC"/>
</svg>
