<svg width="24" height="24" viewBox="0 0 24 24" fill="none" xmlns="http://www.w3.org/2000/svg">
<g id="icon/ navbar/ ic_charts">
<path id="Path" opacity="0.48" d="M14.9047 10.8857H21.2571C21.6937 10.8857 22.0476 10.5318 22.0476 10.0952C22.0476 6.15036 18.8496 2.95239 14.9047 2.95239C14.4682 2.95239 14.1143 3.3063 14.1143 3.74287V10.0952C14.1143 10.5318 14.4682 10.8857 14.9047 10.8857Z" fill="#637381"/>
<path id="Path_2" d="M21.1715 12.4763H13.4096C13.1797 12.4763 12.9593 12.385 12.7968 12.2224C12.6342 12.0599 12.5429 11.8395 12.5429 11.6096V3.82865C12.5444 3.57879 12.4391 3.34018 12.2536 3.17283C12.0681 3.00547 11.8199 2.9253 11.5715 2.95246C6.60003 3.48035 2.88298 7.76248 3.05924 12.7588C3.23549 17.7551 7.24504 21.7647 12.2414 21.9409C17.2377 22.1172 21.5198 18.4001 22.0477 13.4287C22.0691 13.1834 21.9863 12.9404 21.8196 12.7592C21.6529 12.578 21.4177 12.4753 21.1715 12.4763Z" fill="#637381"/>
</g>
</svg>
