<svg width="33" height="33" viewBox="0 0 33 33" fill="none" xmlns="http://www.w3.org/2000/svg">
<rect x="0.5" y="0.25" width="32" height="32" rx="8" fill="#FFE7D9"/>
<path d="M13.9993 7.08334V8.75H18.9993V7.08334H20.666V8.75H23.9993C24.2204 8.75 24.4323 8.8378 24.5886 8.99408C24.7449 9.15036 24.8327 9.36232 24.8327 9.58334V22.9167C24.8327 23.1377 24.7449 23.3496 24.5886 23.5059C24.4323 23.6622 24.2204 23.75 23.9993 23.75H8.99935C8.77834 23.75 8.56637 23.6622 8.41009 23.5059C8.25381 23.3496 8.16602 23.1377 8.16602 22.9167V9.58334C8.16602 9.36232 8.25381 9.15036 8.41009 8.99408C8.56637 8.8378 8.77834 8.75 8.99935 8.75H12.3327V7.08334H13.9993ZM23.166 12.9167H9.83268V22.0833H23.166V12.9167ZM19.0293 14.6967L20.2077 15.875L16.0827 20L13.136 17.0533L14.316 15.875L16.0835 17.6433L19.0302 14.6967H19.0293Z" fill="#B72136"/>
</svg>
