<svg width="24" height="24" viewBox="0 0 24 24" fill="none" xmlns="http://www.w3.org/2000/svg">
<g id="icon/ color/ ic_notification_chat">
<g id="chat">
<path id="Path" d="M15.9546 7.27195C20.3369 7.20502 23.9136 10.6541 23.9985 15.036C24.0109 15.6794 23.9466 16.3056 23.8141 16.9063C23.5898 17.9233 23.4564 18.9583 23.4564 19.9998V22.013C23.4564 22.3214 23.2064 22.5714 22.898 22.5714H20.8848C19.8433 22.5714 18.8083 22.7048 17.7913 22.9291C17.1907 23.0616 16.5645 23.1259 15.9211 23.1135C11.5392 23.0287 8.09012 19.452 8.15696 15.0698C8.22216 10.7925 11.6773 7.3373 15.9546 7.27195Z" fill="url(#paint0_linear_2142_24410)"/>
<path id="Path_2" fill-rule="evenodd" clip-rule="evenodd" d="M15.9546 7.27195C20.3369 7.20502 23.9136 10.6541 23.9985 15.036C24.0109 15.6794 23.9466 16.3056 23.8141 16.9063C23.5898 17.9233 23.4564 18.9583 23.4564 19.9998V22.013C23.4564 22.3214 23.2064 22.5714 22.898 22.5714H20.8848C19.8433 22.5714 18.8083 22.7048 17.7913 22.9291C17.1907 23.0616 16.5645 23.1259 15.9211 23.1135C11.5392 23.0287 8.09012 19.452 8.15696 15.0698C8.22216 10.7925 11.6773 7.3373 15.9546 7.27195Z" fill="url(#paint1_linear_2142_24410)"/>
<path id="Path_3" fill-rule="evenodd" clip-rule="evenodd" d="M9.80149 0.0426714C4.4627 -0.0388911 0.105251 4.16303 0.00184497 9.50144C-0.0132957 10.2851 0.0650325 11.0481 0.22647 11.7798C0.499751 13.0188 0.66222 14.2797 0.66222 15.5486V18.0012C0.66222 18.3769 0.966814 18.6816 1.34261 18.6816H3.7952C5.06402 18.6816 6.32491 18.844 7.56395 19.1173C8.29567 19.2787 9.05861 19.3571 9.84231 19.3419C15.1806 19.2385 19.3825 14.8812 19.3012 9.54255C19.2217 4.33159 15.0124 0.122218 9.80149 0.0426714Z" fill="url(#paint2_linear_2142_24410)"/>
<path id="Path_4" fill-rule="evenodd" clip-rule="evenodd" d="M6.19669 9.17522C5.92406 8.88554 5.53819 8.70361 5.1089 8.70361C4.28329 8.70361 3.61401 9.37289 3.61401 10.1985C3.61401 10.6277 3.79589 11.0136 4.08562 11.2863L7.31034 14.511C7.58301 14.8007 7.96889 14.9826 8.39812 14.9826C9.22373 14.9826 9.89301 14.3133 9.89301 13.4877C9.89301 13.0585 9.71109 12.6726 9.4214 12.3999L6.19669 9.17522Z" fill="#0C53B7"/>
<path id="Path_5" fill-rule="evenodd" clip-rule="evenodd" d="M10.4242 9.17522C10.1516 8.88554 9.76572 8.70361 9.33644 8.70361C8.51083 8.70361 7.84155 9.37289 7.84155 10.1985C7.84155 10.6277 8.02343 11.0136 8.31316 11.2863L11.5379 14.511C11.8106 14.8007 12.1964 14.9826 12.6257 14.9826C13.4513 14.9826 14.1206 14.3133 14.1206 13.4877C14.1206 13.0585 13.9386 12.6726 13.6489 12.3999L10.4242 9.17522Z" fill="#0C53B7"/>
<path id="Path_6" fill-rule="evenodd" clip-rule="evenodd" d="M14.6518 9.17522C14.3791 8.88554 13.9933 8.70361 13.564 8.70361C12.7384 8.70361 12.0691 9.37289 12.0691 10.1985C12.0691 10.6277 12.251 11.0136 12.5407 11.2863L15.7654 14.511C16.0381 14.8007 16.424 14.9826 16.8532 14.9826C17.6788 14.9826 18.3481 14.3133 18.3481 13.4877C18.3481 13.0585 18.1662 12.6726 17.8765 12.3999L14.6518 9.17522Z" fill="#0C53B7"/>
<circle id="Oval" cx="5.10866" cy="10.1985" r="1.49489" fill="white"/>
<circle id="Oval_2" cx="9.33644" cy="10.1985" r="1.49489" fill="white"/>
<circle id="Oval_3" cx="13.5642" cy="10.1985" r="1.49489" fill="white"/>
</g>
</g>
<defs>
<linearGradient id="paint0_linear_2142_24410" x1="8.66343" y1="19.4097" x2="20.2942" y2="31.0405" gradientUnits="userSpaceOnUse">
<stop stop-color="#A7F3CE"/>
<stop offset="1" stop-color="#61DB99"/>
</linearGradient>
<linearGradient id="paint1_linear_2142_24410" x1="0.234016" y1="15.193" x2="16.078" y2="31.037" gradientUnits="userSpaceOnUse">
<stop stop-color="#5BE584"/>
<stop offset="1" stop-color="#00AB55"/>
</linearGradient>
<linearGradient id="paint2_linear_2142_24410" x1="-9.65117" y1="9.69263" x2="9.65109" y2="28.995" gradientUnits="userSpaceOnUse">
<stop stop-color="#74CAFF"/>
<stop offset="1" stop-color="#0C53B7"/>
</linearGradient>
</defs>
</svg>
