<svg width="20" height="20" viewBox="0 0 20 20" fill="none" xmlns="http://www.w3.org/2000/svg">
<path fill-rule="evenodd" clip-rule="evenodd" d="M5.37033 3.07141C6.74074 2.15573 8.35191 1.66699 10.0001 1.66699C11.0944 1.66699 12.1781 1.88254 13.1891 2.30133C14.2002 2.72012 15.1188 3.33395 15.8926 4.10777C16.6665 4.88159 17.2803 5.80025 17.6991 6.8113C18.1179 7.82234 18.3334 8.90598 18.3334 10.0003C18.3334 11.6485 17.8447 13.2597 16.929 14.6301C16.0133 16.0005 14.7118 17.0686 13.1891 17.6993C11.6664 18.3301 9.99084 18.4951 8.37433 18.1735C6.75782 17.852 5.27297 17.0583 4.10753 15.8929C2.94209 14.7274 2.14842 13.2426 1.82687 11.6261C1.50533 10.0096 1.67036 8.33401 2.30109 6.8113C2.93182 5.28858 3.99992 3.98709 5.37033 3.07141ZM6.29628 15.5435C7.39261 16.276 8.68154 16.667 10.0001 16.667C11.7682 16.667 13.4639 15.9646 14.7141 14.7144C15.9644 13.4641 16.6668 11.7684 16.6668 10.0003C16.6668 8.68178 16.2758 7.39285 15.5432 6.29652C14.8107 5.2002 13.7695 4.34571 12.5513 3.84113C11.3331 3.33654 9.99269 3.20452 8.69948 3.46176C7.40628 3.71899 6.21839 4.35393 5.28604 5.28628C4.35369 6.21863 3.71875 7.40652 3.46152 8.69972C3.20428 9.99293 3.3363 11.3334 3.84089 12.5515C4.34547 13.7697 5.19996 14.8109 6.29628 15.5435ZM10.8334 9.16699H13.3334C13.5544 9.16699 13.7664 9.25479 13.9227 9.41107C14.079 9.56735 14.1667 9.77931 14.1667 10.0003C14.1667 10.2213 14.079 10.4333 13.9227 10.5896C13.7664 10.7459 13.5544 10.8337 13.3334 10.8337H10.0001C9.77907 10.8337 9.56711 10.7459 9.41083 10.5896C9.25455 10.4333 9.16675 10.2213 9.16675 10.0003V6.66699C9.16675 6.44598 9.25455 6.23402 9.41083 6.07774C9.56711 5.92146 9.77907 5.83366 10.0001 5.83366C10.2211 5.83366 10.4331 5.92146 10.5893 6.07774C10.7456 6.23402 10.8334 6.44598 10.8334 6.66699V9.16699Z" fill="#212B36"/>
</svg>
