<svg width="405" height="451" viewBox="0 0 405 451" fill="none" xmlns="http://www.w3.org/2000/svg">
<g clip-path="url(#clip0_2706_37970)">
<path d="M344.27 243.92L271.54 216.42C270.345 215.968 269.251 215.285 268.32 214.41C267.39 213.536 266.641 212.486 266.116 211.321C265.591 210.156 265.301 208.9 265.262 207.623C265.224 206.346 265.437 205.074 265.89 203.88L303.95 103.22C304.863 100.807 306.696 98.8549 309.048 97.7934C311.4 96.732 314.077 96.6481 316.49 97.56L362.62 115L384.4 165.3L356.81 238.3C355.89 240.706 354.052 242.649 351.702 243.702C349.351 244.756 346.678 244.834 344.27 243.92Z" fill="#F5F5F5"/>
<path d="M362.619 115L351.899 143.33C351.478 144.442 351.28 145.625 351.317 146.813C351.353 148.002 351.623 149.171 352.112 150.255C352.6 151.338 353.297 152.315 354.164 153.129C355.03 153.944 356.048 154.579 357.159 155L384.399 165.3L362.619 115Z" fill="#EBEBEB"/>
<path d="M351.329 145.96C351.329 145.96 348.379 152.7 355.329 157.96C355.591 158.156 355.865 158.336 356.149 158.5C359.469 160.5 381.309 173.5 381.509 172.97L384.389 165.35L357.149 155.05C357.149 155.05 350.449 152.2 351.329 145.96Z" fill="#E0E0E0"/>
<path d="M346.24 139.87C346.1 140.24 338.46 137.68 329.17 134.17C319.88 130.66 312.46 127.51 312.6 127.17C312.74 126.83 320.38 129.36 329.67 132.87C338.96 136.38 346.38 139.48 346.24 139.87Z" fill="#E0E0E0"/>
<path d="M361.91 164.11C361.77 164.47 349.27 160.11 333.98 154.3C318.69 148.49 306.4 143.53 306.54 143.16C306.68 142.79 319.18 147.16 334.48 152.98C349.78 158.8 362.02 163.74 361.91 164.11Z" fill="#E0E0E0"/>
<path d="M361.838 179.37C361.698 179.73 348.078 174.92 331.408 168.61C314.738 162.3 301.338 156.9 301.478 156.54C301.618 156.18 315.238 160.99 331.908 167.3C348.578 173.61 362.018 179 361.838 179.37Z" fill="#E0E0E0"/>
<path d="M357.068 191.99C356.928 192.35 343.308 187.54 326.638 181.23C309.968 174.92 296.568 169.48 296.708 169.16C296.848 168.84 310.468 173.61 327.138 179.91C343.808 186.21 357.208 191.62 357.068 191.99Z" fill="#E0E0E0"/>
<path d="M352.301 204.61C352.161 204.97 338.531 200.16 321.871 193.85C305.211 187.54 291.801 182.14 291.931 181.78C292.061 181.42 305.691 186.23 322.371 192.53C339.051 198.83 352.431 204.24 352.301 204.61Z" fill="#E0E0E0"/>
<path d="M347.517 217.23C347.387 217.59 333.757 212.77 317.097 206.47C300.437 200.17 287.017 194.76 287.157 194.4C287.297 194.04 300.917 198.85 317.587 205.15C334.257 211.45 347.657 216.86 347.517 217.23Z" fill="#E0E0E0"/>
<path d="M101.786 139.417L5.90492 172.994C2.58979 174.155 0.843473 177.784 2.00442 181.099L50.1108 318.469C51.2717 321.784 54.9003 323.53 58.2154 322.369L154.096 288.793C157.411 287.632 159.158 284.003 157.997 280.688L109.89 143.318C108.729 140.003 105.101 138.256 101.786 139.417Z" fill="#EBEBEB"/>
<path d="M103.017 147.966L10.2695 180.445L57.9495 316.598L150.697 284.118L103.017 147.966Z" fill="#E0E0E0"/>
<path d="M101.357 147.315L8.60938 179.795L55.3805 313.352L148.128 280.872L101.357 147.315Z" fill="#FAFAFA"/>
<path d="M148.11 280.87L101.22 147.36L101.39 147.44L8.66 179.93L8.75 179.75C26.23 229.91 42.5 276.24 55.49 313.31L55.34 313.24L148.12 280.87L55.41 313.48H55.3V313.37C42.3 276.3 26.08 229.97 8.5 179.82V179.68H8.63L101.37 147.22H101.5V147.34L148.11 280.87Z" fill="#E0E0E0"/>
<path d="M115.219 292.39C115.219 292.39 135.869 274.97 139.449 256.83C137.377 259.705 134.744 262.132 131.708 263.962C128.673 265.792 125.299 266.989 121.789 267.48C121.789 267.48 121.379 286.48 115.219 292.39Z" fill="#E0E0E0"/>
<path d="M40.3026 209.554L35.4231 211.263C33.6404 211.887 32.7014 213.839 33.3257 215.621L35.0344 220.501C35.6587 222.283 37.6099 223.223 39.3926 222.598L44.272 220.89C46.0547 220.265 46.9938 218.314 46.3695 216.531L44.6607 211.652C44.0364 209.869 42.0852 208.93 40.3026 209.554Z" fill="#EBEBEB"/>
<path d="M39.7107 217.96C39.6767 217.978 39.639 217.987 39.6007 217.987C39.5624 217.987 39.5247 217.978 39.4907 217.96L37.2507 216.66C37.1965 216.619 37.1592 216.559 37.1459 216.492C37.1327 216.425 37.1444 216.355 37.1788 216.296C37.2132 216.237 37.2679 216.193 37.3327 216.172C37.3975 216.15 37.4679 216.153 37.5307 216.18L39.5307 217.32L41.8907 212.32C41.9251 212.253 41.9832 212.202 42.0535 212.176C42.1238 212.15 42.2013 212.152 42.2707 212.18C42.3046 212.196 42.3349 212.219 42.3598 212.247C42.3848 212.274 42.4039 212.307 42.416 212.343C42.4281 212.378 42.433 212.415 42.4304 212.453C42.4278 212.49 42.4177 212.527 42.4007 212.56L39.9107 217.88C39.885 217.907 39.8539 217.928 39.8194 217.942C39.7849 217.955 39.7478 217.962 39.7107 217.96Z" fill="white"/>
<path d="M103.749 188.88C103.749 188.96 91.7494 193.25 76.8594 198.46C61.9694 203.67 49.8594 207.83 49.8594 207.76C49.8594 207.69 61.8594 203.39 76.7594 198.18C91.6594 192.97 103.729 188.81 103.749 188.88Z" fill="#E0E0E0"/>
<path d="M75.4703 208.1C75.4703 208.1 75.1603 208.24 74.6003 208.46L72.1803 209.36C70.1803 210.1 67.3003 211.11 64.1803 212.21C61.0603 213.31 58.1803 214.29 56.1803 214.98L53.7303 215.79C53.4337 215.899 53.1296 215.986 52.8203 216.05C53.0999 215.904 53.3909 215.78 53.6903 215.68L56.1103 214.79C58.1103 214.04 60.9903 213.03 64.1103 211.93C67.2303 210.83 70.1103 209.86 72.1103 209.16L74.5603 208.35C74.8559 208.241 75.1603 208.157 75.4703 208.1Z" fill="#E0E0E0"/>
<path d="M105.021 192.56C105.021 192.63 93.0211 196.92 78.1211 202.13C63.2211 207.34 51.1211 211.51 51.1211 211.43C51.1211 211.35 63.1211 207.07 78.0311 201.86C92.9411 196.65 105.021 192.48 105.021 192.56Z" fill="#E0E0E0"/>
<path d="M47.2674 229.452L42.388 231.161C40.6053 231.785 39.6662 233.737 40.2905 235.519L41.9993 240.399C42.6235 242.181 44.5748 243.12 46.3574 242.496L51.2369 240.787C53.0195 240.163 53.9586 238.212 53.3343 236.429L51.6256 231.55C51.0013 229.767 49.0501 228.828 47.2674 229.452Z" fill="#EBEBEB"/>
<path d="M46.679 237.86C46.6433 237.878 46.6039 237.887 46.564 237.887C46.5241 237.887 46.4848 237.878 46.449 237.86L44.219 236.56C44.1867 236.542 44.1583 236.518 44.1356 236.489C44.1129 236.46 44.0964 236.427 44.087 236.392C44.0776 236.356 44.0757 236.319 44.0812 236.283C44.0867 236.246 44.0995 236.211 44.119 236.18C44.1366 236.148 44.1606 236.119 44.1896 236.097C44.2186 236.074 44.2519 236.057 44.2874 236.048C44.323 236.039 44.3602 236.037 44.3965 236.042C44.4329 236.048 44.4678 236.061 44.499 236.08L46.499 237.22L48.859 232.17C48.8915 232.104 48.9478 232.053 49.0164 232.027C49.0851 232.001 49.1611 232.002 49.229 232.03C49.2966 232.061 49.3493 232.117 49.3756 232.186C49.4018 232.255 49.3994 232.332 49.369 232.4L46.879 237.73C46.8568 237.765 46.8275 237.794 46.793 237.817C46.7585 237.839 46.7197 237.854 46.679 237.86Z" fill="white"/>
<path d="M110.72 208.78C110.72 208.86 98.7203 213.14 83.8203 218.36C68.9203 223.58 56.8203 227.73 56.8203 227.66C56.8203 227.59 68.8203 223.29 83.7203 218.08C98.6203 212.87 110.7 208.71 110.72 208.78Z" fill="#E0E0E0"/>
<path d="M82.4391 228C82.4391 228 82.1291 228.14 81.5591 228.36L79.1491 229.26C77.1491 230 74.2691 231.01 71.1491 232.11C68.0291 233.21 65.1491 234.19 63.1491 234.88L60.6991 235.69C60.4025 235.799 60.0983 235.886 59.7891 235.95C60.0675 235.801 60.3587 235.677 60.6591 235.58L63.0791 234.69C65.0791 233.94 67.9591 232.93 71.0791 231.83C74.1991 230.73 77.0791 229.76 79.0791 229.06L81.5291 228.25C81.8246 228.141 82.1291 228.057 82.4391 228Z" fill="#E0E0E0"/>
<path d="M112.021 212.48C112.021 212.55 100.021 216.84 85.1211 222.05C70.2211 227.26 58.1211 231.43 58.1211 231.35C58.1211 231.27 70.1211 226.99 85.0211 221.78C99.9211 216.57 112.021 212.38 112.021 212.48Z" fill="#E0E0E0"/>
<path d="M54.244 249.35L49.3645 251.059C47.5819 251.683 46.6428 253.635 47.2671 255.417L48.9758 260.297C49.6001 262.079 51.5513 263.018 53.334 262.394L58.2134 260.685C59.9961 260.061 60.9352 258.11 60.3109 256.327L58.6021 251.448C57.9778 249.665 56.0266 248.726 54.244 249.35Z" fill="#EBEBEB"/>
<path d="M53.6477 257.76C53.612 257.778 53.5726 257.787 53.5327 257.787C53.4929 257.787 53.4535 257.778 53.4177 257.76L51.1777 256.48C51.1412 256.464 51.1085 256.441 51.0816 256.412C51.0548 256.383 51.0344 256.348 51.022 256.31C51.0095 256.273 51.0052 256.233 51.0093 256.193C51.0135 256.154 51.026 256.116 51.046 256.081C51.066 256.047 51.093 256.018 51.1253 255.995C51.1577 255.971 51.1945 255.956 51.2335 255.948C51.2724 255.94 51.3125 255.941 51.3512 255.95C51.3899 255.959 51.4262 255.976 51.4577 256L53.4577 257.14L55.8177 252.09C55.8318 252.055 55.8527 252.023 55.8794 251.996C55.9061 251.969 55.9379 251.948 55.973 251.934C56.008 251.92 56.0456 251.913 56.0834 251.914C56.1212 251.915 56.1584 251.923 56.1929 251.939C56.2273 251.954 56.2583 251.977 56.2839 252.004C56.3095 252.032 56.3292 252.065 56.3418 252.1C56.3544 252.136 56.3596 252.174 56.3572 252.212C56.3548 252.249 56.3448 252.286 56.3277 252.32L53.8377 257.65C53.7888 257.707 53.7218 257.746 53.6477 257.76Z" fill="white"/>
<path d="M117.689 228.68C117.689 228.76 105.689 233.04 90.7891 238.26C75.8891 243.48 63.7891 247.63 63.7891 247.55C63.7891 247.47 75.7891 243.19 90.6991 237.98C105.609 232.77 117.659 228.61 117.689 228.68Z" fill="#E0E0E0"/>
<path d="M89.41 247.89C89.1262 248.035 88.832 248.159 88.53 248.26L86.11 249.16C84.11 249.9 81.24 250.91 78.11 252.01C74.98 253.11 72.11 254.08 70.11 254.78L67.66 255.59C67.3629 255.697 67.0589 255.784 66.75 255.85C67.0284 255.701 67.3196 255.577 67.62 255.48L70.04 254.58C72.04 253.84 74.92 252.83 78.04 251.73C81.16 250.63 84.04 249.66 86.04 248.96L88.48 248.15C88.7848 248.046 89.0953 247.959 89.41 247.89Z" fill="#E0E0E0"/>
<path d="M119.021 232.36C119.021 232.43 107.021 236.72 92.1211 241.93C77.2211 247.14 65.1211 251.31 65.1211 251.23C65.1211 251.15 77.1211 246.87 92.0211 241.65C106.921 236.43 118.951 232.28 119.021 232.36Z" fill="#E0E0E0"/>
<path d="M61.2088 269.258L56.3294 270.967C54.5467 271.591 53.6076 273.543 54.2319 275.325L55.9407 280.205C56.565 281.987 58.5162 282.926 60.2988 282.302L65.1783 280.593C66.9609 279.969 67.9 278.018 67.2757 276.235L65.567 271.356C64.9427 269.573 62.9915 268.634 61.2088 269.258Z" fill="#EBEBEB"/>
<path d="M60.611 277.66C60.5763 277.675 60.5388 277.683 60.501 277.683C60.4632 277.683 60.4258 277.675 60.391 277.66L58.151 276.36C58.0874 276.322 58.0416 276.259 58.0238 276.187C58.006 276.115 58.0176 276.039 58.056 275.975C58.0945 275.911 58.1567 275.866 58.2289 275.848C58.3011 275.83 58.3774 275.842 58.441 275.88L60.441 277.02L62.801 272.02C62.8316 271.952 62.8877 271.9 62.9571 271.873C63.0264 271.847 63.1034 271.85 63.171 271.88C63.2369 271.912 63.2879 271.969 63.3139 272.037C63.3399 272.106 63.3389 272.182 63.311 272.25L60.811 277.58C60.7571 277.631 60.6855 277.66 60.611 277.66Z" fill="white"/>
<path d="M124.658 248.58C124.658 248.66 112.658 252.94 97.7578 258.15C82.8578 263.36 70.7578 267.53 70.7578 267.45C70.7578 267.37 82.7578 263.09 97.6578 257.88C112.558 252.67 124.628 248.48 124.658 248.58Z" fill="#E0E0E0"/>
<path d="M96.3688 267.79C96.0903 267.939 95.7992 268.063 95.4987 268.16L93.0788 269.06C91.0788 269.8 88.1988 270.81 85.0788 271.91C81.9588 273.01 79.0788 273.98 77.0788 274.68L74.6288 275.49C74.0488 275.67 73.7188 275.76 73.7188 275.75C73.9972 275.601 74.2883 275.477 74.5888 275.38L77.0088 274.48C79.0088 273.74 81.8888 272.73 85.0088 271.63C88.1288 270.53 91.0088 269.56 93.0088 268.86L95.4588 268.05C95.7558 267.943 96.0599 267.856 96.3688 267.79Z" fill="#E0E0E0"/>
<path d="M125.951 252.26C125.951 252.33 113.951 256.62 99.0508 261.83C84.1508 267.04 72.0508 271.2 72.0508 271.13C72.0508 271.06 84.0508 266.77 98.9508 261.55C113.851 256.33 125.921 252.18 125.951 252.26Z" fill="#E0E0E0"/>
<path d="M19.1094 166.78L21.5494 173.78C22.2318 175.729 23.66 177.327 25.5201 178.223C27.3802 179.119 29.52 179.241 31.4694 178.56L82.7694 160.56C83.7338 160.223 84.6224 159.7 85.3843 159.019C86.1461 158.339 86.7663 157.515 87.2094 156.594C87.6524 155.674 87.9096 154.675 87.9663 153.655C88.0229 152.635 87.8778 151.614 87.5394 150.65L85.0994 143.65L19.1094 166.78Z" fill="#E0E0E0"/>
<path d="M52.7893 157.3C51.4265 157.779 49.9521 157.844 48.5527 157.485C47.1534 157.126 45.892 156.36 44.9282 155.284C43.9645 154.208 43.3417 152.87 43.1388 151.439C42.9359 150.009 43.1619 148.55 43.7883 147.249C44.4147 145.947 45.4132 144.86 46.6575 144.126C47.9018 143.392 49.336 143.044 50.7783 143.125C52.2207 143.207 53.6064 143.715 54.7601 144.584C55.9138 145.454 56.7836 146.646 57.2593 148.01C57.8957 149.835 57.7825 151.837 56.9445 153.579C56.1066 155.32 54.6123 156.659 52.7893 157.3ZM48.8893 146.17C48.0488 146.463 47.3142 147 46.7785 147.711C46.2428 148.422 45.93 149.276 45.8798 150.164C45.8295 151.053 46.044 151.937 46.4962 152.704C46.9483 153.471 47.6177 154.086 48.4198 154.473C49.2218 154.859 50.1205 154.999 51.002 154.874C51.8835 154.75 52.7082 154.367 53.3719 153.773C54.0356 153.18 54.5083 152.403 54.7304 151.541C54.9524 150.679 54.9138 149.77 54.6193 148.93C54.2248 147.805 53.3998 146.882 52.3254 146.364C51.251 145.847 50.0152 145.777 48.8893 146.17Z" fill="#E0E0E0"/>
<path d="M93.7894 175.48C93.7894 175.61 80.3094 180.48 63.5794 186.33C46.8494 192.18 33.2494 196.83 33.1994 196.7C33.1494 196.57 46.6794 191.7 63.4094 185.85C80.1394 180 93.7394 175.31 93.7894 175.48Z" fill="#E0E0E0"/>
<path d="M76.4595 177.93C76.4595 178.06 70.5595 180.27 63.1695 182.86C55.7795 185.45 49.7495 187.48 49.6995 187.3C49.6495 187.12 55.6095 184.96 62.9995 182.37C70.3895 179.78 76.4195 177.8 76.4595 177.93Z" fill="#E0E0E0"/>
<path d="M343.021 380.56C346.703 378.831 350.843 378.33 354.831 379.13C356.971 379.48 359.211 380.13 360.661 381.73C362.111 383.33 362.401 386.17 360.721 387.55C359.636 388.288 358.325 388.617 357.021 388.48C353.891 388.48 350.431 387.89 347.941 389.77C346.511 390.84 345.571 392.62 343.871 393.15C343.015 393.349 342.118 393.262 341.317 392.9C340.517 392.539 339.857 391.924 339.441 391.15C338.633 389.586 338.454 387.772 338.941 386.08C339.151 384.908 339.628 383.8 340.336 382.843C341.043 381.886 341.962 381.104 343.021 380.56Z" fill="#FF725E"/>
<path d="M334.742 364.68C336.942 367.81 341.212 366.78 343.192 364.86C345.172 362.94 346.002 360.17 346.762 357.53C348.502 351.48 350.262 345.14 348.972 338.98C348.651 337.129 347.831 335.4 346.602 333.98C345.975 333.275 345.174 332.747 344.279 332.449C343.384 332.151 342.426 332.092 341.502 332.28C339.342 332.85 338.012 334.96 337.042 336.96C334.19 342.889 332.697 349.38 332.672 355.96C332.672 359.02 333.022 362.22 334.742 364.75" fill="#FF725E"/>
<path d="M328.711 369.18C329.841 367.705 330.593 365.977 330.903 364.146C331.214 362.314 331.072 360.434 330.491 358.67C329.282 355.156 327.13 352.043 324.271 349.67C321.019 346.777 317.236 344.545 313.131 343.1C311.545 342.459 309.839 342.169 308.131 342.25C307.276 342.298 306.447 342.555 305.715 342.998C304.983 343.441 304.37 344.056 303.931 344.79C302.751 347.03 303.931 349.74 305.091 351.95C307.231 355.852 309.679 359.577 312.411 363.09C314.601 365.92 317.111 368.71 320.461 369.99C323.811 371.27 327.271 371.11 329.041 368.8" fill="#FF725E"/>
<path d="M334.601 411.99C334.711 411.524 334.774 411.048 334.791 410.57C334.901 409.57 335.021 408.23 335.171 406.68C335.363 404.762 335.657 402.856 336.051 400.97C336.559 398.675 337.251 396.424 338.121 394.24C338.975 392.058 340.133 390.008 341.561 388.15C342.724 386.635 344.21 385.399 345.911 384.53C347.063 383.958 348.298 383.573 349.571 383.39C350.05 383.373 350.526 383.306 350.991 383.19C350.509 383.138 350.023 383.138 349.541 383.19C348.222 383.296 346.932 383.635 345.731 384.19C343.94 385.032 342.369 386.278 341.141 387.83C339.655 389.717 338.455 391.813 337.581 394.05C336.694 396.265 336.004 398.554 335.521 400.89C335.153 402.8 334.899 404.73 334.761 406.67C334.631 408.32 334.591 409.67 334.571 410.58C334.525 411.05 334.536 411.523 334.601 411.99Z" fill="#263238"/>
<path d="M334.86 409C334.89 408.781 334.89 408.559 334.86 408.34V406.48C334.86 404.84 334.86 402.48 334.94 399.48C335.09 393.61 335.59 387.3 336.57 378.4C337.49 370.03 338.73 360.29 340.04 353.96C340.32 352.52 340.6 351.22 340.87 350.09C341.14 348.96 341.34 347.97 341.55 347.18C341.76 346.39 341.87 345.82 341.99 345.34C342.045 345.123 342.085 344.902 342.11 344.68C342.01 344.877 341.933 345.085 341.88 345.3C341.73 345.78 341.55 346.38 341.33 347.12C341.11 347.86 340.83 348.88 340.55 350.01C340.27 351.14 339.94 352.43 339.63 353.87C338.028 361.368 336.823 368.945 336.02 376.57C335.02 385.49 334.6 393.57 334.57 399.49C334.57 402.43 334.57 404.81 334.67 406.49C334.67 407.26 334.75 407.89 334.78 408.38C334.789 408.589 334.815 408.796 334.86 409Z" fill="#263238"/>
<path d="M334.902 393.34C334.958 392.674 334.958 392.006 334.902 391.34C334.788 389.548 334.585 387.762 334.292 385.99C333.863 383.359 333.282 380.754 332.552 378.19C331.706 375.034 330.616 371.948 329.292 368.96C327.029 363.453 323.787 358.401 319.722 354.05C319.013 353.306 318.258 352.608 317.462 351.96C317.122 351.66 316.812 351.37 316.462 351.14L315.592 350.54C315.068 350.138 314.509 349.783 313.922 349.48C315.842 350.98 317.662 352.604 319.372 354.34C323.314 358.721 326.474 363.748 328.712 369.2C330.008 372.17 331.104 375.223 331.992 378.34C332.744 380.879 333.362 383.456 333.842 386.06C334.252 388.29 334.492 390.06 334.632 391.36C334.673 392.026 334.763 392.688 334.902 393.34Z" fill="#263238"/>
<path d="M319.762 420.97L321.332 442.47H348.962L350.532 420.97H319.762Z" fill="#263238"/>
<path d="M353.832 412.49H317.102V420.97H353.832V412.49Z" fill="#263238"/>
<path d="M317.102 441.65V444H318.822H353.222V441.65H317.102Z" fill="#455A64"/>
<path d="M320.51 448.13L318.82 444H351.9L349.93 448.13H320.51Z" fill="#455A64"/>
<path d="M350.02 427.99C350.02 427.99 350.02 428.07 349.89 428.19L349.48 428.74L347.87 430.8L347.8 430.89L347.73 430.79L343.78 425.33H344.02L340.12 430.84L340 431.01L339.86 430.85L335.25 425.35H335.51L335.26 425.67L331.13 430.84L331 431.02L330.87 430.84C329.47 428.84 328.16 427 326.97 425.33H327.2L322.41 430.79L322.32 430.89L322.25 430.78C321.62 429.72 321.12 428.87 320.75 428.26L320.37 427.59C320.319 427.516 320.279 427.435 320.25 427.35C320.25 427.35 320.31 427.41 320.41 427.56L320.84 428.21L322.41 430.68H322.26L326.98 425.15L327.1 425.01L327.21 425.16L331.14 430.65H330.87L335.02 425.48L335.28 425.16L335.41 424.99L335.54 425.15L340.15 430.66H339.89L343.82 425.17L343.93 425.01L344.05 425.17C345.6 427.4 346.93 429.29 347.92 430.7H347.77L349.45 428.7L349.9 428.18L350.02 427.99Z" fill="#E0E0E0"/>
<path d="M350.912 420.82C350.912 420.92 343.992 421 335.452 421C326.912 421 319.992 420.92 319.992 420.82C319.992 420.72 326.912 420.65 335.452 420.65C343.992 420.65 350.912 420.73 350.912 420.82Z" fill="#455A64"/>
<path d="M352.311 444.23C352.311 444.32 344.781 444.4 335.511 444.4C326.241 444.4 318.711 444.32 318.711 444.23C318.711 444.14 326.231 444.05 335.511 444.05C344.791 444.05 352.311 444.13 352.311 444.23Z" fill="#263238"/>
<path d="M79.8217 375.63C79.7417 375.72 79.1117 375.34 78.4117 374.78C77.7117 374.22 77.2017 373.69 77.2817 373.59C77.3617 373.49 77.9817 373.88 78.6817 374.44C79.3817 375 79.8917 375.53 79.8217 375.63Z" fill="#263238"/>
<path d="M99.019 346.99C99.2913 344.323 99.071 341.628 98.369 339.04C97.529 336.49 95.569 334.16 92.949 333.61C89.949 332.99 86.889 334.88 85.209 337.44C83.529 340 82.959 343.1 82.459 346.11C79.0472 366.909 77.7906 388.004 78.709 409.06L90.949 410.78C96.279 388.81 98.019 369.6 99.019 346.99Z" fill="#455A64"/>
<path d="M91.2012 333.48L91.1413 333.68L90.9413 334.23L90.1213 336.35C89.9513 336.81 89.7213 337.35 89.5413 337.88L88.9512 339.73L88.2613 341.86L87.6313 344.29C86.6037 348.304 85.8124 352.374 85.2613 356.48C84.6013 361.08 84.1713 366.18 83.8213 371.54C83.2013 382.27 83.1013 392.01 82.8213 399.05C82.6913 402.58 82.5713 405.43 82.4413 407.39C82.3713 408.39 82.3212 409.1 82.2812 409.66C82.2812 409.89 82.2812 410.09 82.2812 410.24C82.2812 410.39 82.2812 410.44 82.2812 410.44C82.2812 410.44 82.2812 410.38 82.2812 410.24C82.2812 410.1 82.2812 409.89 82.2812 409.65C82.2812 409.1 82.2813 408.34 82.3513 407.38C82.4313 405.38 82.5013 402.57 82.5913 399.04C82.7913 392.04 82.8413 382.26 83.4713 371.52C83.8113 366.15 84.2613 361.04 84.9413 356.42C85.5148 352.327 86.3397 348.272 87.4113 344.28L88.0713 341.85C88.3313 341.103 88.5713 340.393 88.7913 339.72L89.4313 337.87C89.6213 337.31 89.8613 336.81 90.0413 336.35L90.9413 334.27C91.0346 334.05 91.1146 333.87 91.1813 333.73C91.174 333.646 91.1808 333.562 91.2012 333.48Z" fill="#263238"/>
<path d="M92.3317 333.53C92.9696 334.284 93.4767 335.139 93.8317 336.06C94.7676 338.589 95.1462 341.291 94.9417 343.98C94.6217 350.75 94.0117 360.07 93.2117 370.37C92.4117 380.67 91.5017 389.97 90.7817 396.7C90.4117 400.06 90.1017 402.78 89.8717 404.7C89.7517 405.61 89.6617 406.33 89.5917 406.86L89.5117 407.42C89.5164 407.483 89.5164 407.547 89.5117 407.61C89.5117 407.61 89.5117 407.55 89.5117 407.42C89.5117 407.29 89.5117 407.08 89.5117 406.85C89.5117 406.32 89.6217 405.6 89.7017 404.68C89.8917 402.76 90.1517 400.05 90.4717 396.68C91.1117 389.94 91.9617 380.68 92.7717 370.34C93.5817 360 94.2317 350.73 94.6317 343.98C94.8494 341.322 94.5088 338.648 93.6317 336.13C93.2761 335.227 92.8411 334.357 92.3317 333.53Z" fill="#263238"/>
<path d="M100.822 365.22C100.019 365.162 99.2328 364.958 98.502 364.62C97.7252 364.418 96.9905 364.079 96.332 363.62C97.1362 363.672 97.9233 363.876 98.652 364.22C99.4297 364.42 100.165 364.759 100.822 365.22Z" fill="#263238"/>
<path d="M102.299 352.74C101.636 353.27 100.889 353.686 100.089 353.97C99.346 354.382 98.5376 354.662 97.6992 354.8C99.1014 353.852 100.658 353.155 102.299 352.74Z" fill="#263238"/>
<path d="M101.53 342.55C100.321 342.768 99.0774 342.682 97.9102 342.3C98.5018 342.13 99.1247 342.1 99.7302 342.21C100.348 342.183 100.965 342.299 101.53 342.55Z" fill="#263238"/>
<path d="M88.8911 336.03C88.7911 336.09 88.2511 335.42 87.7011 334.54C87.3008 334.031 87.0174 333.441 86.8711 332.81C86.9711 332.75 87.5111 333.41 88.0711 334.3C88.6311 335.19 89.0211 335.96 88.8911 336.03Z" fill="#263238"/>
<path d="M84.72 342.19C84.1632 342.39 83.566 342.452 82.98 342.37C82.3907 342.427 81.7966 342.337 81.25 342.11C81.8068 341.91 82.404 341.848 82.99 341.93C83.5793 341.874 84.1734 341.963 84.72 342.19Z" fill="#263238"/>
<path d="M81.7188 354.48C81.0787 354.454 80.4529 354.283 79.8888 353.98C79.2714 353.804 78.7009 353.494 78.2188 353.07C78.8588 353.096 79.4846 353.267 80.0488 353.57C80.6661 353.746 81.2366 354.056 81.7188 354.48Z" fill="#263238"/>
<path d="M81.4023 364.87C81.4023 364.99 80.7323 365.24 79.8423 365.42C78.9523 365.6 78.2223 365.67 78.1923 365.55C78.1623 365.43 78.8723 365.18 79.7523 365C80.2831 364.821 80.8501 364.776 81.4023 364.87Z" fill="#263238"/>
<path d="M80.0189 381.83C80.0189 381.95 79.2989 382.18 78.3589 382.35C77.7973 382.517 77.2035 382.545 76.6289 382.43C77.1333 382.129 77.7027 381.954 78.2889 381.92C78.8491 381.747 79.4437 381.716 80.0189 381.83Z" fill="#263238"/>
<path d="M79.0215 391.19C79.0815 391.29 78.4615 391.73 77.6415 392.19C76.8215 392.65 76.1115 392.89 76.0615 392.78C76.0115 392.67 76.6215 392.24 77.4415 391.78C78.2615 391.32 79.0215 391.08 79.0215 391.19Z" fill="#263238"/>
<path d="M86.6919 401.81C86.5919 401.87 86.0519 401.13 85.4919 400.15C85.0868 399.589 84.8072 398.948 84.6719 398.27C84.7719 398.21 85.3119 398.95 85.8719 399.93C86.2769 400.491 86.5566 401.132 86.6919 401.81Z" fill="#263238"/>
<path d="M88.9012 384.16C88.9812 384.24 88.3812 384.97 87.5612 385.78C86.7412 386.59 86.0012 387.17 85.9112 387.08C85.8212 386.99 86.4312 386.27 87.2512 385.46C88.0712 384.65 88.8112 384.07 88.9012 384.16Z" fill="#263238"/>
<path d="M88.4124 374.89C88.3224 374.98 87.7724 374.52 87.1724 373.89C86.5724 373.26 86.1724 372.65 86.2524 372.57C86.3324 372.49 86.8924 372.94 87.4924 373.57C88.0924 374.2 88.5024 374.81 88.4124 374.89Z" fill="#263238"/>
<path d="M89.9298 363.06C90.0198 363.14 89.5198 363.85 88.8098 364.63C88.0998 365.41 87.4599 366 87.3699 365.92C87.2799 365.84 87.7799 365.13 88.4799 364.34C89.1799 363.55 89.8398 362.98 89.9298 363.06Z" fill="#263238"/>
<path d="M90.7826 354.48C90.6926 354.57 90.0026 354.02 89.2226 353.26C88.4426 352.5 87.8926 351.81 87.9726 351.72C88.0526 351.63 88.7526 352.18 89.5326 352.95C90.3126 353.72 90.8626 354.39 90.7826 354.48Z" fill="#263238"/>
<path d="M92.4613 342.86C92.329 343.491 92.0592 344.085 91.6713 344.6C91.1413 345.5 90.6213 346.18 90.5213 346.12C90.4213 346.06 90.7613 345.28 91.3013 344.38C91.8413 343.48 92.3513 342.8 92.4613 342.86Z" fill="#263238"/>
<path d="M95.6098 332.1C95.7198 332.16 95.4098 332.94 94.9198 333.84C94.4298 334.74 93.9198 335.43 93.8398 335.38C93.935 334.755 94.1709 334.16 94.5298 333.64C95.0198 332.73 95.4998 332.05 95.6098 332.1Z" fill="#263238"/>
<path d="M99.1921 336.99C99.2421 337.1 98.7521 337.44 98.0921 337.76C97.4321 338.08 96.8621 338.24 96.8121 338.13C96.7621 338.02 97.2521 337.68 97.9121 337.36C98.5721 337.04 99.1421 336.88 99.1921 336.99Z" fill="#263238"/>
<path d="M99.2708 375.63C97.6097 375.509 96.0366 374.837 94.8008 373.72C95.5794 373.956 96.333 374.267 97.0508 374.65C97.8223 374.9 98.5662 375.228 99.2708 375.63Z" fill="#263238"/>
<path d="M97.8097 383.81C97.8097 383.93 97.0997 384.17 96.1597 384.35C95.601 384.529 95.0066 384.567 94.4297 384.46C94.9299 384.153 95.495 383.968 96.0797 383.92C97.0197 383.74 97.7897 383.69 97.8097 383.81Z" fill="#263238"/>
<path d="M96.0222 397.84C95.9522 397.94 95.0222 397.29 94.1622 396.21C93.5895 395.593 93.1864 394.839 92.9922 394.02C93.551 394.614 94.0563 395.257 94.5022 395.94C95.0661 396.525 95.575 397.161 96.0222 397.84Z" fill="#263238"/>
<path d="M76.3287 404.26C76.2487 404.17 76.7487 403.61 77.4387 403.02C78.1287 402.43 78.7587 402.02 78.8387 402.12C78.9187 402.22 78.4187 402.76 77.7287 403.36C77.0387 403.96 76.4087 404.35 76.3287 404.26Z" fill="#263238"/>
<path d="M70.6693 373.64C69.8693 371.15 68.3793 368.25 65.7693 368.21C64.9917 368.252 64.2396 368.503 63.5921 368.936C62.9447 369.368 62.4256 369.968 62.0893 370.67C61.371 372.058 61.0264 373.609 61.0893 375.17C61.4116 386.254 63.3004 397.236 66.6993 407.79H76.2693C76.1534 396.188 74.265 384.672 70.6693 373.64Z" fill="#455A64"/>
<path d="M53.3807 357.97C52.9073 355.638 51.6643 353.532 49.8509 351.99C48.0375 350.449 45.7589 349.561 43.3807 349.47C39.1507 350.21 37.5107 354.37 37.0107 358.63C36.5107 362.89 37.8307 367.13 39.1407 371.22C43.3274 384.34 47.5207 397.463 51.7207 410.59L63.6207 409.29C59.9007 391.71 57.7407 375.41 53.3807 357.97Z" fill="#455A64"/>
<path d="M65.7716 368.21C65.4623 368.635 65.1913 369.087 64.9616 369.56C64.4683 370.912 64.3138 372.364 64.5116 373.79C64.6916 375.61 64.9016 377.79 65.2116 380.19C65.5216 382.59 65.9516 385.19 66.4916 387.97C67.5716 393.47 68.7916 398.39 69.5616 401.97C69.9516 403.76 70.2516 405.22 70.4316 406.23C70.5116 406.7 70.5816 407.08 70.6316 407.4C70.6816 407.72 70.6916 407.81 70.6316 407.81C70.5796 407.684 70.5395 407.553 70.5116 407.42L70.2316 406.27C69.9716 405.2 69.6316 403.77 69.2316 402.04C68.3816 398.46 67.1116 393.55 66.0316 388.04C65.4916 385.28 65.0316 382.64 64.7816 380.22C64.6216 379.02 64.5216 377.86 64.4216 376.79C64.3216 375.72 64.2216 374.71 64.1716 373.79C64.0006 372.322 64.2072 370.835 64.7716 369.47C65.0096 368.982 65.3508 368.553 65.7716 368.21Z" fill="#263238"/>
<path d="M43.6003 349.13C43.07 349.734 42.5885 350.38 42.1603 351.06C41.065 352.961 40.4442 355.098 40.3503 357.29C40.3005 360.54 40.7974 363.775 41.8203 366.86C42.8203 370.4 44.0103 374.29 45.2203 378.36C47.5903 386.52 49.7303 393.9 51.3003 399.29L53.1003 405.65C53.3003 406.37 53.4503 406.94 53.5703 407.38C53.6356 407.578 53.6792 407.783 53.7003 407.99C53.6085 407.804 53.5349 407.61 53.4803 407.41C53.3503 406.97 53.1603 406.41 52.9403 405.69C52.4703 404.16 51.8103 402.01 51.0103 399.38L44.8003 378.48C43.6003 374.39 42.4703 370.48 41.4303 366.96C40.4116 363.831 39.9413 360.549 40.0403 357.26C40.1691 355.026 40.8568 352.86 42.0403 350.96C42.4557 350.268 42.9828 349.65 43.6003 349.13Z" fill="#263238"/>
<path d="M61.0716 408.02C60.9709 407.835 60.8807 407.645 60.8016 407.45C60.6516 407.06 60.4016 406.51 60.1316 405.77C59.5616 404.31 58.8316 402.16 58.1316 399.46C57.4316 396.76 56.6316 393.46 55.9116 389.86C55.1916 386.26 54.4716 382.23 53.6716 378.03C52.8716 373.83 51.9316 369.88 50.8616 366.35C49.9333 363.212 48.7734 360.147 47.3916 357.18C46.4521 355.184 45.3797 353.253 44.1816 351.4C43.7716 350.74 43.4016 350.25 43.1816 349.91C43.0563 349.74 42.9459 349.559 42.8516 349.37C42.9982 349.518 43.132 349.679 43.2516 349.85C43.5016 350.19 43.8916 350.65 44.3216 351.31C45.5863 353.133 46.7064 355.052 47.6716 357.05C49.106 360.009 50.2998 363.079 51.2416 366.23C52.371 370.086 53.2989 373.998 54.0216 377.95C54.8116 382.14 55.5516 386.14 56.2316 389.79C56.9116 393.44 57.6316 396.67 58.3516 399.38C59.0716 402.09 59.7416 404.24 60.2616 405.71C60.5016 406.46 60.7316 407.02 60.8616 407.41C60.9543 407.605 61.0247 407.809 61.0716 408.02Z" fill="#263238"/>
<path d="M39.4006 369.26C39.4006 369.37 38.7806 369.63 37.9506 369.83C37.1206 370.03 36.4306 370.1 36.4106 369.98C36.3906 369.86 37.0206 369.61 37.8506 369.41C38.6806 369.21 39.3706 369.14 39.4006 369.26Z" fill="#263238"/>
<path d="M38.1406 361.14C37.4906 361.323 36.8149 361.397 36.1406 361.36C35.4754 361.454 34.799 361.434 34.1406 361.3C34.7634 361.003 35.4523 360.872 36.1406 360.92C36.8151 360.822 37.5036 360.897 38.1406 361.14Z" fill="#263238"/>
<path d="M39.4791 353.72C39.3991 353.82 38.7491 353.4 38.0391 352.79C37.3291 352.18 36.7991 351.61 36.8791 351.52C36.9591 351.43 37.5991 351.84 38.3191 352.45C39.0391 353.06 39.5591 353.63 39.4791 353.72Z" fill="#263238"/>
<path d="M43.11 346.86C43.23 346.86 43.19 347.47 43.18 348.16C43.17 348.85 43.18 349.44 43.03 349.46C42.88 349.48 42.72 348.9 42.74 348.15C42.76 347.4 43.02 346.83 43.11 346.86Z" fill="#263238"/>
<path d="M50.5223 350.09C50.6223 350.16 50.3323 350.75 49.8723 351.4C49.4123 352.05 48.9623 352.53 48.8723 352.46C48.7823 352.39 49.0623 351.81 49.5123 351.15C49.9623 350.49 50.4223 350.02 50.5223 350.09Z" fill="#263238"/>
<path d="M55.3298 358.48C55.3298 358.6 54.7598 358.95 53.9598 359.28C53.1598 359.61 52.4598 359.78 52.4198 359.67C52.3798 359.56 52.9898 359.2 53.7898 358.88C54.5898 358.56 55.2898 358.34 55.3298 358.48Z" fill="#263238"/>
<path d="M58.2525 367.05C57.7233 367.509 57.0683 367.798 56.3725 367.88C55.7059 368.096 54.9922 368.12 54.3125 367.95C54.9541 367.696 55.6266 367.527 56.3125 367.45C56.9405 367.238 57.592 367.104 58.2525 367.05Z" fill="#263238"/>
<path d="M44.8523 364.61C44.7423 364.61 44.8523 363.98 45.0423 363.28C45.2323 362.58 45.5323 362.05 45.6423 362.09C45.7523 362.13 45.6423 362.72 45.4523 363.42C45.2623 364.12 45.0223 364.65 44.8523 364.61Z" fill="#263238"/>
<path d="M46.7188 375.41C46.7592 374.78 46.944 374.167 47.2588 373.62C47.6688 372.68 48.0888 371.96 48.1988 372.01C48.1583 372.64 47.9735 373.253 47.6588 373.8C47.2488 374.74 46.8287 375.48 46.7188 375.41Z" fill="#263238"/>
<path d="M42.1004 378.37C41.5111 378.356 40.9303 378.227 40.3904 377.99C39.4804 377.7 38.7404 377.44 38.7704 377.32C39.3656 377.244 39.9704 377.33 40.5204 377.57C41.4504 377.86 42.1504 378.26 42.1004 378.37Z" fill="#263238"/>
<path d="M44.7591 387.17C44.8291 387.27 44.3191 387.75 43.6291 388.25C42.9391 388.75 42.2991 389.07 42.2291 388.98C42.1591 388.89 42.6691 388.39 43.3691 387.89C44.0691 387.39 44.6891 387.07 44.7591 387.17Z" fill="#263238"/>
<path d="M46.9015 395.95C46.9015 396.06 46.3015 396.32 45.4915 396.51C44.6815 396.7 44.0115 396.77 43.9815 396.66C43.9515 396.55 44.5815 396.29 45.3915 396.09C46.2015 395.89 46.8715 395.83 46.9015 395.95Z" fill="#263238"/>
<path d="M58.4909 374.39C58.5509 374.49 58.0109 374.92 57.2309 375.21C56.4509 375.5 55.7509 375.54 55.7309 375.43C55.7109 375.32 56.3309 375.09 57.0709 374.8C57.8109 374.51 58.4309 374.28 58.4909 374.39Z" fill="#263238"/>
<path d="M60.1401 388.04C60.0901 388.15 59.4501 387.96 58.7101 387.61C57.9701 387.26 57.4101 386.89 57.4601 386.78C57.5101 386.67 58.1601 386.87 58.9001 387.21C59.6401 387.55 60.2001 387.93 60.1401 388.04Z" fill="#263238"/>
<path d="M63.069 397.82C62.4067 397.787 61.759 397.613 61.169 397.31C60.169 396.92 59.399 396.51 59.439 396.39C60.098 396.424 60.7423 396.598 61.329 396.9C62.329 397.29 63.109 397.7 63.069 397.82Z" fill="#263238"/>
<path d="M47.3704 405.48C47.3104 405.37 48.0904 404.85 48.9904 404.14C49.8904 403.43 50.5904 402.79 50.6804 402.88C50.7704 402.97 50.2004 403.74 49.2604 404.48C48.7375 404.985 48.0822 405.332 47.3704 405.48Z" fill="#263238"/>
<path d="M55.0901 400.48C54.9701 400.48 54.8001 399.84 54.5001 399.08C54.2001 398.32 53.9001 397.71 54.0001 397.64C54.1001 397.57 54.6001 398.09 54.9101 398.92C55.2201 399.75 55.2101 400.48 55.0901 400.48Z" fill="#263238"/>
<path d="M53.0196 388.75C52.9496 388.85 52.4496 388.61 51.8996 388.22C51.3496 387.83 50.9696 387.43 51.0396 387.33C51.1096 387.23 51.6096 387.47 52.1596 387.86C52.7096 388.25 53.1196 388.65 53.0196 388.75Z" fill="#263238"/>
<path d="M71.0188 370.33C71.0888 370.43 70.5988 370.91 69.9288 371.4C69.2588 371.89 68.6588 372.22 68.5888 372.12C68.5188 372.02 68.9988 371.55 69.6688 371.05C70.3388 370.55 71.0188 370.23 71.0188 370.33Z" fill="#263238"/>
<path d="M73.7719 377.75C73.7719 377.87 73.0218 378.03 72.0818 377.93C71.1418 377.83 70.4319 377.51 70.4619 377.4C70.4919 377.29 71.2319 377.4 72.1319 377.49C73.0319 377.58 73.7619 377.63 73.7719 377.75Z" fill="#263238"/>
<path d="M62.099 379.42C62.099 379.53 61.429 379.78 60.509 379.84C59.589 379.9 58.869 379.75 58.879 379.63C58.889 379.51 59.609 379.47 60.489 379.41C61.369 379.35 62.079 379.3 62.099 379.42Z" fill="#263238"/>
<path d="M63.1123 372.4C63.1123 372.52 62.3923 372.54 61.6123 372.17C60.8323 371.8 60.3823 371.27 60.4623 371.17C60.5423 371.07 61.0823 371.45 61.7923 371.77C62.5023 372.09 63.1223 372.28 63.1123 372.4Z" fill="#263238"/>
<path d="M74.7715 385.72C74.7115 385.82 73.9815 385.48 73.1415 384.95C72.3015 384.42 71.6815 383.95 71.7515 383.81C71.8215 383.67 72.5415 384.06 73.3815 384.58C74.2215 385.1 74.8415 385.62 74.7715 385.72Z" fill="#263238"/>
<path d="M103.242 406.55H40.9922V417.58H103.242V406.55Z" fill="#FF725E"/>
<path d="M45.6406 415.39L53.2106 448.36H90.3106L98.6006 415.39H45.6406Z" fill="#FF725E"/>
<path d="M103.212 417.59C103.212 417.71 89.2122 417.81 71.8522 417.81C54.4922 417.81 40.4922 417.71 40.4922 417.59C40.4922 417.47 54.4922 417.37 71.8522 417.37C89.2122 417.37 103.212 417.48 103.212 417.59Z" fill="#263238"/>
<path d="M68.5905 379.66C68.4905 379.72 68.0605 379.23 67.6405 378.55C67.2205 377.87 66.9605 377.27 67.0605 377.21C67.1605 377.15 67.5905 377.64 68.0105 378.32C68.4305 379 68.6905 379.59 68.5905 379.66Z" fill="#263238"/>
<path d="M68.6102 388.53C68.5802 387.955 68.6936 387.381 68.9402 386.86C69.2302 385.97 69.5702 385.28 69.6802 385.32C69.711 385.899 69.5976 386.476 69.3502 387C69.0202 387.88 68.7302 388.57 68.6102 388.53Z" fill="#263238"/>
<path d="M71.6517 397.85C71.5417 397.91 71.0817 397.16 70.6517 396.19C70.3067 395.627 70.0883 394.996 70.0117 394.34C70.1217 394.28 70.5817 395.03 71.0117 396C71.3568 396.563 71.5751 397.194 71.6517 397.85Z" fill="#263238"/>
<path d="M65.0799 405.35C64.9899 405.27 65.3599 404.7 65.9099 404.06C66.4599 403.42 66.9699 402.98 67.0699 403.06C67.1699 403.14 66.7899 403.72 66.2399 404.35C65.6899 404.98 65.1699 405.48 65.0799 405.35Z" fill="#263238"/>
<path d="M63.7021 391.74C63.7021 391.86 63.0821 391.85 62.3621 391.74C61.6421 391.63 61.0821 391.42 61.1021 391.3C61.1221 391.18 61.7221 391.19 62.4321 391.3C63.1421 391.41 63.7221 391.62 63.7021 391.74Z" fill="#263238"/>
<path d="M280.268 330.72H132.648V448.44H280.268V330.72Z" fill="#E0E0E0"/>
<g opacity="0.3">
<path opacity="0.3" d="M143.398 330.96C160.778 337.16 179.948 338.49 198.598 338.84C202.468 338.91 206.378 338.9 210.118 339.84C213.858 340.78 217.468 342.91 219.388 346.26C221.478 349.91 221.258 354.48 220.068 358.51C218.878 362.54 216.828 366.27 215.348 370.2C212.728 377.153 211.926 384.66 213.018 392.01C213.355 395.141 214.409 398.152 216.098 400.81C216.954 402.13 218.107 403.232 219.465 404.027C220.823 404.823 222.348 405.289 223.918 405.39C229.528 405.47 233.368 399.96 236.148 395.08C247.558 375.08 259.898 352.38 267.198 330.55L143.398 330.96Z" fill="black"/>
</g>
<path d="M182.951 447.81C182.801 447.81 182.691 421.72 182.691 389.54C182.691 357.36 182.801 331.26 182.951 331.26C183.101 331.26 183.211 357.35 183.211 389.54C183.211 421.73 183.091 447.81 182.951 447.81Z" fill="#455A64"/>
<path d="M243.441 243.72C243.001 240.78 234.221 231.08 234.221 231.08C234.221 231.08 229.841 213.47 228.521 208.28C228.082 206.78 227.439 205.346 226.611 204.02C223.506 198.848 219.091 194.588 213.811 191.67L201.661 184.84L198.761 178.38L169.581 163.38L161.671 177.38C161.671 177.38 142.461 183.48 139.921 187.81C137.381 192.14 141.181 250.61 141.181 250.61C141.181 250.61 133.181 284.33 131.451 291.31C129.721 298.29 131.991 306.61 131.991 306.61L146.301 288.66C150.751 283.08 160.511 280.51 167.521 280.61L227.431 280.88L225.021 264.1L273.491 273.48C273.491 273.48 281.821 257.22 282.491 256.9C283.161 256.58 243.441 243.72 243.441 243.72Z" fill="#FF725E"/>
<path d="M168.34 182.83C167.92 182.4 171.72 195.25 176.5 208.34C179.072 215.414 180.382 222.884 180.37 230.41V277.81L209.09 275.86L204.8 244.64C204.8 244.64 201.3 224.5 200.32 216.84C199.42 209.84 196.32 190.84 196.32 190.84C196.32 190.84 180.37 195.08 168.34 182.83Z" fill="white"/>
<path d="M232.08 255.48C232.036 255.239 232.036 254.991 232.08 254.75C232.146 254.096 232.274 253.45 232.46 252.82C233.067 250.717 234.196 248.801 235.74 247.25C237.294 245.704 239.208 244.569 241.31 243.95C241.94 243.763 242.587 243.636 243.24 243.57C243.478 243.525 243.723 243.525 243.96 243.57C243.96 243.66 242.96 243.77 241.42 244.3C239.422 244.986 237.607 246.12 236.114 247.616C234.622 249.112 233.492 250.93 232.81 252.93C232.28 254.48 232.17 255.48 232.08 255.48Z" fill="#263238"/>
<path d="M233.559 244.12C234.893 243.337 236.402 242.9 237.949 242.85C239.48 242.638 241.04 242.824 242.479 243.39C242.479 243.55 240.479 243.16 237.989 243.39C235.499 243.62 233.619 244.27 233.559 244.12Z" fill="#263238"/>
<g opacity="0.3">
<path opacity="0.3" d="M138.289 269.99L135.789 272.81C138.396 276.028 141.929 278.367 145.909 279.51C149.921 280.361 154.02 280.731 158.119 280.61C159.78 280.69 161.443 280.532 163.059 280.14C164.689 279.67 166.199 278.75 167.889 278.65C169.022 278.655 170.15 278.817 171.239 279.13C172.335 279.441 173.494 279.458 174.599 279.18C175.146 279.032 175.631 278.712 175.982 278.267C176.333 277.823 176.532 277.277 176.549 276.71C164.082 273.067 151.251 270.813 138.289 269.99Z" fill="black"/>
</g>
<path d="M220.288 273.61L213.288 266.13L198.738 262.48C198.738 262.48 185.458 266.48 185.138 266.48C184.818 266.48 173.578 263.4 173.578 263.4L169.648 277.82L189.898 279.21L213.018 278.28C213.018 278.28 214.228 277.16 213.508 276.39C212.788 275.62 217.378 277.69 217.918 277.71C218.458 277.73 219.498 278.15 220.218 277.29C220.708 276.65 221.368 274.76 220.288 273.61Z" fill="#FFBE9D"/>
<path d="M213.508 276.34C212.723 276.192 211.953 275.971 211.208 275.68C209.808 275.24 207.858 274.68 205.688 274.08C203.518 273.48 201.518 273.08 200.068 272.83C199.275 272.726 198.494 272.542 197.738 272.28C198.539 272.245 199.342 272.305 200.128 272.46C202.041 272.727 203.937 273.101 205.808 273.58C207.682 274.055 209.525 274.643 211.328 275.34C212.095 275.579 212.827 275.915 213.508 276.34Z" fill="#EB996E"/>
<path d="M220.29 273.61C219.2 273.334 218.125 273.001 217.07 272.61C215.07 271.95 212.34 271.13 209.27 270.28C206.2 269.43 203.48 268.46 201.41 268.34C200.295 268.283 199.177 268.326 198.07 268.47C198.341 268.321 198.635 268.22 198.94 268.17C199.758 267.993 200.595 267.926 201.43 267.97C203.57 267.97 206.43 268.88 209.43 269.78C212.43 270.68 215.25 271.51 217.21 272.27C218.21 272.64 218.96 272.98 219.5 273.22C219.781 273.31 220.048 273.442 220.29 273.61Z" fill="#EB996E"/>
<path d="M139.92 187.81C139.92 187.81 129.47 195.08 126.92 205.54C124.37 216 113.36 258.75 115.62 265.14C117.88 271.53 161.82 277.81 161.82 277.81L167.03 255.81L144.71 249.7C144.71 249.7 145 229.35 145.28 220.92C145.56 212.49 139.92 187.81 139.92 187.81Z" fill="#FF725E"/>
<path d="M166.751 259.12L173.941 260.89L169.621 277.48L162.551 276.34L166.751 259.12Z" fill="white"/>
<path d="M115.461 262.88C115.461 262.88 115.461 263.25 115.571 263.88C115.815 264.847 116.349 265.716 117.101 266.37C119.011 268.15 122.661 269.63 127.281 270.46C129.391 271.16 131.801 271.71 134.371 272.29C136.941 272.87 139.721 273.46 142.641 274.05C148.491 275.25 154.961 276.51 161.821 277.79L161.521 277.98C162.011 275.98 162.521 273.79 163.071 271.6C164.301 266.6 165.501 261.68 166.631 257.05L166.811 257.35L147.021 251.74C144.289 250.59 141.332 250.07 138.371 250.22C136.121 250.345 133.911 250.867 131.841 251.76C130.526 252.329 129.27 253.026 128.091 253.84L127.181 254.5C127.082 254.58 126.975 254.651 126.861 254.71C126.861 254.71 126.951 254.61 127.141 254.45C127.331 254.29 127.621 254.04 128.021 253.74C129.183 252.879 130.433 252.145 131.751 251.55C133.834 250.606 136.07 250.047 138.351 249.9C141.364 249.708 144.381 250.207 147.171 251.36L167.021 256.92L167.261 256.98L167.201 257.22C166.071 261.85 164.881 266.73 163.661 271.78C163.121 273.96 162.601 276.12 162.101 278.15L162.041 278.39H161.801C154.941 277.1 148.481 275.82 142.631 274.6C139.711 273.99 136.941 273.38 134.361 272.78C131.781 272.18 129.361 271.61 127.241 270.88C122.561 269.99 118.911 268.45 116.981 266.58C116.216 265.892 115.691 264.978 115.481 263.97C115.409 263.611 115.403 263.242 115.461 262.88Z" fill="#263238"/>
<path d="M145.93 251.19C145.87 251.26 145.12 250.57 143.78 249.68C140.27 247.33 136.122 246.118 131.9 246.21C130.28 246.21 129.29 246.43 129.27 246.34C130.107 246.037 130.989 245.871 131.88 245.85C136.218 245.535 140.526 246.788 144.02 249.38C144.752 249.874 145.397 250.485 145.93 251.19Z" fill="#263238"/>
<path d="M148.862 215.39C148.899 215.836 148.899 216.284 148.862 216.73C148.862 217.6 148.772 218.84 148.652 220.38C148.402 223.45 147.952 227.68 147.142 232.32C146.509 236.29 145.583 240.207 144.372 244.04C144.132 244.77 143.872 245.43 143.662 246.04L143.022 247.48C142.835 247.89 142.603 248.279 142.332 248.64C142.457 248.211 142.625 247.796 142.832 247.4C143.002 246.97 143.182 246.48 143.392 245.94C143.602 245.4 143.802 244.7 144.022 243.94C145.115 240.093 145.986 236.187 146.632 232.24C147.432 227.62 147.942 223.41 148.282 220.35C148.432 218.9 148.562 217.69 148.662 216.73C148.675 216.277 148.742 215.827 148.862 215.39Z" fill="#263238"/>
<path d="M174.339 204.06C174.339 204.06 174.239 203.79 173.999 203.32C173.644 202.654 173.124 202.089 172.489 201.68C172.02 201.358 171.483 201.147 170.92 201.064C170.357 200.981 169.782 201.027 169.239 201.2C168.552 201.435 167.937 201.846 167.457 202.391C166.976 202.937 166.646 203.598 166.499 204.31L166.359 205.02L166.049 204.36C164.88 201.85 163.861 199.272 162.999 196.64C161.471 192.256 160.707 187.642 160.739 183C160.739 182.11 160.859 181.31 160.909 180.6C160.959 179.89 161.119 179.3 161.229 178.82C161.335 178.315 161.482 177.82 161.669 177.34C161.328 179.208 161.138 181.101 161.099 183C161.182 187.591 161.988 192.14 163.489 196.48C164.352 199.092 165.353 201.655 166.489 204.16L166.039 204.22C166.212 203.434 166.588 202.706 167.13 202.111C167.673 201.516 168.362 201.074 169.129 200.83C169.725 200.65 170.354 200.612 170.966 200.718C171.579 200.824 172.159 201.071 172.659 201.44C173.309 201.897 173.821 202.523 174.139 203.25C174.227 203.442 174.29 203.643 174.329 203.85C174.349 203.98 174.359 204.06 174.339 204.06Z" fill="#263238"/>
<path d="M198.722 206.31C198.614 205.92 198.538 205.522 198.492 205.12C198.273 204.018 198.202 202.891 198.282 201.77C198.507 200.045 199.366 198.466 200.692 197.34C201.512 196.665 202.54 196.294 203.602 196.29C204.18 196.283 204.754 196.402 205.282 196.639C205.81 196.875 206.281 197.224 206.662 197.66L206.222 197.92L205.272 195.53C203.402 190.82 201.742 186.53 200.562 183.44L199.192 179.75C199.001 179.309 198.857 178.85 198.762 178.38C199.008 178.793 199.215 179.229 199.382 179.68C199.782 180.68 200.292 181.85 200.912 183.31C202.182 186.38 203.912 190.63 205.762 195.31L206.702 197.71L207.312 199.25L206.312 197.96C205.981 197.577 205.571 197.271 205.11 197.064C204.648 196.856 204.147 196.753 203.642 196.76C202.69 196.754 201.765 197.075 201.022 197.67C199.772 198.715 198.938 200.173 198.672 201.78C198.564 202.875 198.584 203.979 198.732 205.07C198.779 205.482 198.776 205.899 198.722 206.31Z" fill="#263238"/>
<path d="M217.269 208.79C217.409 208.79 219.669 223.97 222.319 242.74C224.969 261.51 226.989 276.74 226.849 276.74C226.709 276.74 224.449 261.56 221.799 242.74C219.149 223.92 217.129 208.81 217.269 208.79Z" fill="#263238"/>
<g opacity="0.3">
<path opacity="0.3" d="M163.301 196.8C163.422 200.689 164.267 204.52 165.791 208.1C166.881 206.75 168.091 205.33 169.791 204.93C171.851 204.44 173.941 205.71 175.431 207.27C175.173 205.71 174.557 204.232 173.631 202.95C173.169 202.32 172.567 201.806 171.873 201.446C171.179 201.087 170.412 200.893 169.631 200.88C168.852 200.898 168.102 201.176 167.499 201.668C166.896 202.161 166.474 202.841 166.301 203.6L163.431 196.87" fill="black"/>
</g>
<path d="M146.411 207.79C146.321 207.79 146.351 206.74 146.051 205.11C145.64 202.986 144.814 200.964 143.621 199.16C142.949 198.183 142.182 197.275 141.331 196.45C140.626 195.782 139.859 195.183 139.041 194.66C137.631 193.77 136.641 193.43 136.681 193.34C136.926 193.358 137.167 193.419 137.391 193.52C137.671 193.595 137.942 193.699 138.201 193.83C138.546 193.979 138.881 194.152 139.201 194.35C140.071 194.842 140.885 195.425 141.631 196.09C142.528 196.926 143.329 197.858 144.021 198.87C145.26 200.727 146.067 202.839 146.381 205.05C146.48 205.712 146.514 206.382 146.481 207.05C146.481 207.53 146.451 207.79 146.411 207.79Z" fill="#263238"/>
<path d="M204.46 136.48C203.889 131.125 201.323 126.182 197.272 122.633C193.221 119.085 187.983 117.192 182.6 117.33H181.49C169.54 118.33 163.72 129.04 165.06 140.95L168.34 182.85L169.73 184.55C172.851 188.384 177.152 191.077 181.963 192.212C186.774 193.346 191.826 192.856 196.33 190.82L195.41 177.34C195.41 177.34 206.87 175.26 206.71 163.76C206.64 158.18 205.56 146.76 204.46 136.48Z" fill="#FFBE9D"/>
<path d="M195.502 177.31C190.166 177.458 184.901 176.07 180.332 173.31C180.332 173.31 184.082 181.5 195.532 180.17L195.502 177.31Z" fill="#EB996E"/>
<path d="M200.822 145.94C200.833 146.367 200.679 146.782 200.393 147.099C200.106 147.415 199.708 147.609 199.282 147.64C199.073 147.661 198.863 147.64 198.663 147.578C198.462 147.517 198.276 147.416 198.115 147.282C197.954 147.148 197.822 146.983 197.725 146.798C197.628 146.612 197.569 146.409 197.552 146.2C197.538 145.772 197.691 145.356 197.978 145.039C198.265 144.721 198.665 144.528 199.092 144.5C199.3 144.478 199.511 144.498 199.712 144.559C199.913 144.62 200.099 144.72 200.261 144.855C200.422 144.989 200.555 145.154 200.651 145.341C200.747 145.527 200.805 145.731 200.822 145.94Z" fill="#263238"/>
<path d="M201.549 139.69C201.419 139.89 200.119 140.03 198.549 140.87C196.979 141.71 196.059 142.76 195.849 142.74C195.639 142.72 195.849 142.45 196.239 141.98C196.837 141.317 197.548 140.765 198.339 140.35C199.093 139.928 199.921 139.653 200.779 139.54C201.369 139.48 201.619 139.59 201.549 139.69Z" fill="#263238"/>
<path d="M184.22 146.81C184.239 147.239 184.088 147.658 183.8 147.977C183.511 148.295 183.109 148.487 182.68 148.51C182.471 148.532 182.26 148.512 182.06 148.451C181.859 148.39 181.672 148.29 181.511 148.155C181.35 148.021 181.217 147.856 181.121 147.669C181.024 147.483 180.966 147.279 180.95 147.07C180.936 146.642 181.089 146.226 181.376 145.909C181.664 145.591 182.063 145.398 182.49 145.37C182.699 145.348 182.91 145.368 183.111 145.429C183.311 145.49 183.498 145.59 183.659 145.725C183.82 145.859 183.953 146.024 184.05 146.211C184.146 146.397 184.204 146.601 184.22 146.81Z" fill="#263238"/>
<path d="M184.019 142.1C183.789 142.1 182.719 141.43 181.019 141.01C179.319 140.59 177.909 140.68 177.759 140.54C177.609 140.4 177.939 140.34 178.549 140.29C179.44 140.233 180.334 140.318 181.199 140.54C182.036 140.739 182.834 141.077 183.559 141.54C183.959 141.86 184.079 142.08 184.019 142.1Z" fill="#263238"/>
<path d="M190.902 155.83C191.828 155.521 192.789 155.323 193.762 155.24C194.212 155.24 194.632 155.08 194.702 154.77C194.73 154.307 194.615 153.846 194.372 153.45L192.942 150.04C190.942 145.2 189.522 141.21 189.722 141.14C189.922 141.07 191.722 144.92 193.652 149.76C194.132 150.96 194.592 152.1 195.022 153.19C195.317 153.726 195.416 154.349 195.302 154.95C195.24 155.111 195.142 155.256 195.015 155.374C194.889 155.492 194.737 155.579 194.572 155.63C194.326 155.707 194.07 155.751 193.812 155.76C192.849 155.908 191.871 155.932 190.902 155.83Z" fill="#263238"/>
<path d="M184.021 135.28C183.821 135.75 182.071 135.44 180.021 135.58C177.971 135.72 176.231 136.22 176.021 135.77C175.901 135.56 176.221 135.12 176.911 134.69C177.839 134.162 178.876 133.853 179.942 133.787C181.008 133.721 182.075 133.9 183.061 134.31C183.721 134.66 184.081 135.05 184.021 135.28Z" fill="#263238"/>
<path d="M201.512 135.67C201.122 136.08 199.602 135.67 197.782 135.67C195.962 135.67 194.412 135.98 194.052 135.56C193.892 135.36 194.132 134.95 194.802 134.56C195.726 134.076 196.759 133.838 197.802 133.87C198.853 133.863 199.887 134.132 200.802 134.65C201.462 135.06 201.682 135.48 201.512 135.67Z" fill="#263238"/>
<path d="M207.809 126.26C207.707 125.735 207.418 125.265 206.994 124.939C206.57 124.613 206.042 124.453 205.509 124.49C206.083 124.326 206.62 124.051 207.089 123.68C207.322 123.492 207.497 123.242 207.594 122.959C207.692 122.676 207.707 122.371 207.639 122.08C207.339 121.19 206.199 121 205.299 120.75C204.117 120.407 203.07 119.708 202.299 118.75C201.209 117.37 200.789 115.57 199.839 114.08C199.225 113.118 198.404 112.306 197.435 111.704C196.466 111.101 195.374 110.724 194.24 110.599C193.106 110.474 191.958 110.605 190.882 110.983C189.805 111.36 188.827 111.974 188.019 112.78C187.136 111.873 186.05 111.19 184.851 110.787C183.651 110.384 182.373 110.274 181.122 110.464C179.871 110.655 178.684 111.142 177.659 111.883C176.634 112.625 175.801 113.601 175.229 114.73C173.695 114.09 172.017 113.875 170.371 114.106C168.725 114.337 167.172 115.007 165.873 116.044C164.575 117.082 163.579 118.45 162.991 120.004C162.403 121.559 162.243 123.243 162.529 124.88L169.689 129.27C169.747 128.725 169.92 128.199 170.196 127.727C170.473 127.254 170.846 126.845 171.293 126.528C171.739 126.21 172.247 125.991 172.784 125.884C173.322 125.778 173.875 125.787 174.409 125.91C176.569 126.54 177.949 129.04 180.189 129.21C181.939 129.34 183.429 127.99 185.119 127.54C187.169 126.99 189.339 127.81 191.189 128.85C193.039 129.89 194.809 131.19 196.869 131.71C199.329 132.203 201.883 131.898 204.159 130.84C205.169 130.486 206.09 129.916 206.859 129.17C207.238 128.796 207.521 128.336 207.687 127.83C207.852 127.324 207.894 126.786 207.809 126.26Z" fill="#263238"/>
<path d="M170.901 125.89L203.701 125.71C202.517 123.506 200.798 121.635 198.701 120.27C194.345 117.087 189.095 115.362 183.701 115.34C178.351 115.34 167.651 122.21 163.881 126C160.881 129 160.961 131.59 160.961 131.59C160.581 135.85 163.091 140.59 164.161 144.76C164.701 146.9 165.831 153.38 165.831 153.38C167.631 153.33 168.261 151.87 167.941 150.09L167.411 143.09C169.181 141.613 170.42 139.6 170.942 137.355C171.464 135.11 171.238 132.756 170.301 130.65C169.851 130.03 168.771 127.14 170.901 125.89Z" fill="#263238"/>
<path d="M166.939 142.63C165.269 136.83 163.729 130.63 165.509 124.83H164.509L164.109 125.12C163.185 124.809 162.185 124.801 161.255 125.097C160.326 125.393 159.515 125.977 158.94 126.765C158.365 127.553 158.055 128.504 158.057 129.479C158.059 130.455 158.371 131.404 158.949 132.19C157.974 132.181 157.029 132.529 156.293 133.168C155.556 133.807 155.078 134.693 154.949 135.66C154.953 137.007 155.322 138.327 156.019 139.48C156.718 140.636 157.145 141.935 157.269 143.28C157.311 143.95 157.116 144.613 156.717 145.152C156.318 145.692 155.742 146.074 155.089 146.23C155.405 146.912 155.947 147.465 156.623 147.794C157.298 148.124 158.067 148.211 158.799 148.04C158.332 149.18 157.552 150.165 156.549 150.88C158.689 152.34 161.619 151.88 163.939 150.71C165.378 150.131 166.553 149.041 167.239 147.65C167.879 146.04 167.399 144.27 166.939 142.63Z" fill="#263238"/>
<path d="M166.399 149.4C166.199 149.32 158.399 147.27 158.889 155.12C159.379 162.97 167.139 160.9 167.139 160.67C167.139 160.44 166.399 149.4 166.399 149.4Z" fill="#FFBE9D"/>
<path d="M165.259 157.82C165.259 157.82 165.129 157.92 164.899 158.04C164.589 158.194 164.231 158.223 163.899 158.12C163.049 157.86 162.279 156.59 162.159 155.17C162.099 154.492 162.191 153.808 162.429 153.17C162.493 152.918 162.618 152.685 162.792 152.491C162.966 152.298 163.185 152.15 163.429 152.06C163.585 152.012 163.752 152.018 163.903 152.078C164.054 152.138 164.18 152.248 164.259 152.39C164.379 152.6 164.329 152.76 164.379 152.78C164.429 152.8 164.539 152.63 164.459 152.31C164.395 152.123 164.277 151.96 164.119 151.84C164.009 151.763 163.883 151.709 163.751 151.681C163.618 151.654 163.482 151.653 163.349 151.68C163.031 151.764 162.739 151.927 162.501 152.154C162.263 152.381 162.087 152.666 161.989 152.98C161.701 153.682 161.581 154.443 161.639 155.2C161.789 156.78 162.639 158.2 163.839 158.48C164.052 158.527 164.273 158.526 164.486 158.478C164.698 158.429 164.898 158.334 165.069 158.2C165.259 158.01 165.289 157.83 165.259 157.82Z" fill="#EB996E"/>
<path d="M158.25 142.89C158.25 142.89 158.03 142.59 158.1 141.97C158.183 141.549 158.358 141.152 158.612 140.807C158.866 140.461 159.193 140.175 159.57 139.97C160.696 139.434 161.922 139.137 163.17 139.1C163.868 139.1 164.556 138.935 165.178 138.619C165.8 138.303 166.339 137.844 166.75 137.28C167.403 136.008 167.621 134.557 167.37 133.15C167.18 131.83 166.83 130.64 166.66 129.61C166.343 128.506 166.36 127.334 166.71 126.24C166.717 127.343 166.841 128.443 167.08 129.52C167.3 130.52 167.69 131.69 167.93 133.08C168.232 134.618 167.999 136.213 167.27 137.6C166.836 138.317 166.179 138.872 165.4 139.18C164.702 139.439 163.972 139.6 163.23 139.66C162.047 139.667 160.876 139.898 159.78 140.34C159.436 140.517 159.131 140.76 158.882 141.055C158.634 141.35 158.446 141.692 158.33 142.06C158.285 142.335 158.258 142.612 158.25 142.89Z" fill="#455A64"/>
<path d="M156.349 139.48C156.349 139.48 156.179 139.26 156.109 138.77C156.028 138.079 156.164 137.38 156.499 136.77C156.728 136.337 157.045 135.955 157.429 135.65C157.877 135.313 158.392 135.075 158.939 134.95C159.469 134.836 159.974 134.626 160.429 134.33C160.63 134.15 160.787 133.927 160.889 133.678C160.992 133.428 161.036 133.159 161.019 132.89C161.019 132.3 160.949 131.67 160.969 131.04C160.977 130.438 161.044 129.839 161.169 129.25C161.37 128.255 161.754 127.306 162.299 126.45C162.472 126.136 162.721 125.87 163.023 125.676C163.325 125.482 163.671 125.367 164.029 125.34C164.549 125.34 164.769 125.58 164.749 125.6C164.729 125.62 164.489 125.51 164.049 125.6C163.748 125.664 163.466 125.797 163.225 125.988C162.984 126.178 162.79 126.422 162.659 126.7C162.207 127.539 161.89 128.443 161.719 129.38C161.622 129.935 161.572 130.497 161.569 131.06C161.569 131.64 161.659 132.26 161.629 132.94C161.643 133.296 161.576 133.651 161.432 133.976C161.288 134.302 161.071 134.591 160.799 134.82C160.282 135.166 159.7 135.4 159.089 135.51C158.633 135.588 158.2 135.762 157.817 136.021C157.434 136.279 157.111 136.617 156.869 137.01C156.458 137.765 156.277 138.624 156.349 139.48Z" fill="#455A64"/>
<path d="M202.308 118.75C202.358 118.75 201.718 119.18 200.688 118.7C200.108 118.385 199.601 117.953 199.198 117.43C198.703 116.78 198.084 116.233 197.378 115.82C196.46 115.304 195.411 115.066 194.36 115.135C193.309 115.204 192.301 115.578 191.458 116.21C190.458 116.91 189.628 117.9 188.458 118.72C187.863 119.161 187.182 119.471 186.458 119.63C185.71 119.761 184.939 119.689 184.228 119.42C182.808 118.91 181.688 118.04 180.468 117.6C179.291 117.148 178.039 116.921 176.778 116.93C174.606 116.927 172.495 117.649 170.778 118.98C169.632 119.876 168.679 120.995 167.978 122.27C167.488 123.18 167.308 123.74 167.258 123.72C167.208 123.7 167.258 123.57 167.338 123.3C167.452 122.911 167.592 122.53 167.758 122.16C168.404 120.798 169.343 119.596 170.508 118.64C172.263 117.205 174.452 116.405 176.718 116.37C178.053 116.335 179.381 116.563 180.628 117.04C181.948 117.52 183.088 118.39 184.378 118.84C184.989 119.075 185.653 119.141 186.298 119.03C186.924 118.886 187.513 118.614 188.028 118.23C189.078 117.48 189.958 116.49 191.028 115.75C192.018 115.009 193.222 114.612 194.458 114.62C195.513 114.628 196.547 114.91 197.458 115.44C198.189 115.906 198.823 116.506 199.328 117.21C199.679 117.724 200.131 118.16 200.658 118.49C201.155 118.785 201.745 118.878 202.308 118.75Z" fill="#455A64"/>
<path d="M186.539 157.89C186.789 157.89 187.069 159.51 188.709 160.46C190.349 161.41 192.099 160.93 192.159 161.16C192.219 161.39 191.808 161.56 191.058 161.7C190.078 161.882 189.065 161.712 188.198 161.22C187.368 160.739 186.753 159.959 186.479 159.04C186.299 158.35 186.419 157.9 186.539 157.89Z" fill="#263238"/>
<path d="M290.022 314.14C286.977 311.524 283.027 310.21 279.022 310.48L272.262 331.95C277.212 332.17 282.152 334.72 286.932 333.41C288.841 332.821 290.541 331.699 291.833 330.175C293.125 328.651 293.954 326.79 294.222 324.81C294.43 322.825 294.157 320.819 293.426 318.962C292.695 317.105 291.527 315.451 290.022 314.14Z" fill="#FF725E"/>
<path d="M279.1 309.99C279.1 309.82 279.83 309.68 281.1 309.69C282.99 309.725 284.859 310.08 286.63 310.74C289.336 311.794 291.677 313.611 293.37 315.97C294.405 317.369 295.168 318.95 295.62 320.63C296.11 322.469 296.164 324.396 295.78 326.26C295.408 328.149 294.565 329.913 293.33 331.39C292.147 332.735 290.649 333.766 288.97 334.39C286.242 335.355 283.3 335.545 280.47 334.94C278.649 334.583 276.872 334.03 275.17 333.29C273.98 332.78 273.35 332.4 273.41 332.23C273.47 332.06 274.19 332.11 275.41 332.32C276.63 332.53 278.48 332.92 280.68 333.12C283.175 333.397 285.7 333.053 288.03 332.12C289.308 331.58 290.439 330.743 291.33 329.68C292.265 328.517 292.903 327.144 293.19 325.68C293.465 324.229 293.444 322.737 293.13 321.294C292.815 319.851 292.214 318.486 291.36 317.28C289.982 315.193 288.087 313.498 285.86 312.36C284.282 311.615 282.629 311.039 280.93 310.64C279.78 310.38 279.08 310.17 279.1 309.99Z" fill="#F5F5F5"/>
<path d="M216.47 390.54L201.77 431.73L252.92 450.28C254.4 445.28 231.49 425.88 231.49 425.88L241.99 399.88L216.47 390.54Z" fill="#FF725E"/>
<g opacity="0.6">
<path opacity="0.6" d="M216.479 417.93C215.932 417.901 215.394 418.074 214.968 418.418C214.541 418.761 214.257 419.25 214.169 419.79C214.12 420.334 214.281 420.875 214.62 421.303C214.959 421.731 215.449 422.013 215.989 422.09C216.572 422.121 217.145 421.933 217.597 421.563C218.048 421.193 218.345 420.668 218.429 420.09C218.429 419 217.349 417.75 216.269 417.9" fill="white"/>
</g>
<path d="M201.77 431.73L203.26 427.58L251.84 446.96C251.84 446.96 253.76 448.77 252.92 450.28L201.77 431.73Z" fill="white"/>
<path d="M232.42 425.92C232.32 426.17 231.03 425.83 229.51 426.19C227.99 426.55 226.95 427.36 226.76 427.19C226.57 427.02 227.46 425.7 229.31 425.3C231.16 424.9 232.55 425.71 232.42 425.92Z" fill="#263238"/>
<path d="M237.019 430.09C237.019 430.35 235.749 430.38 234.519 431.09C233.289 431.8 232.639 432.87 232.389 432.77C232.139 432.67 232.499 431.2 234.049 430.29C235.599 429.38 237.019 429.85 237.019 430.09Z" fill="#263238"/>
<path d="M237.688 437.61C237.448 437.61 237.548 436.21 238.688 435.07C239.828 433.93 241.188 433.82 241.218 434.07C241.248 434.32 240.268 434.78 239.348 435.73C238.428 436.68 237.948 437.68 237.688 437.61Z" fill="#263238"/>
<path d="M234.15 419.73C233.96 419.92 232.94 419.16 231.5 418.73C230.06 418.3 228.79 418.36 228.74 418.1C228.69 417.84 230.06 417.33 231.74 417.85C233.42 418.37 234.35 419.58 234.15 419.73Z" fill="#263238"/>
<path d="M235.131 413.22C234.212 413.139 233.332 412.815 232.581 412.28C231.714 411.784 230.914 411.179 230.201 410.48C229.774 410.072 229.376 409.634 229.011 409.17C228.78 408.907 228.591 408.61 228.451 408.29C228.35 408.053 228.332 407.79 228.399 407.541C228.466 407.293 228.615 407.074 228.821 406.92C229.009 406.791 229.224 406.708 229.449 406.677C229.675 406.646 229.905 406.667 230.121 406.74C230.445 406.857 230.751 407.018 231.031 407.22C231.53 407.554 231.999 407.932 232.431 408.35C233.153 409.05 233.761 409.86 234.231 410.75C234.744 411.529 235.006 412.447 234.981 413.38C234.841 413.38 234.541 412.43 233.671 411.08C233.154 410.304 232.543 409.595 231.851 408.97C231.441 408.603 231.003 408.268 230.541 407.97C230.051 407.63 229.591 407.46 229.371 407.65C229.151 407.84 229.261 407.76 229.321 407.96C229.425 408.196 229.563 408.415 229.731 408.61C230.058 409.054 230.416 409.475 230.801 409.87C231.45 410.554 232.163 411.173 232.931 411.72C234.251 412.67 235.191 413.09 235.131 413.22Z" fill="#263238"/>
<path d="M234.679 413.48C234.462 412.573 234.539 411.62 234.899 410.76C235.202 409.796 235.665 408.89 236.269 408.08C236.631 407.604 237.036 407.162 237.479 406.76C237.742 406.474 238.074 406.259 238.443 406.137C238.813 406.014 239.207 405.988 239.589 406.06C239.815 406.15 240.011 406.302 240.154 406.498C240.298 406.695 240.382 406.927 240.399 407.17C240.418 407.505 240.391 407.842 240.319 408.17C240.162 408.982 239.844 409.754 239.383 410.441C238.923 411.128 238.33 411.716 237.639 412.17C236.159 413.17 235.009 413.05 235.019 412.96C235.029 412.87 236.019 412.64 237.259 411.64C237.964 411.066 238.537 410.346 238.939 409.53C239.172 409.056 239.337 408.551 239.429 408.03C239.549 407.46 239.499 406.94 239.279 406.93C239.054 406.921 238.83 406.963 238.622 407.051C238.415 407.139 238.229 407.272 238.079 407.44C237.664 407.791 237.283 408.179 236.939 408.6C236.353 409.317 235.875 410.115 235.519 410.97C234.899 412.48 234.829 413.48 234.679 413.48Z" fill="#263238"/>
<path d="M166.92 280.54C159.16 280.72 151.8 281.81 146.45 287.44C139.36 294.91 130.6 305.54 130.1 312.91C129.36 323.91 136.01 327.21 140.86 329.91C143.005 331.07 145.423 331.633 147.86 331.54L237.54 330.86L240.35 315.67L182.35 301.37L184.76 279.54L166.92 280.54Z" fill="#263238"/>
<path d="M184.811 279.53L213.021 278.23C213.021 278.23 261.761 280.94 272.151 290.47C282.541 300 281.251 310.83 277.781 321.22C274.311 331.61 243.781 398.1 243.781 398.1C243.781 398.1 246.261 402.33 244.871 406.55C244.309 408.398 243.275 410.069 241.873 411.397C240.471 412.726 238.747 413.668 236.871 414.13L209.751 404.13C209.751 404.13 206.071 402.83 208.671 399.36C211.271 395.89 213.001 395.25 213.001 395.25V388.32C213.001 388.32 222.531 370.99 223.391 368.61C224.251 366.23 233.391 330.97 233.391 330.97L239.461 320.54C239.461 320.54 224.791 313.64 212.071 308.64L182.371 301.32L184.811 279.53Z" fill="#263238"/>
<path d="M230.571 402.91C229.75 402.433 228.956 401.912 228.191 401.35C224.36 398.868 220.044 397.228 215.531 396.54C214.584 396.448 213.643 396.308 212.711 396.12C213.662 396.01 214.624 396.027 215.571 396.17C220.197 396.664 224.616 398.345 228.401 401.05C229.203 401.572 229.933 402.197 230.571 402.91Z" fill="#455A64"/>
<path d="M244.118 398.15C243.527 397.665 243 397.107 242.548 396.49C241.628 395.42 240.408 393.9 239.138 392.16C237.868 390.42 236.768 388.81 236.018 387.62C235.571 386.997 235.196 386.327 234.898 385.62C235.435 386.163 235.912 386.763 236.318 387.41L239.558 391.85C240.768 393.49 241.878 394.97 242.838 396.26C243.333 396.842 243.762 397.475 244.118 398.15Z" fill="#455A64"/>
<path d="M254.019 311.06C254.019 311.14 253.019 311.36 251.449 311.88C247.338 313.237 243.613 315.562 240.589 318.66C239.998 319.341 239.374 319.992 238.719 320.61C239.142 319.802 239.681 319.061 240.319 318.41C241.773 316.767 243.457 315.342 245.319 314.18C247.179 313.009 249.2 312.116 251.319 311.53C252.19 311.238 253.1 311.079 254.019 311.06Z" fill="#455A64"/>
<path d="M226.32 358.14C226.332 357.939 226.369 357.741 226.43 357.55L226.85 355.9L228.47 349.85L234.02 329.94C235.15 326.05 236.11 322.35 237.2 318.99C238.351 316.07 240.091 313.419 242.31 311.2C243.776 309.697 245.398 308.356 247.15 307.2C247.78 306.8 248.27 306.5 248.62 306.32C248.788 306.214 248.966 306.123 249.15 306.05C249.15 306.05 248.47 306.51 247.27 307.36C245.576 308.57 244.002 309.939 242.57 311.45C240.429 313.66 238.756 316.279 237.65 319.15C236.65 322.46 235.65 326.21 234.52 330.08L228.83 349.94C228.09 352.43 227.48 354.46 227.04 355.94C226.83 356.6 226.67 357.14 226.53 357.56C226.487 357.762 226.416 357.957 226.32 358.14Z" fill="#455A64"/>
<path d="M201.369 307.35C201.219 307.35 200.629 302.09 200.039 295.57C199.449 289.05 199.039 283.75 199.239 283.74C199.439 283.73 199.969 289 200.559 295.52C201.149 302.04 201.509 307.34 201.369 307.35Z" fill="#455A64"/>
<path d="M154.41 321.48C154.33 321.48 153.9 320.67 153.01 319.42C151.862 317.794 150.484 316.343 148.92 315.11C147.345 313.893 145.604 312.907 143.75 312.18C142.32 311.62 141.39 311.41 141.41 311.32C142.252 311.359 143.082 311.532 143.87 311.83C147.781 313.119 151.122 315.728 153.32 319.21C153.806 319.902 154.174 320.669 154.41 321.48Z" fill="#455A64"/>
<path d="M171.689 302.28C171.689 302.36 170.449 301.6 168.379 300.65C162.948 298.183 156.924 297.322 151.019 298.17C148.769 298.49 147.399 298.89 147.379 298.8C147.67 298.636 147.983 298.514 148.309 298.44C149.178 298.171 150.063 297.957 150.959 297.8C156.931 296.752 163.082 297.635 168.519 300.32C169.334 300.722 170.122 301.177 170.879 301.68C171.175 301.841 171.448 302.043 171.689 302.28Z" fill="#455A64"/>
<path d="M239.25 315.64C239.009 315.628 238.771 315.588 238.54 315.52L236.54 315.09L229.24 313.48C223.07 312.1 214.53 310.24 205.06 308.37C195.59 306.5 186.99 304.95 180.76 303.88L173.37 302.61L171.37 302.26C171.134 302.232 170.902 302.175 170.68 302.09C170.917 302.097 171.154 302.117 171.39 302.15L173.39 302.41C175.14 302.65 177.67 303.03 180.8 303.52C187.05 304.52 195.67 305.98 205.15 307.86C214.63 309.74 223.15 311.65 229.31 313.12C232.38 313.86 234.87 314.48 236.58 314.93L238.58 315.45C238.808 315.493 239.033 315.557 239.25 315.64Z" fill="#455A64"/>
<path d="M182.402 303.93C182.302 303.93 182.092 302.75 181.162 301.07C180.617 300.101 179.945 299.209 179.162 298.42C178.174 297.447 177.125 296.539 176.022 295.7C173.988 294.198 171.838 292.86 169.592 291.7C168.641 291.248 167.725 290.727 166.852 290.14C167.858 290.458 168.832 290.87 169.762 291.37C172.082 292.446 174.287 293.756 176.342 295.28C177.46 296.133 178.516 297.066 179.502 298.07C180.305 298.902 180.979 299.849 181.502 300.88C181.861 301.577 182.133 302.316 182.312 303.08C182.394 303.355 182.424 303.644 182.402 303.93Z" fill="#455A64"/>
<path d="M282.291 317.48C282.401 317.6 280.901 319.11 279.731 321.42C278.561 323.73 278.181 325.81 278.031 325.78C278.028 324.164 278.456 322.576 279.271 321.18C279.934 319.702 280.976 318.426 282.291 317.48Z" fill="#263238"/>
<g opacity="0.3">
<path opacity="0.3" d="M218.102 215.02L224.522 260.24L224.842 260.96C226.347 245.327 224.034 229.562 218.102 215.02Z" fill="black"/>
</g>
<path d="M252.668 241L231.798 277.48L180.368 278.6L180.238 280.93L230.038 280.56L231.618 280.5L284.198 280.61L294.828 262.28L308.408 242.82C308.605 242.531 308.719 242.194 308.738 241.846C308.757 241.497 308.681 241.149 308.517 240.841C308.354 240.532 308.109 240.274 307.81 240.094C307.51 239.914 307.168 239.82 306.818 239.82L254.328 240.02C253.99 240.022 253.658 240.114 253.366 240.287C253.075 240.459 252.834 240.705 252.668 241Z" fill="#E0E0E0"/>
<path d="M294.831 262.31C294.831 262.31 297.531 264.79 297.111 266.89C296.691 268.99 296.821 270.56 294.831 270.7C294.868 271.468 294.609 272.222 294.106 272.804C293.604 273.387 292.897 273.754 292.131 273.83C292.131 273.83 292.741 277.13 288.901 277.7C288.901 277.7 287.721 281.23 285.301 280.37C283.907 279.896 282.566 279.276 281.301 278.52L280.591 277.24C280.591 277.24 277.021 275.9 277.901 273.89C278.441 272.67 280.281 272.35 280.281 272.35C280.069 271.849 279.98 271.305 280.02 270.762C280.06 270.22 280.228 269.695 280.511 269.23C281.361 268.08 284.141 269.03 284.141 269.03C284.084 268.045 284.398 267.075 285.021 266.31C286.021 265.18 290.401 268.23 290.401 268.23L292.811 265.35L294.831 262.31Z" fill="#FFBE9D"/>
<path d="M288.901 277.7C287.342 277.036 285.854 276.215 284.461 275.25C282.977 274.431 281.583 273.459 280.301 272.35C281.859 273.02 283.346 273.844 284.741 274.81C286.221 275.631 287.615 276.599 288.901 277.7Z" fill="#EB996E"/>
<path d="M292.13 273.83C290.68 273.26 289.298 272.529 288.01 271.65C286.634 270.921 285.343 270.042 284.16 269.03C285.613 269.595 286.996 270.327 288.28 271.21C289.656 271.939 290.947 272.818 292.13 273.83Z" fill="#EB996E"/>
<path d="M287.73 266.59C287.81 266.44 289.46 267.31 291.38 268.53C292.571 269.217 293.716 269.979 294.81 270.81C294.74 270.98 293.02 270.2 291.1 268.97C289.896 268.298 288.767 267.5 287.73 266.59Z" fill="#EB996E"/>
<path d="M308.41 241.22C308.327 241.233 308.243 241.233 308.16 241.22H307.42H304.58L294.14 241.3L259.69 241.38H257.18C256.81 241.345 256.438 241.41 256.102 241.568C255.766 241.726 255.478 241.972 255.27 242.28C254.47 243.707 253.69 245.113 252.93 246.5L248.49 254.5L240.96 268.03C238.82 271.85 237.07 274.95 235.84 277.14C235.25 278.14 234.77 279 234.43 279.6L234.05 280.23L233.91 280.44C233.91 280.44 233.91 280.35 234 280.2L234.34 279.54L235.67 277.04L240.67 267.85L248.11 254.26C249.51 251.71 250.99 249.03 252.51 246.26L254.86 242.01C255.116 241.63 255.469 241.324 255.882 241.123C256.294 240.923 256.753 240.836 257.21 240.87H259.72L294.17 240.94L304.61 241.03L307.45 241.08H308.19C308.271 241.114 308.345 241.161 308.41 241.22Z" fill="#263238"/>
<path d="M271.409 259.57C271.166 259.921 271.03 260.335 271.017 260.762C271.003 261.189 271.113 261.611 271.334 261.976C271.554 262.342 271.875 262.637 272.258 262.825C272.642 263.013 273.071 263.086 273.495 263.036C273.92 262.986 274.32 262.815 274.649 262.543C274.979 262.271 275.223 261.91 275.352 261.503C275.481 261.096 275.49 260.66 275.378 260.248C275.265 259.836 275.037 259.465 274.719 259.18C274.227 258.796 273.604 258.622 272.984 258.695C272.364 258.768 271.798 259.082 271.409 259.57Z" fill="white"/>
<g opacity="0.3">
<path opacity="0.3" d="M125.411 245.48C124.971 245.66 124.461 245.96 124.461 246.48C124.477 246.673 124.558 246.855 124.69 246.997C124.823 247.139 124.999 247.231 125.191 247.26C125.924 247.156 126.643 246.965 127.331 246.69C132.741 245.5 137.191 246.64 142.331 248.69L142.501 248.52C140.461 244.09 131.231 243.11 125.411 245.48Z" fill="black"/>
</g>
<path d="M404.02 448.48C404.02 448.62 313.57 448.74 202.02 448.74C90.4695 448.74 0.0195312 448.58 0.0195312 448.48C0.0195312 448.38 90.4495 448.22 202.02 448.22C313.59 448.22 404.02 448.29 404.02 448.48Z" fill="#263238"/>
<path d="M97.4383 129.69C97.6083 129.86 130.818 118.45 130.818 118.45L118.018 89.15L88.4883 100.48L104.748 109.82L97.4383 129.69Z" fill="#455A64"/>
<path d="M113.02 97.97V58.08C113.02 58.08 158.83 49.7 191.84 50.2C224.85 50.7 258.84 56.11 258.84 56.11V94.41C258.84 94.41 155.38 85.17 113.02 97.97Z" fill="#455A64"/>
<path d="M112.777 98.01L130.777 118.62V94.41C130.777 94.41 115.727 96.21 112.777 98.01Z" fill="#263238"/>
<path d="M113.019 58.07C113.169 58.07 113.229 67.07 113.169 78.07C113.109 89.07 112.929 98.07 112.789 98.07C112.649 98.07 112.579 89.13 112.639 78.07C112.699 67.01 112.869 58.07 113.019 58.07Z" fill="#263238"/>
<path d="M274.337 126.63C274.167 126.8 240.957 115.39 240.957 115.39L253.727 86.08L283.287 97.39L267.017 106.73L274.337 126.63Z" fill="#455A64"/>
<path d="M259.02 94.95L241.02 115.56V93.1C247.055 93.3066 253.069 93.9247 259.02 94.95Z" fill="#263238"/>
<path d="M258.819 56.11C258.959 56.11 259.119 64.8 259.169 75.53C259.219 86.26 259.169 94.95 258.999 94.95C258.829 94.95 258.699 86.26 258.649 75.53C258.599 64.8 258.669 56.11 258.819 56.11Z" fill="#263238"/>
<path d="M138.846 75.57C138.752 74.4216 138.998 73.2708 139.554 72.2616C140.11 71.2524 140.952 70.4296 141.973 69.896C142.994 69.3624 144.15 69.1418 145.296 69.2616C146.442 69.3815 147.528 69.8366 148.416 70.57L147.016 72.25C146.64 71.906 146.191 71.6497 145.704 71.4993C145.216 71.3489 144.702 71.3081 144.196 71.38C143.3 71.5047 142.49 71.9803 141.944 72.7023C141.398 73.4243 141.162 74.3336 141.286 75.23C141.411 76.1264 141.887 76.9366 142.609 77.4824C143.331 78.0281 144.24 78.2647 145.136 78.14C145.645 78.0732 146.132 77.8929 146.561 77.6124C146.99 77.332 147.351 76.9587 147.616 76.52L149.376 77.75C148.724 78.6986 147.807 79.4338 146.739 79.8634C145.671 80.2931 144.5 80.3981 143.373 80.1654C142.245 79.9327 141.212 79.3725 140.401 78.5551C139.591 77.7377 139.04 76.6993 138.816 75.57H138.846Z" fill="white"/>
<path d="M149.758 74.07C149.572 72.9155 149.737 71.7316 150.231 70.6718C150.725 69.612 151.526 68.7249 152.531 68.1256C153.535 67.5263 154.696 67.2422 155.863 67.3102C157.031 67.3782 158.151 67.7952 159.079 68.5071C160.006 69.219 160.699 70.193 161.067 71.3031C161.435 72.4132 161.461 73.6081 161.142 74.7332C160.823 75.8583 160.174 76.8618 159.278 77.6136C158.382 78.3654 157.281 78.831 156.118 78.95C155.377 79.0682 154.62 79.0341 153.893 78.8499C153.165 78.6656 152.483 78.335 151.888 77.8783C151.293 77.4216 150.797 76.8484 150.431 76.1936C150.065 75.5388 149.836 74.8162 149.758 74.07ZM158.868 73.13C158.787 72.4812 158.516 71.8706 158.09 71.3745C157.664 70.8784 157.102 70.5187 156.473 70.3403C155.843 70.1619 155.176 70.1726 154.553 70.3712C153.93 70.5698 153.379 70.9474 152.969 71.4569C152.559 71.9665 152.308 72.5854 152.248 73.2365C152.188 73.8876 152.32 74.5421 152.63 75.1183C152.939 75.6945 153.411 76.167 153.987 76.4767C154.563 76.7864 155.217 76.9197 155.868 76.86C156.317 76.8305 156.755 76.708 157.154 76.5004C157.553 76.2928 157.905 76.0045 158.187 75.6539C158.469 75.3032 158.675 74.8979 158.793 74.4634C158.91 74.029 158.935 73.5749 158.868 73.13Z" fill="white"/>
<path d="M173.33 77.4L172.9 71.02L170.11 76.48L169.01 76.55L165.56 71.63L165.97 77.87L163.66 78.02L163.02 67.39L165.02 67.26L169.42 73.61L172.91 66.76L174.91 66.63L175.63 77.25L173.33 77.4Z" fill="white"/>
<path d="M187.1 70.12C187.16 72.5 185.42 74.02 182.58 74.12L180.43 74.18L180.52 77.12L178.05 77.19L177.75 66.48L182.36 66.35C185.21 66.31 187.02 67.74 187.1 70.12ZM184.6 70.19C184.6 69.02 183.79 68.36 182.28 68.4L180.28 68.46L180.39 72.16L182.39 72.1C183.89 72.06 184.63 71.35 184.6 70.19Z" fill="white"/>
<path d="M189.02 66.25H191.48V74.89H196.82V76.89H189.02V66.25Z" fill="white"/>
<path d="M206.367 75.2V77.2L198.117 76.96L198.427 66.31L206.427 66.55L206.367 68.55L200.767 68.38L200.707 70.7L205.647 70.84L205.587 72.76L200.647 72.61L200.577 75.08L206.367 75.2Z" fill="white"/>
<path d="M210.927 68.78L207.527 68.58L207.647 66.58L216.907 67.14L216.787 69.14L213.387 68.93L212.867 77.56L210.407 77.41L210.927 68.78Z" fill="white"/>
<path d="M225.877 76.66L225.697 78.66L217.477 77.9L218.477 67.3L226.477 68.04L226.297 70.04L220.717 69.48L220.507 71.79L225.427 72.24L225.257 74.15L220.327 73.7L220.107 76.15L225.877 76.66Z" fill="white"/>
<path d="M228.957 68.27L233.747 68.91C237.197 69.37 239.287 71.76 238.867 74.91C238.447 78.06 235.787 79.91 232.337 79.41L227.547 78.77L228.957 68.27ZM232.487 77.44C232.922 77.5099 233.367 77.4918 233.795 77.3869C234.223 77.282 234.626 77.0924 234.98 76.8292C235.333 76.5661 235.631 76.2347 235.854 75.8547C236.078 75.4748 236.223 75.0538 236.281 74.6169C236.339 74.1799 236.309 73.7357 236.193 73.3105C236.076 72.8853 235.876 72.4877 235.603 72.1413C235.331 71.7948 234.992 71.5065 234.606 71.2933C234.22 71.0801 233.795 70.9464 233.357 70.9L231.127 70.6L230.257 77.14L232.487 77.44Z" fill="white"/>
<path d="M279.309 59.74L281.929 62.81L289.309 59.74L287.149 56.51L279.309 59.74Z" fill="#455A64"/>
<path d="M275.93 45.13C275.93 45.8895 275.705 46.6319 275.283 47.2634C274.861 47.8949 274.261 48.3871 273.559 48.6777C272.858 48.9683 272.086 49.0444 271.341 48.8962C270.596 48.748 269.912 48.3823 269.375 47.8453C268.838 47.3082 268.472 46.624 268.324 45.8791C268.176 45.1343 268.252 44.3622 268.542 43.6605C268.833 42.9588 269.325 42.3591 269.957 41.9371C270.588 41.5152 271.331 41.29 272.09 41.29C273.108 41.2926 274.083 41.6981 274.802 42.4176C275.522 43.1372 275.927 44.1124 275.93 45.13Z" fill="#FF725E"/>
<path d="M189.91 102.41C189.908 102.791 189.793 103.162 189.58 103.477C189.366 103.792 189.064 104.037 188.711 104.179C188.358 104.322 187.971 104.357 187.598 104.279C187.226 104.202 186.885 104.015 186.619 103.743C186.352 103.471 186.173 103.126 186.103 102.752C186.033 102.378 186.076 101.992 186.226 101.642C186.376 101.292 186.627 100.995 186.947 100.788C187.266 100.581 187.64 100.474 188.02 100.48C188.526 100.488 189.008 100.695 189.362 101.056C189.716 101.418 189.913 101.904 189.91 102.41Z" fill="#FF725E"/>
<path d="M100.459 73.55C100.459 73.8396 100.373 74.1227 100.212 74.3632C100.05 74.6037 99.821 74.7908 99.5531 74.9007C99.2851 75.0106 98.9905 75.0383 98.7068 74.9803C98.423 74.9223 98.163 74.7813 97.9596 74.5751C97.7562 74.3689 97.6188 74.1069 97.5647 73.8224C97.5107 73.5379 97.5425 73.2437 97.656 72.9773C97.7696 72.7109 97.9598 72.4843 98.2026 72.3263C98.4453 72.1683 98.7295 72.086 99.0191 72.09C99.4028 72.0953 99.769 72.2514 100.039 72.5246C100.308 72.7979 100.459 73.1662 100.459 73.55Z" fill="#FF725E"/>
<path d="M95.0391 57.48L99.3391 57.74L101.389 49.29L97.3691 49.45L95.0391 57.48Z" fill="#455A64"/>
<path d="M229.438 125.01L230.887 129.07L239.467 127.64L237.738 124L229.438 125.01Z" fill="#FF725E"/>
<path d="M142.658 101.58L140.008 104.99L145.818 111.45L147.958 108.05L142.658 101.58Z" fill="#455A64"/>
<path d="M132.389 21.71L142.539 32.07L156.839 26.66L157.399 30.21L151.209 42.89L156.919 52.35L156.439 55.17L142.609 52.84L134.439 61.82L132.509 60.36L130.819 48.95L117.919 42.23L117.359 39.63L130.339 36.07L132.389 21.71Z" fill="#FF725E"/>
<g opacity="0.3">
<path opacity="0.3" d="M132.389 21.71L142.539 32.07L156.839 26.66L157.399 30.21L151.209 42.89L156.919 52.35L156.439 55.17L142.609 52.84L134.439 61.82L132.509 60.36L130.819 48.95L117.919 42.23L117.359 39.63L130.339 36.07L132.389 21.71Z" fill="black"/>
</g>
<path d="M132.389 18.8L142.539 29.16L156.839 26.66L150.129 39.53L156.919 52.35L142.609 49.94L132.509 60.36L130.379 46.01L117.359 39.63L130.339 33.17L132.389 18.8Z" fill="#FF725E"/>
<path d="M237.641 21.71L227.481 32.07L213.191 26.66L212.621 30.21L218.811 42.89L213.111 52.35L213.581 55.17L227.411 52.84L235.591 61.82L237.511 60.36L239.201 48.95L252.101 42.23L252.671 39.63L239.681 36.07L237.641 21.71Z" fill="#FF725E"/>
<g opacity="0.3">
<path opacity="0.3" d="M237.641 21.71L227.481 32.07L213.191 26.66L212.621 30.21L218.811 42.89L213.111 52.35L213.581 55.17L227.411 52.84L235.591 61.82L237.511 60.36L239.201 48.95L252.101 42.23L252.671 39.63L239.681 36.07L237.641 21.71Z" fill="black"/>
</g>
<path d="M237.639 18.8L227.479 29.16L213.189 26.66L219.899 39.53L213.109 52.35L227.409 49.94L237.509 60.36L239.639 46.01L252.669 39.63L239.679 33.17L237.639 18.8Z" fill="#FF725E"/>
<path d="M184.681 3.54L193.131 20.05L212.621 18.9L211.961 23.44L199.581 36.55L202.941 50.27L201.281 53.53L185.291 45.42L171.901 53.26L170.111 50.75L172.391 36.18L159.211 23.07L159.511 19.68L176.721 20.29L184.681 3.54Z" fill="#FF725E"/>
<g opacity="0.3">
<path opacity="0.3" d="M184.681 3.54L193.131 20.05L212.621 18.9L211.961 23.44L199.581 36.55L202.941 50.27L201.281 53.53L185.291 45.42L171.901 53.26L170.111 50.75L172.391 36.18L159.211 23.07L159.511 19.68L176.721 20.29L184.681 3.54Z" fill="black"/>
</g>
<path d="M185.778 0L194.228 16.51L212.618 18.9L199.528 32.04L202.938 50.27L186.398 41.88L170.108 50.75L172.978 32.43L159.508 19.68L177.818 16.75L185.778 0Z" fill="#FF725E"/>
<path d="M219.449 148.11L233.569 149.67C238.336 142.921 245.455 138.199 253.527 136.433C261.598 134.666 270.039 135.982 277.19 140.122C284.34 144.262 289.684 150.926 292.17 158.806C294.657 166.686 294.106 175.21 290.627 182.705C287.148 190.199 280.991 196.121 273.368 199.307C265.744 202.493 257.204 202.713 249.427 199.922C241.65 197.132 235.197 191.534 231.338 184.228C227.478 176.922 226.491 168.437 228.569 160.44L219.449 148.11Z" fill="#FAFAFA"/>
<path d="M219.449 148.11C219.999 148.85 222.859 152.63 228.699 160.38H228.489C228.496 160.364 228.507 160.349 228.521 160.337C228.534 160.325 228.55 160.317 228.567 160.312C228.585 160.307 228.603 160.306 228.62 160.309C228.638 160.313 228.655 160.32 228.669 160.33C228.693 160.344 228.711 160.365 228.722 160.39C228.733 160.415 228.735 160.443 228.729 160.47C227.298 166.08 227.374 171.969 228.949 177.54C229.412 179.212 230.024 180.838 230.779 182.4C231.179 183.2 231.559 184.02 231.989 184.83L233.479 187.2C238.237 194.097 245.435 198.933 253.619 200.73C258.15 201.726 262.84 201.746 267.379 200.79C272.164 199.749 276.661 197.666 280.549 194.69C284.622 191.597 287.896 187.575 290.099 182.96C292.38 178.267 293.505 173.096 293.379 167.88C293.234 162.89 291.969 157.996 289.679 153.56C287.526 149.355 284.474 145.674 280.739 142.78C274.013 137.581 265.547 135.161 257.089 136.02C253.515 136.449 250.026 137.413 246.739 138.88C241.509 141.297 237.003 145.041 233.669 149.74C233.659 149.759 233.642 149.774 233.623 149.783C233.603 149.793 233.581 149.795 233.559 149.79L219.449 148.11L233.589 149.54L233.469 149.6C236.793 144.837 241.32 141.042 246.589 138.6C249.893 137.078 253.41 136.073 257.019 135.62C265.593 134.712 274.188 137.14 281.019 142.4C284.818 145.329 287.922 149.061 290.109 153.33C292.447 157.83 293.736 162.801 293.879 167.87C294.011 173.168 292.873 178.421 290.559 183.19C288.317 187.877 284.988 191.96 280.849 195.1C276.897 198.117 272.329 200.227 267.469 201.28C262.85 202.252 258.076 202.221 253.469 201.19C245.198 199.367 237.93 194.465 233.139 187.48L231.639 185.08C231.209 184.26 230.829 183.42 230.419 182.61C229.667 181.028 229.058 179.381 228.599 177.69C227.031 172.059 226.989 166.112 228.479 160.46L228.719 160.55C228.701 160.579 228.672 160.6 228.639 160.609C228.606 160.619 228.57 160.615 228.539 160.6L219.449 148.11Z" fill="#263238"/>
<path d="M248.421 156.92C248.432 157.073 248.432 157.227 248.421 157.38C248.421 157.71 248.421 158.13 248.421 158.66C248.421 159.82 248.421 161.43 248.481 163.47C248.481 167.62 248.551 173.47 248.601 180.47L248.371 180.24H271.901C271.961 180.18 271.411 180.73 271.641 180.49V177.29C271.641 176.24 271.641 175.19 271.641 174.15V168.06C271.641 164.12 271.641 160.39 271.641 156.96L271.861 157.19L254.861 157.07L250.051 157.02H248.771H248.311H248.721H249.961L254.711 156.96L271.841 156.85H272.071V157.07C272.071 160.5 272.071 164.23 272.071 168.17V180.48C272.311 180.25 271.761 180.81 271.811 180.75H248.281H248.051V180.48C248.051 173.42 248.131 167.53 248.161 163.35C248.161 161.35 248.161 159.73 248.221 158.59C248.221 158.08 248.221 157.67 248.221 157.35C248.268 157.198 248.335 157.054 248.421 156.92Z" fill="#263238"/>
<path d="M269.409 160.81C269.749 161.08 266.589 165.64 262.339 171C261.499 172.07 260.669 173.09 259.899 174L259.399 174.61L258.839 174.1C255.159 170.79 252.668 168.25 252.888 167.99C253.108 167.73 255.999 169.83 259.809 172.99L258.739 173.09C259.469 172.09 260.269 171.09 261.119 170.03C265.359 164.67 269.079 160.55 269.409 160.81Z" fill="#FF725E"/>
</g>
<defs>
<clipPath id="clip0_2706_37970">
<rect width="404.04" height="450.29" fill="white"/>
</clipPath>
</defs>
</svg>
