<svg width="60" height="60" viewBox="0 0 60 60" fill="none" xmlns="http://www.w3.org/2000/svg">
<circle cx="30" cy="30" r="30" fill="#AEE9D1"/>
<path fill-rule="evenodd" clip-rule="evenodd" d="M30 19C23.925 19 19 23.925 19 30C19 36.075 23.925 41 30 41C36.075 41 41 36.075 41 30C41 23.925 36.075 19 30 19ZM34.768 28.14C34.8558 28.0396 34.9226 27.9227 34.9646 27.7962C35.0065 27.6696 35.0227 27.5359 35.0123 27.403C35.0018 27.2701 34.9648 27.1406 34.9036 27.0221C34.8423 26.9037 34.758 26.7987 34.6555 26.7133C34.5531 26.628 34.4346 26.564 34.3071 26.5251C34.1796 26.4862 34.0455 26.4732 33.9129 26.4868C33.7802 26.5005 33.6517 26.5405 33.5347 26.6046C33.4178 26.6687 33.3149 26.7555 33.232 26.86L28.932 32.019L26.707 29.793C26.5184 29.6108 26.2658 29.51 26.0036 29.5123C25.7414 29.5146 25.4906 29.6198 25.3052 29.8052C25.1198 29.9906 25.0146 30.2414 25.0123 30.5036C25.01 30.7658 25.1108 31.0184 25.293 31.207L28.293 34.207C28.3913 34.3052 28.5089 34.3818 28.6384 34.4321C28.7679 34.4823 28.9065 34.505 29.0453 34.4986C29.184 34.4923 29.32 34.4572 29.4444 34.3954C29.5688 34.3337 29.6791 34.2467 29.768 34.14L34.768 28.14Z" fill="#00AB55"/>
</svg>
