<svg width="16" height="16" viewBox="0 0 16 16" fill="none" xmlns="http://www.w3.org/2000/svg">
<path d="M8 4C8.17681 4 8.34638 4.07024 8.47141 4.19526C8.59643 4.32029 8.66667 4.48986 8.66667 4.66667V7.33333H11.3333C11.5101 7.33333 11.6797 7.40357 11.8047 7.5286C11.9298 7.65362 12 7.82319 12 8C12 8.17681 11.9298 8.34638 11.8047 8.47141C11.6797 8.59643 11.5101 8.66667 11.3333 8.66667H8.66667V11.3333C8.66667 11.5101 8.59643 11.6797 8.47141 11.8047C8.34638 11.9298 8.17681 12 8 12C7.82319 12 7.65362 11.9298 7.5286 11.8047C7.40357 11.6797 7.33333 11.5101 7.33333 11.3333V8.66667H4.66667C4.48986 8.66667 4.32029 8.59643 4.19526 8.47141C4.07024 8.34638 4 8.17681 4 8C4 7.82319 4.07024 7.65362 4.19526 7.5286C4.32029 7.40357 4.48986 7.33333 4.66667 7.33333H7.33333V4.66667C7.33333 4.48986 7.40357 4.32029 7.5286 4.19526C7.65362 4.07024 7.82319 4 8 4ZM0 8C-1.56548e-08 6.94943 0.206926 5.90914 0.608964 4.93853C1.011 3.96793 1.60028 3.08601 2.34315 2.34315C3.08601 1.60028 3.96793 1.011 4.93853 0.608964C5.90914 0.206926 6.94943 0 8 0C9.05058 0 10.0909 0.206926 11.0615 0.608964C12.0321 1.011 12.914 1.60028 13.6569 2.34315C14.3997 3.08601 14.989 3.96793 15.391 4.93853C15.7931 5.90914 16 6.94943 16 8C16 10.1217 15.1571 12.1566 13.6569 13.6569C12.1566 15.1571 10.1217 16 8 16C5.87827 16 3.84344 15.1571 2.34315 13.6569C0.842855 12.1566 3.16163e-08 10.1217 0 8ZM8 1.33333C6.23189 1.33333 4.5362 2.03571 3.28595 3.28595C2.03571 4.5362 1.33333 6.23189 1.33333 8C1.33333 9.76811 2.03571 11.4638 3.28595 12.714C4.5362 13.9643 6.23189 14.6667 8 14.6667C9.76811 14.6667 11.4638 13.9643 12.714 12.714C13.9643 11.4638 14.6667 9.76811 14.6667 8C14.6667 6.23189 13.9643 4.5362 12.714 3.28595C11.4638 2.03571 9.76811 1.33333 8 1.33333Z" fill="#979797"/>
</svg>
