<svg width="68" height="68" viewBox="0 0 68 68" fill="none" xmlns="http://www.w3.org/2000/svg">
<path fill-rule="evenodd" clip-rule="evenodd" d="M5.66602 34C5.66602 18.3519 18.3513 5.66666 33.9994 5.66666C41.5138 5.66666 48.7205 8.65177 54.034 13.9653C59.3476 19.2788 62.3327 26.4855 62.3327 34C62.3327 49.6481 49.6474 62.3333 33.9994 62.3333C18.3513 62.3333 5.66602 49.6481 5.66602 34ZM33.2343 44.2283L46.1827 27.2283V27.1433C46.8002 26.3335 46.9387 25.2558 46.5461 24.3162C46.1536 23.3765 45.2895 22.7177 44.2795 22.5878C43.2694 22.458 42.2668 22.8769 41.6493 23.6867L30.9394 37.8533L26.321 31.96C25.6985 31.1603 24.6966 30.7535 23.6928 30.8928C22.689 31.0321 21.8357 31.6963 21.4545 32.6353C21.0732 33.5743 21.2218 34.6453 21.8443 35.445L28.7577 44.2567C29.2983 44.9409 30.124 45.338 30.996 45.3333C31.8729 45.3312 32.6994 44.9232 33.2343 44.2283Z" fill="#219653"/>
</svg>
