<svg width="18" height="19" viewBox="0 0 18 19" fill="none" xmlns="http://www.w3.org/2000/svg">
<path fill-rule="evenodd" clip-rule="evenodd" d="M1.5 9.75C1.5 5.60786 4.85786 2.25 9 2.25C10.9891 2.25 12.8968 3.04018 14.3033 4.4467C15.7098 5.85322 16.5 7.76088 16.5 9.75C16.5 13.8921 13.1421 17.25 9 17.25C4.85786 17.25 1.5 13.8921 1.5 9.75ZM8.7975 12.4575L12.225 7.9575V7.935C12.3884 7.72064 12.4251 7.43537 12.3212 7.18664C12.2173 6.9379 11.9886 6.76351 11.7212 6.72914C11.4538 6.69476 11.1884 6.80564 11.025 7.02L8.19 10.77L6.9675 9.21C6.80271 8.99832 6.53751 8.89063 6.2718 8.92751C6.00608 8.96438 5.78022 9.1402 5.6793 9.38876C5.57837 9.63731 5.61771 9.92082 5.7825 10.1325L7.6125 12.465C7.75562 12.6461 7.97416 12.7512 8.205 12.75C8.43712 12.7494 8.65591 12.6414 8.7975 12.4575Z" fill="#404EED"/>
</svg>
