<svg width="19" height="18" viewBox="0 0 19 18" fill="none" xmlns="http://www.w3.org/2000/svg">
<path d="M7.99937 14.25C7.82413 14.2504 7.6543 14.1893 7.51937 14.0775C7.36599 13.9504 7.26951 13.7674 7.25122 13.569C7.23292 13.3706 7.29433 13.1731 7.42187 13.02L10.7819 9.00002L7.54187 4.97252C7.41604 4.81757 7.35717 4.61886 7.37828 4.42038C7.3994 4.2219 7.49876 4.04002 7.65437 3.91502C7.81124 3.77699 8.01859 3.71066 8.22645 3.73202C8.43431 3.75337 8.62384 3.86048 8.74937 4.02752L12.3719 8.52752C12.5994 8.80427 12.5994 9.20327 12.3719 9.48002L8.62187 13.98C8.46927 14.1641 8.23805 14.2644 7.99937 14.25Z" fill="white"/>
</svg>
