<svg width="16" height="16" viewBox="0 0 16 16" fill="none" xmlns="http://www.w3.org/2000/svg">
<path d="M6.66662 12.6667C6.51085 12.667 6.3599 12.6127 6.23995 12.5133C6.10362 12.4003 6.01786 12.2377 6.0016 12.0613C5.98534 11.885 6.03992 11.7094 6.15329 11.5733L9.13995 8L6.25995 4.42C6.14811 4.28228 6.09578 4.10564 6.11454 3.92922C6.13331 3.75279 6.22163 3.59112 6.35995 3.48C6.4994 3.35731 6.68371 3.29835 6.86847 3.31734C7.05324 3.33632 7.2217 3.43152 7.33329 3.58L10.5533 7.58C10.7555 7.82601 10.7555 8.18067 10.5533 8.42667L7.21995 12.4267C7.08431 12.5903 6.87878 12.6795 6.66662 12.6667Z" fill="#637381"/>
</svg>
