<svg width="20" height="20" viewBox="0 0 20 20" fill="none" xmlns="http://www.w3.org/2000/svg">
<path fill-rule="evenodd" clip-rule="evenodd" d="M6.66667 7.49967C6.20833 7.49967 5.83333 7.12467 5.83333 6.66634C5.83333 6.20801 6.20833 5.83301 6.66667 5.83301H16.6667C17.125 5.83301 17.5 6.20801 17.5 6.66634C17.5 7.12467 17.125 7.49967 16.6667 7.49967H6.66667ZM5 10.833H15C15.4583 10.833 15.8333 10.458 15.8333 9.99968C15.8333 9.54134 15.4583 9.16634 15 9.16634H5C4.54167 9.16634 4.16667 9.54134 4.16667 9.99968C4.16667 10.458 4.54167 10.833 5 10.833ZM3.33333 14.1663H13.3333C13.7917 14.1663 14.1667 13.7913 14.1667 13.333C14.1667 12.8747 13.7917 12.4997 13.3333 12.4997H3.33333C2.875 12.4997 2.5 12.8747 2.5 13.333C2.5 13.7913 2.875 14.1663 3.33333 14.1663Z" fill="#212B36"/>
</svg>
