<svg width="24" height="24" viewBox="0 0 24 24" fill="none" xmlns="http://www.w3.org/2000/svg">
<path fill-rule="evenodd" clip-rule="evenodd" d="M12 3C7.02944 3 3 7.02944 3 12C3 16.9706 7.02944 21 12 21C16.9706 21 21 16.9706 21 12C20.9946 7.03166 16.9683 3.00537 12 3ZM12 17.25C11.3787 17.25 10.875 16.7463 10.875 16.125C10.875 15.5037 11.3787 15 12 15C12.6213 15 13.125 15.5037 13.125 16.125C13.125 16.7463 12.6213 17.25 12 17.25ZM12.75 13.3777C12.7499 13.0794 12.9266 12.8093 13.2 12.69C14.5733 12.0907 15.2937 10.5707 14.8878 9.12844C14.4819 7.68613 13.074 6.76449 11.5897 6.96939C10.1055 7.17429 8.99998 8.44291 9 9.94125C9 10.3555 9.33579 10.6912 9.75 10.6912C10.1642 10.6912 10.5 10.3555 10.5 9.94125C10.4996 9.19198 11.0522 8.55735 11.7944 8.45464C12.5366 8.35192 13.2407 8.81264 13.4438 9.53385C13.6469 10.2551 13.2867 11.0155 12.6 11.3152C11.7799 11.6732 11.2499 12.483 11.25 13.3777C11.25 13.792 11.5858 14.1277 12 14.1277C12.4142 14.1277 12.75 13.792 12.75 13.3777Z" fill="#1A203D"/>
</svg>
