<svg width="16" height="16" viewBox="0 0 16 16" fill="none" xmlns="http://www.w3.org/2000/svg">
<path d="M8.00089 16C6.69702 16.0006 5.41279 15.6823 4.26008 15.0729L2.16033 15.6729C1.90632 15.7454 1.63752 15.7488 1.38179 15.6825C1.12605 15.6162 0.892696 15.4828 0.705897 15.296C0.519097 15.1092 0.385655 14.8758 0.319399 14.6201C0.253142 14.3643 0.256483 14.0955 0.329075 13.8415L0.929003 11.7418C0.111235 10.1964 -0.177748 8.42567 0.106262 6.70049C0.390273 4.9753 1.23164 3.39066 2.50164 2.18899C3.77164 0.987317 5.40035 0.234786 7.13859 0.0465227C8.87683 -0.141741 10.6289 0.244631 12.1267 1.14653C13.6246 2.04843 14.7857 3.41618 15.4325 5.04056C16.0793 6.66493 16.1761 8.45647 15.7082 10.1411C15.2402 11.8257 14.2333 13.3107 12.8414 14.3687C11.4495 15.4268 9.74929 15.9998 8.00089 16ZM4.37192 13.2277C4.53186 13.2278 4.68884 13.2709 4.82631 13.3527C6.12926 14.1252 7.66939 14.3955 9.15752 14.1128C10.6457 13.8302 11.9794 13.0141 12.9085 11.8177C13.8375 10.6213 14.2978 9.12693 14.2031 7.61516C14.1083 6.10339 13.465 4.6782 12.3938 3.60718C11.3227 2.53615 9.89744 1.89296 8.38566 1.79835C6.87388 1.70375 5.37956 2.16425 4.18327 3.09339C2.98697 4.02252 2.17097 5.35639 1.88849 6.84456C1.60601 8.33272 1.87647 9.87282 2.64909 11.1757C2.71101 11.2798 2.75099 11.3954 2.7666 11.5155C2.7822 11.6356 2.77309 11.7577 2.73982 11.8741L2.18478 13.8172L4.12773 13.262C4.20714 13.2393 4.28933 13.2278 4.37192 13.2278V13.2277Z" fill="#979797"/>
</svg>
