<svg width="59" height="65" viewBox="0 0 59 65" fill="none" xmlns="http://www.w3.org/2000/svg">
<path fill-rule="evenodd" clip-rule="evenodd" d="M5.05519 60.125L0.151123 65V0L5.05519 4.875L9.95926 0L14.8633 4.875L19.7674 0L24.6715 4.875L29.5755 0L34.4796 4.875L39.3837 0L44.2878 4.875L49.1918 0L54.0959 4.875L59 0V65L54.0959 60.125L49.1918 65L44.2878 60.125L39.3837 65L34.4796 60.125L29.5755 65L24.6715 60.125L19.7674 65L14.8633 60.125L9.95926 65L5.05519 60.125ZM49.1918 22.75H9.95926V16.25H49.1918V22.75ZM9.95926 35.75H49.1918V29.25H9.95926V35.75ZM9.95926 48.75H49.1918V42.25H9.95926V48.75Z" fill="white" fill-opacity="0.2"/>
</svg>
