<svg width="20" height="20" viewBox="0 0 20 20" fill="none" xmlns="http://www.w3.org/2000/svg">
<rect width="20" height="20" rx="2" fill="#F2994A"/>
<path fill-rule="evenodd" clip-rule="evenodd" d="M8.7 15.7C8.7 15.9387 8.60518 16.1676 8.4364 16.3364C8.26761 16.5052 8.03869 16.6 7.8 16.6H6.9C6.66131 16.6 6.43239 16.5052 6.2636 16.3364C6.09482 16.1676 6 15.9387 6 15.7V4.9C6 4.66131 6.09482 4.43239 6.2636 4.2636C6.43239 4.09482 6.66131 4 6.9 4H7.8C8.03869 4 8.26761 4.09482 8.4364 4.2636C8.60518 4.43239 8.7 4.66131 8.7 4.9V15.7ZM15 15.7C15 15.9387 14.9052 16.1676 14.7364 16.3364C14.5676 16.5052 14.3387 16.6 14.1 16.6H13.2C12.9613 16.6 12.7324 16.5052 12.5636 16.3364C12.3948 16.1676 12.3 15.9387 12.3 15.7V4.9C12.3 4.66131 12.3948 4.43239 12.5636 4.2636C12.7324 4.09482 12.9613 4 13.2 4H14.1C14.3387 4 14.5676 4.09482 14.7364 4.2636C14.9052 4.43239 15 4.66131 15 4.9V15.7Z" fill="white"/>
</svg>
