<svg width="14" height="14" viewBox="0 0 14 14" fill="none" xmlns="http://www.w3.org/2000/svg">
<path d="M12.8334 6.16666H7.83337V1.16666C7.83337 0.706424 7.46028 0.333328 7.00004 0.333328C6.5398 0.333328 6.16671 0.706424 6.16671 1.16666V6.16666H1.16671C0.70647 6.16666 0.333374 6.53976 0.333374 6.99999C0.333374 7.46023 0.70647 7.83333 1.16671 7.83333H6.16671V12.8333C6.16671 13.2936 6.5398 13.6667 7.00004 13.6667C7.46028 13.6667 7.83337 13.2936 7.83337 12.8333V7.83333H12.8334C13.2936 7.83333 13.6667 7.46023 13.6667 6.99999C13.6667 6.53976 13.2936 6.16666 12.8334 6.16666Z" fill="white"/>
</svg>
