<svg width="24" height="24" viewBox="0 0 24 24" fill="none" xmlns="http://www.w3.org/2000/svg">
<g id="icon/ color/ ic_notification_shipping">
<g id="on-time">
<path id="Combined Shape" fill-rule="evenodd" clip-rule="evenodd" d="M23.9844 13.5667L20.4737 9.74178C20.2156 9.46043 19.8514 9.30026 19.4696 9.30029H15.1111V13.5667V19.7727H16.7782C16.7782 18.4555 17.846 17.3877 19.1632 17.3877C20.4803 17.3877 21.5481 18.4555 21.5481 19.7727H22.6214C22.9829 19.7727 23.3296 19.6291 23.5852 19.3735C23.8409 19.1179 23.9844 18.7712 23.9844 18.4097V13.5667Z" fill="url(#paint0_linear_2142_24449)"/>
<circle id="Oval" cx="19.1632" cy="19.7726" r="2.38493" fill="#7A4F01"/>
<path id="Path" fill-rule="evenodd" clip-rule="evenodd" d="M15.1111 13.5666V19.7725H7.85246C7.85246 18.4552 6.78457 17.3873 5.46725 17.3873C4.14994 17.3873 3.08204 18.4552 3.08204 19.7725H1.3786C1.0171 19.7726 0.670387 19.629 0.414766 19.3734C0.159146 19.1178 0.0155658 18.7711 0.015625 18.4096V7.03021C0.0155658 6.66871 0.159146 6.322 0.414766 6.06638C0.670387 5.81076 1.0171 5.66718 1.3786 5.66724H2.85711C2.94212 8.07032 4.91485 9.97451 7.31944 9.97451C9.72402 9.97451 11.6968 8.07032 11.7818 5.66724H13.7481C14.5008 5.6673 15.111 6.27749 15.1111 7.03021V13.5666Z" fill="#B78103"/>
<path id="Path_2" fill-rule="evenodd" clip-rule="evenodd" d="M11.7845 5.51712C11.7845 5.56735 11.7839 5.61758 11.7817 5.66726C11.6967 8.07034 9.72395 9.97453 7.31936 9.97453C4.91478 9.97453 2.94204 8.07034 2.85704 5.66726C2.85481 5.61758 2.85425 5.56735 2.85425 5.51712C2.85425 3.0511 4.85335 1.052 7.31936 1.052C9.78538 1.052 11.7845 3.0511 11.7845 5.51712Z" fill="#74CAFF" stroke="#74CAFF"/>
<path id="Path_3" fill-rule="evenodd" clip-rule="evenodd" d="M5.46696 17.3877C6.78412 17.3877 7.85189 18.4555 7.85189 19.7726C7.85189 21.0898 6.78412 22.1576 5.46696 22.1576C4.1498 22.1576 3.08203 21.0898 3.08203 19.7726C3.08206 18.4555 4.14981 17.3877 5.46696 17.3877Z" fill="#7A4F01"/>
<path id="Path_4" fill-rule="evenodd" clip-rule="evenodd" d="M8.80953 7.30308C8.71036 7.30321 8.61487 7.26548 8.54257 7.1976L7.05234 5.80225C6.97346 5.72837 6.9287 5.62512 6.92871 5.51704V2.62141C6.92871 2.40563 7.10363 2.23071 7.31941 2.23071C7.53518 2.23071 7.71011 2.40563 7.71011 2.62141V5.34792L9.07666 6.62746C9.19373 6.73707 9.23193 6.90709 9.17299 7.05624C9.11406 7.20539 8.96996 7.30338 8.80959 7.30336L8.80953 7.30308Z" fill="#0C53B7"/>
</g>
</g>
<defs>
<linearGradient id="paint0_linear_2142_24449" x1="10.6744" y1="14.5365" x2="21.0047" y2="23.2894" gradientUnits="userSpaceOnUse">
<stop stop-color="#FFE16A"/>
<stop offset="1" stop-color="#B78103"/>
</linearGradient>
</defs>
</svg>
