<svg width="22" height="22" viewBox="0 0 22 22" fill="none" xmlns="http://www.w3.org/2000/svg">
<path d="M15.8127 3.66699L15.7211 3.67341C15.5562 3.6956 15.4049 3.77685 15.2953 3.9021C15.1857 4.02734 15.1253 4.18808 15.1252 4.35449V15.9888L12.1736 13.039L12.0966 12.973C11.9571 12.8693 11.7834 12.8223 11.6107 12.8414C11.4379 12.8606 11.2788 12.9445 11.1654 13.0763C11.052 13.208 10.9927 13.3779 10.9995 13.5516C11.0062 13.7253 11.0786 13.89 11.2019 14.0125L15.3306 18.1375L15.4076 18.2035C15.54 18.3013 15.7031 18.3484 15.8673 18.3361C16.0315 18.3238 16.1858 18.253 16.3022 18.1366L20.4245 14.0116L20.4905 13.9346C20.5886 13.8021 20.6358 13.6387 20.6235 13.4743C20.6112 13.31 20.5403 13.1555 20.4236 13.039L20.3466 12.973C20.2141 12.8749 20.0507 12.8277 19.8863 12.84C19.722 12.8523 19.5675 12.9232 19.451 13.0399L16.5002 15.9925V4.35449L16.4947 4.26099C16.4721 4.0964 16.3907 3.94556 16.2655 3.83636C16.1403 3.72716 15.9798 3.667 15.8137 3.66699H15.8127ZM5.69641 3.86866L1.57691 7.98908L1.50999 8.06608C1.41217 8.19851 1.36512 8.36164 1.3774 8.52583C1.38968 8.69001 1.46048 8.84434 1.57691 8.96074L1.65391 9.02766C1.78634 9.12548 1.94948 9.17253 2.11366 9.16025C2.27785 9.14797 2.43217 9.07717 2.54858 8.96074L5.49749 6.01091V17.6507L5.50483 17.7442C5.52742 17.9088 5.60885 18.0597 5.73406 18.1689C5.85926 18.2781 6.01978 18.3382 6.18591 18.3382L6.27849 18.3318C6.44325 18.3094 6.59431 18.2281 6.70369 18.1029C6.81308 17.9776 6.87337 17.817 6.87341 17.6507L6.87249 6.01274L9.82691 8.96166L9.90391 9.02766C10.0435 9.13006 10.2166 9.17602 10.3887 9.15634C10.5607 9.13666 10.719 9.0528 10.8318 8.92151C10.9447 8.79022 11.0039 8.62117 10.9976 8.44814C10.9912 8.27511 10.9198 8.11084 10.7977 7.98816L6.66899 3.86866L6.59108 3.80266C6.45865 3.70484 6.29551 3.65779 6.13132 3.67007C5.96714 3.68235 5.81282 3.75314 5.69641 3.86958V3.86866Z" fill="#637381"/>
</svg>
