<svg width="20" height="20" viewBox="0 0 20 20" fill="none" xmlns="http://www.w3.org/2000/svg">
<path opacity="0.48" d="M13.0286 10.4298L10.9744 8.33365C10.9735 8.33267 10.9726 8.33183 10.9716 8.33085C10.9698 8.32889 10.9679 8.32694 10.9659 8.32498C10.9645 8.32372 10.9633 8.32232 10.962 8.32106C10.9602 8.31924 10.9584 8.31756 10.9565 8.31575C10.9554 8.31477 10.9544 8.31379 10.9535 8.31281C10.7634 8.12944 10.5049 8.01656 10.22 8.01656C9.92806 8.01656 9.66398 8.13489 9.47277 8.32624L7.36014 10.4389C6.94766 10.8514 6.94766 11.5202 7.36014 11.9328C7.56646 12.1392 7.83683 12.2422 8.1072 12.2422C8.37743 12.2422 8.64781 12.1392 8.85412 11.9328L9.09204 11.6949C9.11848 11.6685 9.16352 11.6872 9.16352 11.7246V15.856C9.16352 16.4482 9.64817 16.9471 10.2403 16.9359C10.8143 16.925 11.2763 16.4563 11.2763 15.8798V11.7629C11.2763 11.7254 11.3219 11.7068 11.3482 11.7335L11.536 11.9253C11.7429 12.1364 12.0166 12.2422 12.2905 12.2422C12.5644 12.2422 12.8384 12.1365 13.046 11.9242C13.4506 11.5107 13.4335 10.8428 13.0286 10.4298Z" fill="white"/>
<path d="M16.2292 7.1597C16.0618 4.56214 13.8959 2.5 11.2573 2.5C10.7797 2.5 10.3058 2.56798 9.84882 2.70198C8.65487 3.05264 7.63324 3.84529 6.99277 4.9051C6.62183 4.72047 6.21368 4.6241 5.79239 4.6241C4.43115 4.6241 3.29958 5.62796 3.11649 6.95101C2.47266 7.25174 1.92436 7.71807 1.52097 8.31043C1.07128 8.97105 0.833496 9.74202 0.833496 10.54C0.833496 12.6953 2.52049 14.4347 4.67425 14.4999L8.26952 14.5003V13.131C8.21609 13.1353 8.16224 13.1374 8.10825 13.1374C7.58695 13.1374 7.09683 12.9345 6.72827 12.5658C5.96737 11.805 5.96737 10.5669 6.72827 9.80595L8.8409 7.69332C9.20932 7.32461 9.69958 7.12152 10.221 7.12152C10.7293 7.12152 11.2106 7.3158 11.5762 7.66884C11.5769 7.66954 11.5821 7.67443 11.5874 7.67975L13.669 9.80329C14.4155 10.5649 14.4236 11.7973 13.6871 12.5502C13.3165 12.929 12.821 13.1374 12.2917 13.1374C12.2518 13.1374 12.2121 13.1363 12.1727 13.1339V14.5005L15.5893 14.4998C17.5954 14.428 19.1668 12.7987 19.1668 10.7904C19.1668 9.02504 17.9252 7.51862 16.2292 7.1597Z" fill="white"/>
</svg>
