<svg width="223" height="176" viewBox="0 0 223 176" fill="none" xmlns="http://www.w3.org/2000/svg">
<g opacity="0.24">
<path fill-rule="evenodd" clip-rule="evenodd" d="M0 88.6772C0 107.018 6.74953 123.73 17.8563 136.361C30.5983 150.856 49.0755 159.969 69.6715 160C78.6728 160.013 87.2796 158.28 95.1854 155.117C99.2731 153.481 103.848 153.669 107.807 155.608C112.451 157.878 117.652 159.151 123.143 159.151C125.411 159.151 127.633 158.932 129.781 158.517C135.915 157.336 141.496 154.54 146.08 150.581C148.96 148.091 152.65 146.84 156.421 146.844H156.485C168.944 146.844 180.518 142.981 190.126 136.361C198.717 130.451 205.731 122.339 210.405 112.815C214.48 104.515 216.774 95.1394 216.774 85.2163C216.774 51.1825 189.779 23.5886 156.485 23.5886C153.09 23.5886 149.765 23.8816 146.521 24.4284C137.931 10.2135 122.548 0.737305 104.999 0.737305C97.5905 0.737305 90.5666 2.42624 84.2794 5.45379C78.3002 8.32366 72.9841 12.4016 68.6354 17.3714C53.869 17.6121 40.2152 22.543 29.0401 30.7722C11.449 43.7184 0 64.8327 0 88.6772Z" fill="url(#paint0_linear_3381_35751)"/>
</g>
<g filter="url(#filter0_d_3381_35751)">
<path d="M147.2 44.3001C147.222 44.2507 147.239 44.1983 147.257 44.1459C147.201 44.2617 147.153 44.3808 147.111 44.5024C147.142 44.434 147.172 44.3671 147.2 44.3001Z" fill="url(#paint1_linear_3381_35751)"/>
<path d="M134.756 99.0294C134.704 99.6771 133.11 99.4326 133.11 99.4326C130.467 99.7993 130.904 97.2088 130.904 97.2088V97.0763L130.996 94.6604L131.022 93.9866C131.022 93.9866 133.933 92.6564 133.858 92.9358C133.831 93.0406 133.892 93.2924 133.976 93.5645C134.122 94.0171 134.33 94.5294 134.33 94.5294C134.33 94.5294 134.347 95.5977 134.26 95.912C134.173 96.2264 134.716 97.0676 134.716 97.0676C134.716 97.0676 134.716 97.12 134.724 97.2131C134.767 97.8176 134.778 98.4239 134.756 99.0294V99.0294Z" fill="#B77983"/>
<path d="M139.851 99.7294C139.851 99.7294 138.257 99.9754 138.205 99.3263C138.18 98.7194 138.19 98.1115 138.232 97.5056C138.232 97.4183 138.239 97.3601 138.239 97.3601C138.239 97.3601 138.782 96.5189 138.695 96.2045C138.608 95.8902 138.625 94.8205 138.625 94.8205C138.625 94.8205 138.682 94.6851 138.756 94.4901C138.912 94.0811 139.146 93.4175 139.098 93.2283C139.028 92.9474 141.935 94.2776 141.935 94.2776L141.964 95.0315L142.053 97.3674V97.4998C142.053 97.4998 142.495 100.098 139.851 99.7294Z" fill="#B77983"/>
<path opacity="0.05" d="M133.986 93.5645C132.892 94.8656 131.71 94.8438 131.006 94.6604L131.032 93.9866C131.032 93.9866 133.943 92.6564 133.869 92.9358C133.841 93.0406 133.896 93.2924 133.986 93.5645Z" fill="black"/>
<path opacity="0.05" d="M141.964 95.0374C140.105 96.1114 139.015 94.8525 138.762 94.496C138.917 94.087 139.152 93.4233 139.104 93.2341C139.034 92.9533 141.94 94.2835 141.94 94.2835L141.964 95.0374Z" fill="black"/>
<path opacity="0.05" d="M139.973 84.3215C139.973 84.3215 141.741 83.3027 142.127 83.7611C142.512 84.2196 139.973 84.3215 139.973 84.3215Z" fill="black"/>
<path opacity="0.05" d="M141.04 84.8817C141.04 84.8817 140.749 85.0272 141.391 85.2135C142.033 85.3998 141.04 84.8817 141.04 84.8817Z" fill="black"/>
<path opacity="0.05" d="M130.349 82.0801C130.29 82.0976 131.821 83.1134 133.203 82.2722C133.198 82.2722 130.694 81.9754 130.349 82.0801Z" fill="black"/>
<path opacity="0.05" d="M133.128 84.0231C133.128 84.0231 132.709 84.8468 131.85 84.9691C130.991 85.0913 133.128 84.0231 133.128 84.0231Z" fill="black"/>
<path opacity="0.05" d="M138.748 85.8103C138.748 85.8103 140.762 89.0121 140.377 89.7675C139.991 90.5228 138.748 85.8103 138.748 85.8103Z" fill="black"/>
<path opacity="0.05" d="M134.773 98.5419C134.773 98.7209 134.773 98.8883 134.756 99.0266C134.703 99.6742 133.11 99.4297 133.11 99.4297C131.654 99.632 131.13 98.9334 130.957 98.2654C130.903 98.0484 130.876 97.8255 130.877 97.6018C130.876 97.4684 130.885 97.3351 130.903 97.203V97.0705C131.217 96.9759 131.557 97.0454 131.808 97.2554C132.456 97.7808 133.315 97.3776 133.315 97.3776C133.315 97.3776 133.945 97.43 134.188 97.6396C134.325 97.7575 134.55 97.4737 134.722 97.203C134.732 97.3776 134.748 97.6934 134.759 98.0311C134.77 98.2043 134.773 98.3789 134.773 98.5419Z" fill="black"/>
<path opacity="0.05" d="M132.217 98.504C132.217 98.504 131.781 98.9319 130.957 98.2712C130.903 98.0542 130.876 97.8312 130.877 97.6075C131.298 97.9277 132.078 98.504 132.217 98.504Z" fill="black"/>
<path opacity="0.05" d="M134.774 98.5418C134.702 98.5972 134.61 98.6205 134.521 98.6062C134.431 98.5918 134.352 98.5412 134.301 98.4661C134.471 98.337 134.627 98.1907 134.766 98.0295C134.771 98.2042 134.774 98.3788 134.774 98.5418Z" fill="black"/>
<path opacity="0.05" d="M138.19 98.8417C138.19 99.0222 138.19 99.1896 138.206 99.3264C138.258 99.9755 139.852 99.7295 139.852 99.7295C141.307 99.9333 141.831 99.2347 142.004 98.5652C142.09 98.2178 142.108 97.8571 142.058 97.5028V97.3703C141.744 97.2774 141.404 97.3467 141.151 97.5552C140.504 98.0806 139.647 97.6774 139.647 97.6774C139.647 97.6774 139.016 97.7313 138.773 97.9409C138.637 98.0587 138.411 97.7749 138.241 97.5042C138.231 97.6789 138.213 97.9947 138.203 98.3323C138.191 98.5026 138.188 98.6773 138.19 98.8417Z" fill="black"/>
<path opacity="0.05" d="M140.744 98.8009C140.744 98.8009 141.181 99.2288 142.003 98.5681C142.058 98.3517 142.085 98.1292 142.085 97.9059C141.662 98.2246 140.882 98.8009 140.744 98.8009Z" fill="black"/>
<path opacity="0.05" d="M138.19 98.8416C138.261 98.897 138.353 98.9202 138.442 98.9059C138.531 98.8915 138.611 98.8409 138.661 98.766C138.491 98.637 138.335 98.4906 138.196 98.3293C138.191 98.5025 138.188 98.6772 138.19 98.8416Z" fill="black"/>
<g opacity="0.05">
<path d="M146.94 44.9231C146.97 44.8562 146.999 44.7892 147.027 44.7237C147.055 44.6582 147.065 44.6219 147.081 44.5695C147.027 44.6846 146.98 44.8027 146.94 44.9231Z" fill="black"/>
</g>
<path fill-rule="evenodd" clip-rule="evenodd" d="M68.0693 129.231C67.7166 128.807 67.5549 128.255 67.6225 127.707L74.0465 75.1438L74.5792 70.7777C74.7026 69.773 75.5521 69.0158 76.5643 69.008L95.3808 68.8828C95.922 68.8795 96.4392 68.6583 96.8154 68.2692C97.1917 67.8801 97.3953 67.3558 97.3805 66.8147L97.3732 66.6153C97.3546 66.0696 97.5584 65.5398 97.9379 65.1472C98.3173 64.7545 98.8399 64.5328 99.386 64.5327H119.159C120.269 64.5327 121.169 65.4312 121.171 66.5411C121.171 66.6316 121.165 66.722 121.154 66.8118C121.078 67.3783 121.247 67.9503 121.618 68.3851C121.989 68.82 122.527 69.0766 123.098 69.0909L142.088 69.5756C142.672 69.5899 143.221 69.8577 143.592 70.3093C143.964 70.7608 144.12 71.3515 144.021 71.9275L134.527 127.377L134.348 128.425C134.304 128.693 134.205 128.948 134.057 129.176L68.0693 129.231Z" fill="#404EED"/>
<rect x="125.375" y="53.3966" width="11.119" height="37.7392" transform="rotate(34.64 125.375 53.3966)" fill="#F9FAFB"/>
<rect width="7.84983" height="7.84983" transform="matrix(0.821109 0.570772 -0.57077 0.82111 126.035 54.8678)" fill="#FFC107"/>
<rect opacity="0.5" x="120.984" y="62.6353" width="7.86045" height="7.86046" transform="rotate(34.64 120.984 62.6353)" fill="#FFC107"/>
<rect opacity="0.3" width="7.86046" height="7.86046" transform="matrix(0.822739 0.568419 -0.568418 0.82274 115.59 70.4431)" fill="#FFC107"/>
<rect x="112.451" y="51.452" width="11.119" height="37.5966" transform="rotate(16.29 112.451 51.452)" fill="#F9FAFB"/>
<rect x="113.852" y="52.4938" width="7.86046" height="7.86045" transform="rotate(16.29 113.852 52.4938)" fill="#FF4842"/>
<rect opacity="0.5" x="111.189" y="61.6024" width="7.86046" height="7.86046" transform="rotate(16.29 111.189 61.6024)" fill="#FF4842"/>
<rect opacity="0.3" x="108.527" y="70.7097" width="7.86046" height="7.86047" transform="rotate(16.29 108.527 70.7097)" fill="#FF4842"/>
<rect x="104.891" y="52.021" width="11.119" height="37.5966" transform="rotate(4.6 104.891 52.021)" fill="#F9FAFB"/>
<rect x="106.467" y="52.7581" width="7.86045" height="7.86046" transform="rotate(4.6 106.467 52.7581)" fill="#2F80ED"/>
<rect opacity="0.5" x="105.705" y="62.2152" width="7.86045" height="7.86046" transform="rotate(4.59999 105.705 62.2152)" fill="#2F80ED"/>
<rect opacity="0.3" x="104.945" y="71.6754" width="7.86046" height="7.86046" transform="rotate(4.6 104.945 71.6754)" fill="#2F80ED"/>
<rect x="99.9043" y="53.5278" width="11.119" height="37.5966" transform="rotate(-2.61 99.9043 53.5278)" fill="white"/>
<rect x="101.561" y="54.0588" width="7.86045" height="7.86045" transform="rotate(-2.61 101.561 54.0588)" fill="#2F80ED"/>
<rect opacity="0.5" x="102.301" y="63.238" width="7.87028" height="7.87029" transform="rotate(-2.8624 102.301 63.238)" fill="#2F80ED"/>
<rect opacity="0.3" x="102.424" y="73.0187" width="7.86045" height="7.86045" transform="rotate(-2.61 102.424 73.0187)" fill="#2F80ED"/>
<path d="M104.621 103.074L94.7419 106.896L80.3031 112.477C79.7574 111.458 78.954 110.082 77.96 108.438C74.5399 102.771 68.8814 93.956 63.8429 86.2091C58.1669 77.4769 53.2812 70.1083 53.2812 70.1083L56.8178 69.0896L85.7069 60.7023L104.621 103.074Z" fill="#E6ECF8"/>
<path opacity="0.1" d="M104.62 103.074L94.741 106.896C89.2222 108.045 83.5905 108.563 77.9547 108.438C74.5346 102.771 68.8761 93.956 63.8376 86.2091L56.8184 69.0837L85.706 60.7023L104.62 103.074Z" fill="black"/>
<path d="M111.97 100.696C111.97 100.696 96.6231 109.774 73.7097 107.721L55.4434 63.1866L64.1974 61.6817L94.4604 56.4846L111.634 99.8299L111.97 100.696Z" fill="#404EED"/>
<path opacity="0.1" d="M111.628 99.8357C108.014 100.013 103.833 99.9958 99.6268 99.4937C95.0744 98.9581 90.4958 97.8549 86.5707 95.8319C83.2888 94.1423 80.4829 92.3041 78.0364 90.0992C71.6721 84.3753 67.7338 76.1873 64.1973 61.6875L94.4603 56.4904L111.628 99.8357Z" fill="black"/>
<path d="M122.887 97.3456C122.887 97.3456 111.575 99.5607 100.06 98.197C95.5074 97.6614 90.9289 96.5582 87.0037 94.5353C83.7219 92.8456 80.9174 91.0074 78.4694 88.8026C70.593 81.7164 66.4335 70.8564 62.1445 48.9254C62.1445 48.9254 80.9508 53.4647 99.5476 43.5216C99.5417 43.5289 105.81 82.6463 122.887 97.3456Z" fill="white"/>
<path opacity="0.1" d="M100.059 98.197C95.5068 97.6614 90.9282 96.5582 87.003 94.5353C83.7212 92.8456 80.9167 91.0074 78.4688 88.8026C85.1751 88.2582 86.1386 84.5922 86.1386 84.5922C91.1101 92.4817 100.059 98.197 100.059 98.197Z" fill="black"/>
<path opacity="0.3" d="M71.8711 56.9765C71.8711 56.9765 87.1641 56.112 91.4342 52.8156L92.0818 54.8967C92.0818 54.8967 81.9772 59.3545 71.8711 59.4084V56.9765Z" fill="#2F80ED"/>
<path opacity="0.3" d="M71.8711 67.2514C71.8711 67.2514 86.678 66.4408 97.8655 61.037L98.2439 61.9015C98.2439 61.9015 89.3661 67.0841 71.8711 68.4405L71.8711 67.2514Z" fill="#2F80ED"/>
<path opacity="0.3" d="M73.0645 71.2551C73.0645 71.2551 87.8714 70.4444 99.0574 65.0406L99.4358 65.9051C99.4358 65.9051 90.558 71.0863 73.0645 72.4441L73.0645 71.2551Z" fill="#2F80ED"/>
<path opacity="0.3" d="M74.2539 75.2647C74.2539 75.2647 89.0608 74.4541 100.248 69.0503L100.625 69.9148C100.625 69.9148 91.7475 75.0974 74.2539 76.4538L74.2539 75.2647Z" fill="#2F80ED"/>
<path opacity="0.3" d="M75.4473 79.2742C75.4473 79.2742 90.2542 78.4636 101.44 73.0598L101.819 73.9243C101.819 73.9243 92.9408 79.1069 75.4473 80.4633L75.4473 79.2742Z" fill="#2F80ED"/>
<path opacity="0.3" d="M76.6367 83.2852C76.6367 83.2852 91.4437 82.4746 102.631 77.0708L103.008 77.9353C103.008 77.9353 94.1303 83.1164 76.6367 84.4743V83.2852Z" fill="#2F80ED"/>
<path d="M180.75 133.069C180.75 133.069 174.596 132.698 175.321 137.01C175.321 137.01 175.176 137.771 175.868 138.118C175.868 138.118 175.878 137.798 176.498 137.907C176.72 137.944 176.944 137.955 177.168 137.939C177.47 137.918 177.756 137.8 177.984 137.601V137.601C177.984 137.601 179.715 136.886 180.387 134.06C180.387 134.06 180.885 133.443 180.865 133.284L179.827 133.721C179.827 133.721 180.182 134.471 179.903 135.092C179.903 135.092 179.869 133.749 179.67 133.782C179.629 133.782 179.13 134.041 179.13 134.041C179.13 134.041 179.74 135.351 179.275 136.294C179.275 136.294 179.45 134.686 178.935 134.136L178.207 134.562C178.207 134.562 178.92 135.91 178.437 137.01C178.437 137.01 178.561 135.323 178.053 134.666L177.391 135.182C177.391 135.182 178.062 136.511 177.653 137.424C177.653 137.424 177.599 135.459 177.247 135.31C177.247 135.31 176.664 135.821 176.58 136.038C176.58 136.038 177.038 137.001 176.753 137.511C176.753 137.511 176.579 136.201 176.436 136.201C176.436 136.201 175.854 137.074 175.798 137.656C175.798 137.656 175.823 136.772 176.296 136.112C175.963 136.176 175.655 136.335 175.411 136.571C175.411 136.571 175.502 135.956 176.439 135.904C176.439 135.904 176.916 135.246 177.043 135.206C177.043 135.206 176.111 135.128 175.547 135.379C175.547 135.379 176.044 134.797 177.215 135.063L177.868 134.53C177.868 134.53 176.641 134.361 176.122 134.548C176.122 134.548 176.72 134.035 178.044 134.402L178.756 133.977C178.756 133.977 177.711 133.752 177.088 133.832C177.088 133.832 177.744 133.477 178.965 133.861L179.473 133.632C179.473 133.632 178.708 133.487 178.484 133.458C178.259 133.429 178.246 133.373 178.246 133.373C178.732 133.291 179.23 133.347 179.686 133.533C179.686 133.533 180.767 133.137 180.75 133.069Z" fill="#2F80ED"/>
<ellipse opacity="0.1" cx="176.511" cy="138.493" rx="4.35447" ry="0.736427" fill="#2F80ED"/>
<path d="M183.616 118.834C183.616 118.834 180.148 118.625 180.559 121.056C180.516 121.309 180.64 121.561 180.866 121.681C180.866 121.681 180.874 121.5 181.223 121.561C181.348 121.582 181.474 121.588 181.6 121.579C181.77 121.568 181.931 121.501 182.06 121.39V121.39C182.06 121.39 183.035 120.987 183.415 119.393C183.415 119.393 183.696 119.045 183.684 118.956L183.102 119.205C183.102 119.205 183.301 119.629 183.144 119.98C183.144 119.98 183.125 119.221 183.013 119.239C182.99 119.239 182.709 119.384 182.709 119.384C182.709 119.384 183.052 120.112 182.793 120.655C182.793 120.655 182.892 119.748 182.601 119.437L182.189 119.678C182.189 119.678 182.591 120.438 182.319 121.058C182.319 121.058 182.389 120.106 182.102 119.736L181.729 120.028C181.729 120.028 182.106 120.777 181.875 121.291C181.875 121.291 181.844 120.183 181.647 120.1C181.505 120.22 181.379 120.356 181.27 120.506C181.27 120.506 181.529 121.051 181.369 121.337C181.369 121.337 181.27 120.599 181.19 120.597C181.19 120.597 180.864 121.084 180.83 121.419C180.846 121.108 180.943 120.807 181.111 120.546C180.923 120.581 180.749 120.671 180.612 120.805C180.612 120.805 180.663 120.458 181.194 120.429C181.194 120.429 181.463 120.058 181.534 120.035C181.534 120.035 181.009 119.991 180.69 120.132C180.69 120.132 180.971 119.806 181.631 119.955L182 119.653C182 119.653 181.307 119.559 181.015 119.664C181.015 119.664 181.353 119.373 182.099 119.585L182.501 119.345C182.192 119.277 181.875 119.25 181.559 119.265C181.559 119.265 181.93 119.064 182.617 119.281L182.908 119.153C182.908 119.153 182.472 119.067 182.349 119.054C182.227 119.041 182.216 119.006 182.216 119.006C182.489 118.96 182.771 118.992 183.028 119.096C183.028 119.096 183.627 118.872 183.616 118.834Z" fill="#2F80ED"/>
<ellipse opacity="0.1" cx="181.229" cy="121.892" rx="2.45521" ry="0.414783" fill="#2F80ED"/>
<path d="M163.141 120.944C163.141 120.944 158.952 120.691 159.447 123.627C159.394 123.932 159.544 124.236 159.818 124.381C159.818 124.381 159.818 124.162 160.255 124.235C160.405 124.26 160.558 124.268 160.71 124.257C160.916 124.243 161.111 124.162 161.266 124.027V124.027C161.266 124.027 162.443 123.541 162.902 121.617C162.902 121.617 163.241 121.198 163.226 121.089L162.512 121.391C162.512 121.391 162.753 121.901 162.563 122.324C162.563 122.324 162.54 121.41 162.404 121.431C162.377 121.431 162.037 121.608 162.037 121.608C162.037 121.608 162.452 122.496 162.139 123.142C162.139 123.142 162.259 122.048 161.908 121.672L161.41 121.963C161.41 121.963 161.895 122.882 161.566 123.63C161.566 123.63 161.65 122.481 161.305 122.029L160.854 122.381C160.854 122.381 161.311 123.285 161.032 123.906C161.032 123.906 160.997 122.569 160.757 122.468C160.757 122.468 160.362 122.816 160.303 122.959C160.303 122.959 160.614 123.615 160.421 123.961C160.421 123.961 160.301 123.071 160.204 123.066C160.204 123.066 159.812 123.657 159.767 124.06C159.787 123.687 159.904 123.324 160.106 123.01C159.879 123.053 159.671 123.162 159.505 123.323C159.505 123.323 159.566 122.905 160.204 122.868C160.204 122.868 160.528 122.42 160.616 122.394C160.616 122.394 159.981 122.34 159.597 122.51C159.597 122.51 159.934 122.117 160.731 122.296L161.176 121.933C161.176 121.933 160.342 121.819 159.987 121.944C159.987 121.944 160.394 121.596 161.297 121.851L161.781 121.56C161.781 121.56 161.07 121.407 160.645 121.463C160.645 121.463 161.093 121.221 161.922 121.483L162.269 121.327C162.269 121.327 161.748 121.225 161.595 121.209C161.442 121.193 161.435 121.151 161.435 121.151C161.765 121.095 162.104 121.132 162.414 121.259C162.414 121.259 163.154 120.99 163.141 120.944Z" fill="#2F80ED"/>
<ellipse opacity="0.1" cx="160.258" cy="124.637" rx="2.96459" ry="0.500648" fill="#2F80ED"/>
<rect x="126.746" y="54.0481" width="24.8388" height="44.4499" rx="4.73723" transform="rotate(-71.99 126.746 54.0481)" fill="white"/>
<g opacity="0.2">
<ellipse cx="139.15" cy="43.5786" rx="4.56405" ry="4.56404" fill="#2F80ED"/>
</g>
<g opacity="0.2">
<rect x="150.07" y="42.757" width="1.25016" height="19.8847" transform="rotate(-71.99 150.07 42.757)" fill="#2F80ED"/>
</g>
<g opacity="0.2">
<rect x="149.084" y="45.7881" width="1.25016" height="10.1294" transform="rotate(-71.99 149.084 45.7881)" fill="#2F80ED"/>
</g>
<g opacity="0.2">
<rect x="148.098" y="48.8213" width="1.25016" height="16.3831" transform="rotate(-71.99 148.098 48.8213)" fill="#2F80ED"/>
</g>
<g opacity="0.2">
<rect x="147.111" y="51.8531" width="1.25016" height="19.8847" transform="rotate(-71.99 147.111 51.8531)" fill="#2F80ED"/>
</g>
<g opacity="0.5">
<rect x="159.006" y="61.7878" width="2.41737" height="5.50276" transform="rotate(-71.99 159.006 61.7878)" fill="#2F80ED"/>
</g>
<rect x="122.869" y="97.1815" width="24.4857" height="38.118" rx="4" transform="rotate(-57.2648 122.869 97.1815)" fill="white"/>
<rect width="6.92757" height="1.63002" transform="matrix(0.53627 -0.844046 0.844048 0.536268 127.619 95.7449)" fill="#DFE3E8"/>
<rect x="132.018" y="96.9293" width="15.2144" height="1.49467" transform="rotate(-57.57 132.018 96.9293)" fill="#DFE3E8"/>
<rect x="134.713" y="98.64" width="15.2144" height="1.49467" transform="rotate(-57.57 134.713 98.64)" fill="#DFE3E8"/>
<rect x="137.406" y="100.354" width="15.2145" height="1.49467" transform="rotate(-57.57 137.406 100.354)" fill="#DFE3E8"/>
<rect x="140.195" y="102.836" width="15.1931" height="1.49257" transform="rotate(-57.2648 140.195 102.836)" fill="#DFE3E8"/>
<rect x="142.795" y="103.777" width="15.2144" height="1.49467" transform="rotate(-57.57 142.795 103.777)" fill="#F0F0F0"/>
<rect x="145.49" y="105.488" width="15.2144" height="1.49467" transform="rotate(-57.57 145.49 105.488)" fill="#F0F0F0"/>
<rect x="156.805" y="98.1929" width="3.93969" height="3.93969" transform="rotate(-57.57 156.805 98.1929)" fill="#DFE3E8"/>
<path d="M122.436 75.3432L100.158 75.5834C99.3237 75.5921 98.6521 76.2702 98.6513 77.1042V78.9453C98.6508 79.7709 97.9922 80.4456 97.1669 80.4661L81.0908 80.8518C80.3897 80.8694 79.7675 80.4053 79.5845 79.7282L78.8292 76.9529C78.648 76.2833 78.0368 75.8212 77.3433 75.8293L55.8693 76.0607C55.424 76.0651 55.003 76.2644 54.7174 76.606C54.4317 76.9476 54.3102 77.3973 54.3848 77.8363L63.0239 128.681C63.1477 129.411 63.7784 129.946 64.5185 129.949L132.359 130.24C132.814 130.241 133.245 130.04 133.536 129.69C133.826 129.34 133.945 128.879 133.86 128.432L123.946 76.5788C123.808 75.8561 123.172 75.3358 122.436 75.3432V75.3432Z" fill="#404EED"/>
<ellipse opacity="0.1" cx="49.572" cy="119.108" rx="2.35915" ry="0.324547" fill="#2F80ED"/>
<ellipse opacity="0.1" cx="40.5349" cy="120.023" rx="2.35916" ry="0.324554" fill="#2F80ED"/>
<ellipse opacity="0.1" cx="44.1512" cy="122.633" rx="1.67659" ry="0.229954" fill="#2F80ED"/>
<ellipse opacity="0.1" cx="34.7723" cy="122.403" rx="1.67659" ry="0.229954" fill="#2F80ED"/>
<path d="M40.4848 119.952C40.4848 119.952 43.7928 109.106 39.9666 104.762C37.1039 101.512 33.8541 101.901 32.3987 102.303C31.6371 102.506 31.003 103.033 30.6639 103.745C30.1545 104.842 30.2462 106.624 33.8381 108.703C39.8502 112.185 40.2242 116.96 40.2242 116.96L40.4848 119.952Z" fill="#2F80ED"/>
<path d="M32.918 103.841C32.918 103.841 42.669 106.897 40.4859 119.952" stroke="#404EED" stroke-width="0.5" stroke-linecap="round"/>
<path d="M38.6148 104.934C38.6148 104.934 37.2715 105.839 37.6994 107.2" stroke="#404EED" stroke-width="0.5" stroke-linecap="round"/>
<path d="M33.8965 105.74C33.8965 105.74 34.7173 104.905 35.7171 105.366" stroke="#404EED" stroke-width="0.5" stroke-linecap="round"/>
<path d="M37.75 109.94C37.75 109.94 39.1923 109.213 39.5648 110.125" stroke="#404EED" stroke-width="0.5" stroke-linecap="round"/>
<path d="M41.3185 111.464C41.3185 111.464 40.2357 111.378 40.2168 111.901" stroke="#404EED" stroke-width="0.5" stroke-linecap="round"/>
<path d="M40.6181 120.038C40.6181 120.038 36.7424 112.155 35.6786 112.324C35.1735 112.407 34.9407 112.906 34.8344 113.404C34.7038 114.05 34.7776 114.72 35.0455 115.322C35.5956 116.588 37.0728 118.983 40.6181 120.038Z" fill="#2F80ED"/>
<path d="M35.707 113.823C35.707 113.823 39.7733 119.72 40.5592 119.979" stroke="#404EED" stroke-width="0.5" stroke-linecap="round"/>
<path d="M35.334 114.745H36.2829" stroke="#404EED" stroke-width="0.5" stroke-linecap="round"/>
<path d="M36.4707 116.901L37.9595 116.965" stroke="#404EED" stroke-width="0.5" stroke-linecap="round"/>
<path d="M37.3764 115.175L37.2148 115.951" stroke="#404EED" stroke-width="0.5" stroke-linecap="round"/>
<path d="M38.9584 117.534L38.9293 118.239" stroke="#404EED" stroke-width="0.5" stroke-linecap="round"/>
<path d="M40.502 120.038C40.502 120.038 44.3762 112.155 45.44 112.324C45.9465 112.407 46.1794 112.906 46.2841 113.404C46.4148 114.05 46.341 114.72 46.0731 115.322C45.523 116.588 44.0443 118.983 40.502 120.038Z" fill="#2F80ED"/>
<path d="M45.4142 113.823C45.4142 113.823 41.3392 119.72 40.5605 119.979" stroke="#404EED" stroke-width="0.5" stroke-linecap="round"/>
<path d="M45.7868 114.745H44.8379" stroke="#404EED" stroke-width="0.5" stroke-linecap="round"/>
<path d="M44.651 116.901L43.1621 116.965" stroke="#404EED" stroke-width="0.5" stroke-linecap="round"/>
<path d="M43.7441 115.175L43.9057 115.951" stroke="#404EED" stroke-width="0.5" stroke-linecap="round"/>
<path d="M42.1617 117.534L42.1908 118.239" stroke="#404EED" stroke-width="0.5" stroke-linecap="round"/>
<path d="M33.8493 121.879C33.7438 121.793 33.6672 121.676 33.6295 121.546C33.5924 121.41 33.6573 121.267 33.7838 121.206C33.9293 121.153 34.0749 121.25 34.1913 121.352C34.3077 121.454 34.4402 121.562 34.5857 121.537C34.4286 121.394 34.3578 121.18 34.3994 120.972C34.4054 120.93 34.423 120.89 34.4504 120.857C34.5289 120.773 34.6716 120.809 34.7662 120.876C35.0572 121.086 35.1489 121.492 35.1504 121.858C35.165 121.724 35.165 121.588 35.1504 121.454C35.1426 121.316 35.2037 121.184 35.3134 121.1C35.3842 121.061 35.4641 121.042 35.5448 121.045C35.68 121.026 35.8171 121.065 35.9217 121.153C36.0237 121.291 36.0177 121.482 35.9072 121.614C35.7957 121.739 35.6638 121.844 35.5171 121.925C35.4058 121.992 35.3109 122.083 35.2392 122.192C35.2304 122.206 35.2235 122.222 35.2188 122.238H34.3718C34.1822 122.143 34.0064 122.022 33.8493 121.879Z" fill="#2F80ED"/>
<path d="M48.6131 118.703C48.5074 118.618 48.4307 118.502 48.3934 118.371C48.356 118.236 48.4203 118.094 48.5462 118.032C48.6917 117.978 48.8373 118.076 48.9537 118.178C49.0701 118.28 49.2011 118.39 49.351 118.368C49.1939 118.227 49.1226 118.013 49.1633 117.805C49.1697 117.763 49.1879 117.723 49.2157 117.69C49.2942 117.606 49.4369 117.642 49.5315 117.708C49.8298 117.919 49.9142 118.325 49.9157 118.692C49.9303 118.557 49.9303 118.42 49.9157 118.285C49.9025 118.149 49.9569 118.016 50.0612 117.927C50.1324 117.89 50.2121 117.871 50.2926 117.874C50.4276 117.855 50.5644 117.893 50.6696 117.98C50.7719 118.119 50.7652 118.311 50.6536 118.443C50.5429 118.568 50.4114 118.673 50.265 118.754C50.1536 118.82 50.0586 118.911 49.987 119.019C49.9785 119.034 49.9716 119.05 49.9666 119.067H49.1385C48.9475 118.97 48.7707 118.848 48.6131 118.703V118.703Z" fill="#2F80ED"/>
<path d="M43.6925 121.879C43.5872 121.792 43.5101 121.676 43.4713 121.545C43.4342 121.41 43.4991 121.267 43.6256 121.206C43.7711 121.152 43.9167 121.25 44.0331 121.352C44.1495 121.454 44.2791 121.564 44.4304 121.544C44.2735 121.401 44.2023 121.187 44.2427 120.979C44.2491 120.937 44.2673 120.897 44.2951 120.864C44.3737 120.78 44.5163 120.816 44.6109 120.883C44.9092 121.093 44.9922 121.499 44.9951 121.866C45.0097 121.731 45.0097 121.595 44.9951 121.461C44.9837 121.324 45.0409 121.19 45.1479 121.103C45.2187 121.064 45.2986 121.045 45.3793 121.048C45.5146 121.029 45.6516 121.068 45.7563 121.155C45.8583 121.294 45.8517 121.485 45.7403 121.617C45.6293 121.742 45.4979 121.847 45.3517 121.928C45.2403 121.995 45.1454 122.086 45.0737 122.195C45.0649 122.209 45.058 122.225 45.0533 122.241H44.2092C44.0216 122.144 43.8479 122.022 43.6925 121.879V121.879Z" fill="#2F80ED"/>
<circle opacity="0.1" cx="32.4722" cy="35.5447" r="3.14797" fill="#2F80ED"/>
<ellipse opacity="0.1" cx="183.843" cy="60.7008" rx="3.14796" ry="3.14797" fill="#2F80ED"/>
<ellipse opacity="0.1" cx="127.255" cy="25.5477" rx="3.14797" ry="3.14797" fill="#2F80ED"/>
<ellipse opacity="0.1" cx="38.7679" cy="52.9116" rx="5.27572" ry="5.27572" fill="#2F80ED"/>
<path fill-rule="evenodd" clip-rule="evenodd" d="M91.6466 95.375C87.7644 95.375 84.6172 98.5222 84.6172 102.404C84.6172 106.287 87.7644 109.434 91.6466 109.434C95.5289 109.434 98.6761 106.287 98.6761 102.404C98.6761 98.5222 95.5289 95.375 91.6466 95.375V95.375Z" fill="#404EED"/>
<path opacity="0.72" fill-rule="evenodd" clip-rule="evenodd" d="M91.6473 96.1926C95.0779 96.1926 97.859 98.9737 97.859 102.404C97.859 105.835 95.0779 108.616 91.6473 108.616C88.2166 108.616 85.4355 105.835 85.4355 102.404C85.4386 98.975 88.2179 96.1956 91.6473 96.1926" fill="#2F80ED"/>
<path fill-rule="evenodd" clip-rule="evenodd" d="M88.7402 102.918L88.4003 102.586C88.3268 102.519 88.2852 102.425 88.2852 102.327C88.2852 102.229 88.3268 102.135 88.4003 102.068L91.3827 99.1548C91.4515 99.0832 91.5476 99.0425 91.6483 99.0425C91.7489 99.0425 91.845 99.0832 91.9138 99.1548L94.8962 102.065C94.9683 102.133 95.009 102.227 95.009 102.325C95.009 102.422 94.9683 102.516 94.8962 102.584L94.5563 102.915C94.4867 102.986 94.3909 103.025 94.2907 103.025C94.1906 103.025 94.0947 102.986 94.0251 102.915L92.2617 101.101V105.406C92.2624 105.501 92.2241 105.593 92.1553 105.661C92.0865 105.728 91.9929 105.766 91.8952 105.766H91.4039C91.2001 105.766 91.0348 105.605 91.0348 105.406V101.106L89.2714 102.921C89.2015 102.991 89.1054 103.03 89.0052 103.029C88.9051 103.029 88.8094 102.989 88.7402 102.918V102.918Z" fill="#404EED"/>
</g>
<defs>
<filter id="filter0_d_3381_35751" x="17.3242" y="10.3998" width="205.668" height="164.83" filterUnits="userSpaceOnUse" color-interpolation-filters="sRGB">
<feFlood flood-opacity="0" result="BackgroundImageFix"/>
<feColorMatrix in="SourceAlpha" type="matrix" values="0 0 0 0 0 0 0 0 0 0 0 0 0 0 0 0 0 0 127 0" result="hardAlpha"/>
<feOffset dx="12" dy="12"/>
<feGaussianBlur stdDeviation="12"/>
<feColorMatrix type="matrix" values="0 0 0 0 0 0 0 0 0 0.321569 0 0 0 0 0.286275 0 0 0 0.32 0"/>
<feBlend mode="normal" in2="BackgroundImageFix" result="effect1_dropShadow_3381_35751"/>
<feBlend mode="normal" in="SourceGraphic" in2="effect1_dropShadow_3381_35751" result="shape"/>
</filter>
<linearGradient id="paint0_linear_3381_35751" x1="148.495" y1="188.328" x2="225.532" y2="11.083" gradientUnits="userSpaceOnUse">
<stop stop-color="#0E4DA4"/>
<stop offset="1" stop-color="#00AB55" stop-opacity="0.01"/>
</linearGradient>
<linearGradient id="paint1_linear_3381_35751" x1="147.257" y1="44.5024" x2="147.257" y2="44.1459" gradientUnits="userSpaceOnUse">
<stop stop-color="#808080" stop-opacity="0.25"/>
<stop offset="0.54" stop-color="#808080" stop-opacity="0.12"/>
<stop offset="1" stop-color="#808080" stop-opacity="0.1"/>
</linearGradient>
</defs>
</svg>
