<svg width="24" height="24" viewBox="0 0 24 24" fill="none" xmlns="http://www.w3.org/2000/svg">
<path d="M23.5738 5.05453C23.5523 5.03017 23.5231 5.00397 23.4887 4.9746C23.4532 4.94669 23.412 4.91617 23.3644 4.88697C23.2695 4.82802 23.1512 4.77143 23.0205 4.72245C22.8896 4.67374 22.7465 4.63178 22.6018 4.59711C22.3124 4.52716 22.0174 4.4864 21.7953 4.46324C21.7625 4.45982 21.732 4.45682 21.7027 4.45421C22.1888 4.14045 22.5114 3.66535 22.421 2.9506C22.4164 4.90889 19.6179 4.75234 17.9529 4.6832C19.6086 4.0083 21.2512 3.29346 22.3737 1.99226C21.8834 2.45683 21.305 2.81365 20.6778 3.11139C20.6786 3.10852 20.6795 3.10613 20.6802 3.1033C20.6915 3.0649 20.6977 3.02273 20.707 2.98039C20.7127 2.93703 20.7209 2.89302 20.7237 2.84743C20.7267 2.80196 20.7305 2.75628 20.7284 2.71001C20.729 2.66416 20.7254 2.61844 20.72 2.57379C20.7172 2.52914 20.7068 2.4859 20.6987 2.44437C20.6922 2.40259 20.6779 2.3638 20.6668 2.32712C20.6569 2.29004 20.643 2.25652 20.6291 2.226C20.6154 2.1956 20.6051 2.16705 20.5921 2.14359C20.5788 2.1203 20.5673 2.09997 20.5577 2.08319C20.5389 2.05005 20.528 2.03117 20.528 2.03117C20.528 2.03117 20.5346 2.05189 20.5466 2.08828C20.5524 2.10622 20.5596 2.12809 20.5677 2.15314C20.5757 2.17814 20.5799 2.20789 20.5868 2.23906C20.594 2.27035 20.6004 2.3043 20.6025 2.34099C20.6055 2.37742 20.6116 2.415 20.6095 2.45482C20.609 2.49437 20.6104 2.53457 20.6045 2.57546C20.6012 2.61634 20.5961 2.65735 20.5869 2.69781C20.5807 2.73839 20.5688 2.7782 20.558 2.81703C20.5476 2.85595 20.5322 2.89285 20.5198 2.92877C20.504 2.96387 20.4917 2.99833 20.4751 3.02924C20.4599 3.06066 20.4446 3.08964 20.4291 3.11559C20.3992 3.16799 20.3709 3.209 20.3508 3.23597C20.3404 3.25001 20.333 3.25943 20.3282 3.26465C20.3254 3.26808 20.3231 3.27082 20.3217 3.27253C17.9265 4.30189 14.9489 4.61838 13.3553 6.60407C13.5705 5.96569 13.901 5.35407 14.0912 4.65743C14.0957 4.65362 14.1004 4.64998 14.1045 4.64535C14.1111 4.63816 14.1167 4.63054 14.1214 4.62258L14.1225 4.62074C14.1225 4.62074 14.125 4.61654 14.1296 4.60884C14.1328 4.60267 14.1391 4.59244 14.1488 4.57793C14.1674 4.54976 14.1963 4.50926 14.2355 4.46328C14.2547 4.43999 14.2768 4.41559 14.3011 4.39072C14.3244 4.36452 14.3527 4.34132 14.3804 4.31448C14.41 4.29076 14.4396 4.26366 14.4726 4.24072C14.5055 4.21738 14.5387 4.19277 14.5749 4.17299C14.6099 4.1506 14.6469 4.13185 14.6841 4.11498C14.7206 4.09559 14.7588 4.08313 14.7959 4.06939C14.8325 4.05406 14.87 4.04687 14.9053 4.03728C14.9405 4.02679 14.9746 4.0214 15.0066 4.0175C15.0384 4.01357 15.0677 4.00727 15.0939 4.00637C15.1203 4.00548 15.1432 4.00479 15.162 4.00415C15.2001 4.00299 15.222 4.00231 15.222 4.00231C15.222 4.00231 15.2005 3.99867 15.1629 3.99208C15.1439 3.98882 15.1209 3.98476 15.0944 3.9803C15.0678 3.97585 15.0376 3.97598 15.0043 3.97337C14.9709 3.97063 14.9347 3.96904 14.8964 3.97221C14.858 3.97444 14.8168 3.97418 14.7752 3.98202C14.7334 3.98844 14.6893 3.9934 14.6463 4.00586C14.6024 4.01584 14.5582 4.02799 14.5153 4.04413C14.4712 4.05787 14.4294 4.07688 14.3877 4.09525C14.3458 4.11318 14.3071 4.13596 14.2683 4.15599C14.2417 4.17278 14.2152 4.18849 14.1899 4.20458C14.2986 3.53504 14.2478 2.77632 13.8453 1.84375C14.2012 2.92384 14.131 3.74232 13.8916 4.45506C13.8658 4.4843 13.854 4.52099 13.8559 4.55712C13.5294 5.45733 12.9462 6.19695 12.6411 7.1002C12.6347 7.08855 12.6285 7.07742 12.6216 7.06522C12.571 6.98007 12.5099 6.88238 12.4337 6.78503C12.4147 6.7608 12.3955 6.73606 12.3759 6.71101C12.3547 6.6873 12.3333 6.66332 12.3115 6.63909C12.2701 6.58956 12.219 6.54624 12.1719 6.50077C12.1225 6.45741 12.0691 6.41785 12.0172 6.37975C11.9604 6.34764 11.9097 6.30903 11.8523 6.2857C11.7949 6.26292 11.7437 6.23278 11.6878 6.22217C11.6608 6.2151 11.6344 6.20817 11.609 6.20136C11.5965 6.19807 11.584 6.19481 11.5718 6.19164C11.5593 6.19049 11.5468 6.18929 11.5348 6.18809C11.4868 6.18364 11.4429 6.17957 11.4039 6.17589C11.3649 6.17722 11.331 6.18116 11.3034 6.18283C11.2483 6.18715 11.2169 6.18963 11.2169 6.18963C11.2169 6.18963 11.2483 6.1916 11.3034 6.19498C11.3308 6.19708 11.3641 6.19798 11.4017 6.20196C11.4385 6.21074 11.48 6.22054 11.5253 6.23129C11.5366 6.2339 11.548 6.23664 11.5597 6.23942C11.5708 6.24413 11.5821 6.24884 11.5936 6.25368C11.6164 6.26339 11.6401 6.27333 11.6643 6.28356C11.7141 6.30004 11.7587 6.33596 11.8078 6.36374C11.8569 6.39191 11.8989 6.4351 11.9458 6.47064C11.9884 6.51255 12.0314 6.55484 12.0707 6.60061C12.1077 6.64881 12.1479 6.69308 12.1794 6.74428C12.1959 6.76889 12.2124 6.79338 12.2287 6.81752C12.2431 6.84278 12.2576 6.86795 12.2716 6.89257C12.3282 6.99069 12.3713 7.08787 12.4061 7.17122C12.4394 7.25547 12.4645 7.32645 12.479 7.37624C12.4941 7.42508 12.4998 7.45128 12.5006 7.45299C12.5066 7.47093 12.5158 7.48681 12.5274 7.50026C12.5272 7.50081 12.5271 7.50115 12.5269 7.50171C12.1917 9.0075 12.5196 10.9616 12.394 12.6019C12.057 11.6442 11.3362 10.749 10.9893 9.79246C10.9914 9.75342 10.9785 9.71374 10.9508 9.68231C10.6923 8.91259 10.6165 8.02883 11.0007 6.86256C10.5661 7.86945 10.5113 8.68883 10.6287 9.41167C10.6014 9.39412 10.5727 9.37721 10.5439 9.35914C10.5019 9.33752 10.4603 9.31304 10.415 9.29352C10.37 9.27374 10.3249 9.25319 10.2772 9.23838C10.2309 9.22083 10.1832 9.20785 10.1357 9.19698C10.0893 9.18362 10.0417 9.17814 9.99648 9.17117C9.9517 9.16252 9.90701 9.1629 9.86561 9.16055C9.82421 9.15712 9.78505 9.15884 9.74917 9.16188C9.71325 9.16474 9.6805 9.16462 9.65182 9.16932C9.62327 9.17429 9.59835 9.17849 9.5778 9.18217C9.53735 9.18923 9.51402 9.1933 9.51402 9.1933C9.51402 9.1933 9.5376 9.19407 9.5787 9.1954C9.59916 9.19604 9.62391 9.19685 9.65233 9.19775C9.68063 9.19878 9.71235 9.20546 9.74669 9.20978C9.78098 9.21398 9.81797 9.21988 9.85594 9.23114C9.89408 9.24137 9.93441 9.24921 9.97409 9.26586C10.014 9.2808 10.0554 9.29416 10.0949 9.31509C10.1351 9.33341 10.1749 9.35358 10.2128 9.37785C10.2518 9.39921 10.2878 9.42593 10.3232 9.45097C10.3589 9.47571 10.3908 9.50508 10.4228 9.5306C10.4525 9.55954 10.4831 9.58471 10.5083 9.61301C10.5346 9.63985 10.5585 9.66605 10.5793 9.69135C10.6216 9.74088 10.653 9.78476 10.673 9.81515C10.6835 9.83091 10.6903 9.84191 10.6938 9.84859C10.6988 9.85698 10.7014 9.86156 10.7014 9.86156L10.7026 9.86353C10.7077 9.87218 10.7138 9.88044 10.7208 9.88814C10.7252 9.89298 10.7302 9.89692 10.7352 9.90112C10.9406 10.6533 11.2973 11.3137 11.5297 12.003C9.80966 9.85908 6.59447 9.51741 4.00816 8.4059C4.00658 8.40393 4.00422 8.40106 4.00105 8.39738C3.99609 8.39177 3.98795 8.38167 3.97682 8.36647C3.95508 8.3374 3.92442 8.29296 3.89219 8.23637C3.87553 8.20833 3.85892 8.17704 3.84266 8.14309C3.82459 8.10982 3.81136 8.07249 3.7942 8.03461C3.78097 7.99582 3.76419 7.95588 3.75306 7.91384C3.74141 7.87193 3.72857 7.82895 3.72176 7.78507C3.71183 7.74132 3.70631 7.69701 3.70275 7.65287C3.69633 7.60861 3.69792 7.56524 3.6974 7.52256C3.69518 7.47958 3.7016 7.43899 3.70489 7.39965C3.70712 7.35997 3.71418 7.32341 3.72189 7.28963C3.72951 7.25598 3.73396 7.22375 3.74261 7.19678C3.75139 7.16981 3.75909 7.14622 3.76538 7.1267C3.7781 7.08753 3.78542 7.06514 3.78542 7.06514C3.78542 7.06514 3.77378 7.08556 3.75331 7.1213C3.74295 7.13937 3.73054 7.16142 3.71624 7.18654C3.70198 7.21197 3.69111 7.24275 3.67613 7.2755C3.66106 7.30838 3.64612 7.34456 3.63537 7.38463C3.6236 7.42431 3.60814 7.46622 3.60104 7.5113C3.59226 7.55608 3.58113 7.60274 3.57796 7.65107C3.57206 7.69928 3.56816 7.74864 3.56893 7.79817C3.5667 7.84809 3.57077 7.89749 3.57402 7.94659C3.57689 7.99582 3.5858 8.04326 3.59196 8.09017C3.60189 8.1359 3.60874 8.18149 3.6209 8.22289C3.62171 8.22601 3.62274 8.22862 3.62351 8.23179C2.94652 7.91033 2.32179 7.52491 1.79254 7.02318C3.00453 8.42816 4.77826 9.20015 6.56596 9.92886C4.76799 10.0035 1.74652 10.1725 1.74129 8.05794C1.64382 8.82976 1.99203 9.34275 2.51692 9.6815C2.4852 9.68437 2.45219 9.68754 2.41696 9.69131C2.17723 9.71631 1.85864 9.76049 1.54608 9.83592C1.38995 9.87337 1.23537 9.91858 1.09401 9.97124C0.952779 10.0242 0.825078 10.0852 0.722634 10.1489C0.671305 10.1804 0.62674 10.2133 0.588511 10.2434C0.551181 10.2751 0.519758 10.3034 0.496555 10.3298C0.471554 10.354 0.456357 10.3772 0.44467 10.3915C0.433282 10.4061 0.427246 10.4138 0.427246 10.4138C0.427246 10.4138 0.434181 10.4068 0.447281 10.3937C0.460638 10.3808 0.478061 10.3602 0.505588 10.3393C0.531274 10.3165 0.565436 10.2926 0.605035 10.2665C0.64579 10.2418 0.692282 10.2154 0.745452 10.191C0.957018 10.0908 1.26354 10.0211 1.57297 9.98678C1.88248 9.95078 2.19508 9.94577 2.42835 9.94983C2.54509 9.9518 2.64214 9.95613 2.70961 9.95994C2.77618 9.96439 2.81428 9.967 2.81428 9.967L2.81937 9.96739C2.82528 9.96777 2.83115 9.96777 2.83705 9.96739C2.88316 9.9649 2.92284 9.94196 2.94922 9.90831C3.43506 10.1154 3.99249 10.2216 4.47821 10.2708C5.63425 10.3884 6.81272 10.4588 7.87812 10.6952C7.67101 10.8083 7.40991 10.9623 7.16393 11.1408C7.0337 11.2349 6.9081 11.3355 6.79739 11.438C6.68698 11.5407 6.59225 11.6457 6.52178 11.7436C6.48629 11.7923 6.45757 11.8398 6.43376 11.8822C6.41137 11.9257 6.39301 11.9639 6.38149 11.9971C6.36762 12.0291 6.36236 12.0563 6.35701 12.0739C6.35217 12.0917 6.34956 12.1014 6.34956 12.1014C6.34956 12.1014 6.35337 12.0922 6.36043 12.075C6.36788 12.0581 6.37614 12.0322 6.39369 12.0024C6.40876 11.9715 6.43115 11.9366 6.45791 11.8973C6.48621 11.8589 6.51921 11.8167 6.55903 11.7741C6.71648 11.601 6.97351 11.4198 7.24651 11.2703C7.51899 11.1191 7.80629 10.9956 8.02346 10.9104C8.13207 10.8677 8.22351 10.8348 8.2873 10.8127C8.29723 10.8094 8.30511 10.8067 8.31363 10.8038C8.89969 10.9668 9.44377 11.1921 9.91874 11.5221C11.221 12.4266 11.9107 13.7892 11.9708 15.7131C11.9398 15.6865 11.9058 15.6582 11.8681 15.6278C11.8241 15.5932 11.7758 15.5567 11.7239 15.5192C11.6703 15.4838 11.6167 15.4432 11.5558 15.4084C11.4966 15.3713 11.4344 15.3352 11.3684 15.3026C11.3046 15.2669 11.2345 15.2397 11.1662 15.2103C11.0979 15.1814 11.0246 15.1627 10.9558 15.1392C10.8832 15.1258 10.8138 15.1063 10.7444 15.0995C10.6745 15.0967 10.6084 15.0834 10.5446 15.0906C10.4812 15.0973 10.4212 15.0945 10.3676 15.1084C10.3145 15.1211 10.2656 15.1327 10.2223 15.1431C10.1803 15.1566 10.1457 15.1748 10.1165 15.1865C10.0589 15.2114 10.0259 15.2257 10.0259 15.2257C10.0259 15.2257 10.0604 15.216 10.121 15.199C10.1512 15.1915 10.1869 15.1783 10.2293 15.1707C10.2721 15.1663 10.3205 15.1614 10.3731 15.156C10.4253 15.1496 10.4829 15.1602 10.5423 15.1616C10.602 15.1625 10.6633 15.1841 10.7267 15.1947C10.7897 15.2095 10.8522 15.2367 10.9163 15.2574C10.9776 15.2883 11.0414 15.3135 11.101 15.3489C11.1603 15.3847 11.2206 15.4175 11.2753 15.4589C11.3318 15.4966 11.3847 15.5377 11.4346 15.5792C11.486 15.6183 11.5308 15.663 11.5755 15.7018C11.6185 15.7429 11.6584 15.7824 11.6944 15.8194C11.7656 15.8945 11.8224 15.9591 11.8592 16.0056C11.8963 16.0509 11.9141 16.0765 11.9154 16.0779L11.9307 16.0936L11.9314 16.0943C11.9441 16.1073 11.9589 16.1169 11.9744 16.1244C11.9741 16.147 11.9749 16.1689 11.9744 16.1916C11.9433 17.6642 11.8123 19.2229 12.0915 20.4959C12.0719 20.4956 12.0522 20.495 12.0326 20.4947C11.3502 20.5062 10.667 20.522 9.99785 20.595C9.32805 20.6537 8.67242 20.7561 8.04307 20.88C7.7291 20.9476 7.41967 21.007 7.12125 21.0915C6.82154 21.1661 6.53081 21.2524 6.24998 21.3421C6.10905 21.3841 5.97189 21.4338 5.83695 21.4829C5.70227 21.5319 5.56969 21.5802 5.43938 21.6276C5.18286 21.7376 4.93345 21.8347 4.70091 21.9475C4.23561 22.1718 3.82061 22.4004 3.47424 22.6384C3.30107 22.7569 3.13784 22.8633 3.00042 22.984C2.86116 23.1009 2.72857 23.1981 2.62326 23.3069C2.51465 23.4104 2.41927 23.5032 2.33875 23.5854C2.2625 23.6733 2.20069 23.7503 2.14961 23.8109C2.05047 23.9338 1.99764 23.9994 1.99764 23.9994C1.99764 23.9994 2.06823 23.9532 2.20043 23.8665C2.26516 23.8235 2.34504 23.7703 2.43897 23.7078C2.53918 23.6539 2.65173 23.5901 2.77592 23.5184C2.89682 23.4424 3.04682 23.3814 3.20137 23.3062C3.28065 23.2713 3.35766 23.2278 3.44491 23.1937C3.53096 23.1588 3.62017 23.1226 3.71243 23.0852C3.89347 23.0062 4.09442 22.9385 4.30402 22.8661C4.51032 22.7877 4.73892 22.7295 4.96988 22.6574C5.20294 22.5893 5.45051 22.5305 5.70296 22.465C5.96127 22.4137 6.2213 22.3432 6.49691 22.297C6.63369 22.2713 6.77243 22.2453 6.91285 22.219C7.05275 22.1914 7.19723 22.1739 7.34146 22.1505C7.62979 22.1037 7.9265 22.0644 8.22805 22.027C8.52973 21.9907 8.83801 21.9609 9.14898 21.9295C9.3051 21.9179 9.46217 21.9061 9.62006 21.8944C9.77738 21.8788 9.93642 21.8703 10.096 21.8619C10.7335 21.821 11.3833 21.8086 12.0324 21.8042C12.3569 21.8103 12.682 21.8031 13.0049 21.8194C13.1664 21.8262 13.3277 21.831 13.4887 21.8347C13.6493 21.8435 13.8094 21.8522 13.9689 21.8608C14.2884 21.8753 14.6032 21.9075 14.9162 21.928C15.0722 21.9408 15.2264 21.9602 15.3801 21.9756C15.5334 21.993 15.6871 22.0029 15.8373 22.0251C16.1388 22.0632 16.4356 22.1015 16.724 22.1485C16.8682 22.1719 17.0127 22.1894 17.1526 22.2171C17.293 22.2434 17.4318 22.2694 17.5685 22.2949C17.8442 22.3411 18.1042 22.4121 18.3627 22.4631C18.6152 22.5287 18.8627 22.5879 19.0959 22.6557C19.3269 22.7278 19.5554 22.7863 19.7617 22.8646C19.9713 22.937 20.1722 23.005 20.3533 23.0838C20.4454 23.1214 20.5346 23.1577 20.6208 23.1927C20.708 23.2268 20.7852 23.2702 20.8643 23.3052C21.0185 23.3805 21.1694 23.4421 21.2884 23.5168C21.4112 23.5878 21.5234 23.6511 21.6236 23.7049C21.7186 23.7685 21.7994 23.8226 21.8649 23.8665C21.9971 23.9531 22.0676 23.9994 22.0676 23.9994C22.0676 23.9994 22.0147 23.9339 21.9153 23.811C21.8647 23.7505 21.8022 23.676 21.7289 23.5884C21.6483 23.5061 21.5526 23.4128 21.4426 23.3085C21.3353 23.1982 21.2037 23.102 21.0641 22.985C20.9266 22.8644 20.7636 22.7578 20.5902 22.6394C20.2438 22.4016 19.8289 22.1732 19.3636 21.949C19.1312 21.836 18.8816 21.7394 18.6251 21.6294C18.4948 21.5818 18.3622 21.5337 18.2277 21.4845C18.0928 21.4354 17.9556 21.3857 17.8147 21.3438C17.534 21.2536 17.2432 21.1678 16.9436 21.0931C16.6451 21.0089 16.336 20.9486 16.0218 20.8816C15.3928 20.7565 14.7369 20.6558 14.0672 20.5957C13.7538 20.5617 13.437 20.5406 13.119 20.5258C12.3227 19.19 12.561 17.1434 12.5897 15.235C12.9938 14.3199 13.0199 13.1393 12.988 11.9255C13.0095 11.9034 13.03 11.8804 13.0518 11.859C13.1025 11.8208 13.1479 11.774 13.2009 11.7437C13.254 11.7136 13.3019 11.675 13.3558 11.6572C13.382 11.6462 13.4075 11.6353 13.4322 11.625C13.4446 11.6197 13.4568 11.6145 13.4688 11.6095C13.4814 11.6065 13.4937 11.6036 13.5059 11.6008C13.5549 11.5891 13.5996 11.5785 13.6395 11.5691C13.6801 11.5647 13.716 11.5638 13.7456 11.5616C13.8053 11.5579 13.8391 11.5558 13.8391 11.5558C13.8391 11.5558 13.8053 11.5531 13.7457 11.5484C13.7159 11.5464 13.6793 11.5422 13.6373 11.5408C13.5952 11.5447 13.5478 11.549 13.4961 11.5539C13.4829 11.5552 13.4696 11.5564 13.456 11.5576C13.4427 11.5611 13.4294 11.5646 13.4158 11.5681C13.3885 11.5753 13.3601 11.5828 13.331 11.5905C13.2706 11.6021 13.2154 11.6345 13.1534 11.6592C13.0941 11.6833 13.0414 11.7221 12.9835 11.7557C12.9706 11.3305 12.9532 10.903 12.9443 10.4829C12.9439 10.4618 12.9445 10.4417 12.9443 10.4207C12.9587 10.4138 12.9723 10.4049 12.9841 10.3928L12.9848 10.3921L12.9989 10.3776C13.0002 10.3763 13.0166 10.3527 13.0511 10.3107C13.0853 10.2677 13.138 10.2078 13.2037 10.1382C13.2371 10.1038 13.2741 10.0673 13.3139 10.0293C13.3551 9.99341 13.3967 9.95185 13.4442 9.91571C13.4904 9.87736 13.5395 9.83921 13.5917 9.80424C13.6423 9.76597 13.698 9.73557 13.7531 9.70248C13.8083 9.66973 13.8675 9.64627 13.9242 9.61771C13.9835 9.59858 14.0414 9.57345 14.0998 9.55971C14.1584 9.54978 14.2152 9.5297 14.2706 9.52893C14.3256 9.52764 14.3788 9.51767 14.4271 9.5237C14.4759 9.52867 14.5206 9.53325 14.5603 9.53719C14.5996 9.54425 14.6324 9.55633 14.6606 9.56339C14.7166 9.5791 14.7487 9.58818 14.7487 9.58818C14.7487 9.58818 14.7182 9.57495 14.6647 9.55187C14.6376 9.54113 14.6055 9.52422 14.5666 9.51176C14.5265 9.50221 14.4815 9.49134 14.432 9.47957C14.3824 9.46672 14.3268 9.46921 14.2681 9.46304C14.2091 9.45636 14.1479 9.46865 14.0831 9.47131C14.0189 9.47773 13.9546 9.49554 13.8874 9.50812C13.8237 9.52987 13.7559 9.54716 13.6925 9.57401C13.6292 9.6011 13.5643 9.62641 13.5053 9.65954C13.444 9.68955 13.3865 9.72307 13.3315 9.7574C13.2752 9.78977 13.2255 9.82723 13.1759 9.8601C13.128 9.89482 13.0832 9.92864 13.0424 9.96058C13.0076 9.98875 12.9761 10.0151 12.9473 10.0396C13.003 8.25786 13.6417 6.99595 14.8478 6.15821C15.2877 5.85259 15.7916 5.64406 16.3344 5.49299C16.3423 5.4956 16.3496 5.49808 16.3588 5.50125C16.4178 5.5218 16.5026 5.55219 16.6032 5.59175C16.8044 5.67061 17.0703 5.78512 17.3228 5.92502C17.5756 6.06347 17.8137 6.23116 17.9594 6.39165C17.9964 6.43121 18.0269 6.47025 18.0531 6.50574C18.0779 6.54217 18.0987 6.57462 18.1126 6.60322C18.1288 6.63087 18.1364 6.65472 18.1434 6.67043C18.1499 6.68627 18.1533 6.69479 18.1533 6.69479C18.1533 6.69479 18.1509 6.68601 18.1464 6.6694C18.1414 6.65301 18.1366 6.62788 18.1237 6.59825C18.1131 6.5676 18.0962 6.53224 18.0754 6.49191C18.0532 6.45261 18.0268 6.40873 17.9938 6.36353C17.9286 6.2729 17.8408 6.17555 17.7384 6.08047C17.636 5.98547 17.5195 5.89232 17.3989 5.80511C17.1709 5.63978 16.9293 5.49727 16.7375 5.39247C17.7242 5.17358 18.8155 5.10834 19.8862 4.99935C20.336 4.95388 20.8522 4.85551 21.3023 4.66372C21.3266 4.69493 21.3635 4.71612 21.4061 4.71834C21.4116 4.7186 21.4172 4.7186 21.4225 4.71834L21.4273 4.71796C21.4273 4.71796 21.4625 4.7156 21.5242 4.71154C21.5866 4.70798 21.6765 4.70392 21.7846 4.70225C22.0008 4.69857 22.2903 4.70315 22.5769 4.73658C22.8634 4.76826 23.1473 4.83286 23.3432 4.92563C23.3925 4.94815 23.4356 4.97251 23.4732 4.99545C23.51 5.01968 23.5415 5.04182 23.5652 5.06292C23.5908 5.08231 23.6069 5.10145 23.6193 5.11335C23.6313 5.12555 23.6378 5.1321 23.6378 5.1321C23.6378 5.1321 23.6322 5.12491 23.6217 5.1113C23.611 5.09854 23.5969 5.07705 23.5738 5.05453Z" fill="black"/>
<path d="M6.55229 7.69845C6.32318 7.50851 6.05373 7.39035 5.79067 7.25618C5.58133 7.14942 5.36257 7.01174 5.24219 6.80176C5.29536 7.0614 5.39099 7.34253 5.56403 7.54686C5.81254 7.84028 6.15498 8.01923 6.44878 8.25935C6.64421 8.41903 6.80693 8.63466 6.91344 8.86391C7.00843 8.44827 6.88531 7.97475 6.55229 7.69845Z" fill="black"/>
<path d="M6.35717 8.28619C6.00228 7.987 5.53138 7.77389 5.35282 7.31445C5.33133 7.51934 5.34614 7.73403 5.3967 7.9334C5.48553 8.28405 5.728 8.52666 6.04171 8.69409C6.12317 8.73758 6.20952 8.77084 6.29625 8.80244C6.3835 8.83416 6.47194 8.86361 6.55718 8.90056C6.63685 8.93515 6.71347 8.97089 6.77439 9.03481C6.81121 9.07347 6.84567 9.11499 6.87761 9.15784C6.87748 9.15772 6.80243 8.66164 6.35717 8.28619Z" fill="black"/>
<path d="M15.2748 3.85321C15.5631 3.917 15.8462 3.99705 16.1438 3.99611C16.5764 3.99465 16.9726 3.7074 17.1636 3.32617C16.9358 3.4353 16.673 3.49831 16.4206 3.49728C16.0413 3.4957 15.663 3.41607 15.2847 3.48457C15.0212 3.53239 14.7686 3.68839 14.5625 3.85505C14.7889 3.76977 15.0452 3.80252 15.2748 3.85321Z" fill="black"/>
<path d="M17.1644 3.10626C17.0766 3.11688 16.9948 3.09577 16.9113 3.0718C16.8219 3.04611 16.7352 3.01259 16.6476 2.98155C16.5608 2.95077 16.4729 2.92158 16.3823 2.90334C16.0339 2.83313 15.6924 2.86614 15.4009 3.08032C15.2352 3.20215 15.0872 3.35845 14.9736 3.53016C15.4037 3.2891 15.9026 3.42404 16.3668 3.41869C16.9492 3.41201 17.3226 3.07694 17.3226 3.07694C17.2704 3.08961 17.2175 3.09984 17.1644 3.10626Z" fill="black"/>
<path d="M10.1093 8.16016C9.9775 8.25421 9.81859 8.32296 9.65904 8.35023C9.4193 8.39112 9.17186 8.3826 8.94052 8.46762C8.77938 8.52682 8.63712 8.65324 8.52539 8.78124C8.65887 8.70226 8.82446 8.69468 8.97485 8.70132C9.1639 8.70983 9.35145 8.7291 9.53934 8.69571C9.81247 8.64695 10.0308 8.4219 10.1093 8.16016Z" fill="black"/>
<path d="M10.1819 7.98495C10.1505 7.9987 10.1183 8.0109 10.0855 8.02083C10.0313 8.03722 9.97732 8.03303 9.92188 8.02699C9.86268 8.02057 9.80411 8.00906 9.74542 7.99908C9.68711 7.98928 9.62842 7.98046 9.56934 7.97892C9.34155 7.97301 9.1296 8.03157 8.96924 8.199C8.87805 8.29425 8.80181 8.40928 8.74902 8.53018C8.99398 8.33051 9.32383 8.3607 9.61635 8.30603C9.98319 8.23775 10.1819 7.98495 10.1819 7.98495Z" fill="black"/>
<path d="M10.2245 6.83136C10.3839 6.85858 10.5429 6.92738 10.6747 7.02143C10.5963 6.75969 10.3778 6.53464 10.1048 6.48592C9.91692 6.45253 9.72946 6.47175 9.54028 6.48027C9.38976 6.48695 9.2243 6.47937 9.09082 6.40039C9.20255 6.52835 9.34481 6.65477 9.50595 6.71402C9.73733 6.79899 9.98478 6.79035 10.2245 6.83136Z" fill="black"/>
<path d="M10.4874 7.15383C10.5427 7.14793 10.5968 7.1436 10.651 7.16C10.6838 7.16993 10.7161 7.18213 10.7474 7.19587C10.7474 7.19587 10.5487 6.94304 10.1818 6.87454C9.88939 6.82005 9.55941 6.85006 9.31445 6.65039C9.36724 6.77146 9.44348 6.88644 9.53467 6.98157C9.69516 7.149 9.90711 7.20752 10.1348 7.20165C10.194 7.20007 10.2527 7.19142 10.3108 7.18149C10.3696 7.17177 10.4282 7.16026 10.4874 7.15383Z" fill="black"/>
<path d="M12.3292 4.15831C12.5605 4.24333 12.8081 4.23468 13.0478 4.27569C13.2071 4.30279 13.3662 4.37172 13.4979 4.46577C13.4195 4.20403 13.201 3.97898 12.9281 3.93026C12.7402 3.89687 12.5526 3.91609 12.3636 3.92465C12.213 3.93133 12.0476 3.92375 11.9141 3.84473C12.0259 3.97269 12.1681 4.0991 12.3292 4.15831Z" fill="black"/>
<path d="M12.9581 4.64616C13.0174 4.64458 13.076 4.63593 13.1342 4.626C13.1929 4.61606 13.2514 4.60451 13.3106 4.59813C13.3659 4.59222 13.42 4.5879 13.4743 4.60429C13.5071 4.61422 13.5394 4.62642 13.5707 4.64017C13.5707 4.64017 13.3719 4.38733 13.005 4.31884C12.7126 4.26438 12.3826 4.29435 12.1377 4.09473C12.1904 4.21575 12.2667 4.33078 12.3579 4.42586C12.5184 4.59363 12.7303 4.65207 12.9581 4.64616Z" fill="black"/>
<path d="M11.961 8.57223C11.8543 8.52506 11.7401 8.50922 11.6265 8.48683C11.5362 8.46889 11.4389 8.44034 11.3711 8.37402C11.4189 8.46624 11.4849 8.562 11.572 8.62069C11.6971 8.70477 11.8454 8.73572 11.9818 8.79493C12.0726 8.83423 12.1569 8.89827 12.2216 8.97323C12.2131 8.80632 12.116 8.6409 11.961 8.57223Z" fill="black"/>
<path d="M11.9504 8.81394C11.7847 8.73903 11.5842 8.70889 11.4678 8.55469C11.4815 8.63419 11.5101 8.7136 11.5504 8.78342C11.6215 8.90616 11.7388 8.97178 11.8749 9.00141C11.9103 9.00916 11.9465 9.01241 11.9825 9.01502C12.0188 9.01763 12.0553 9.01935 12.0913 9.02418C12.125 9.02864 12.1577 9.03399 12.1877 9.05171C12.2057 9.06233 12.223 9.07436 12.2398 9.08707C12.2397 9.08711 12.1584 8.908 11.9504 8.81394Z" fill="black"/>
<path d="M2.80137 6.86122C2.96512 6.99496 3.10134 7.17561 3.19043 7.3674C3.26993 7.01949 3.16684 6.62281 2.88798 6.39147C2.69619 6.23243 2.47049 6.13341 2.25028 6.02116C2.07502 5.93182 1.89188 5.8164 1.79102 5.64062C1.83558 5.8581 1.91559 6.09347 2.06046 6.26458C2.2686 6.51039 2.55534 6.66027 2.80137 6.86122Z" fill="black"/>
<path d="M2.72417 6.88311C2.42707 6.63263 2.03261 6.45411 1.88304 6.06934C1.86497 6.24079 1.87743 6.42068 1.91973 6.58768C1.99413 6.88135 2.19718 7.08453 2.45981 7.22473C2.52805 7.26116 2.6004 7.28903 2.67297 7.31536C2.74604 7.34199 2.82006 7.3666 2.89147 7.39751C2.95817 7.42645 3.02234 7.45633 3.07341 7.51001C3.10432 7.54238 3.13304 7.57723 3.15989 7.61297C3.15989 7.61302 3.097 7.1975 2.72417 6.88311Z" fill="black"/>
<path d="M18.9226 1.76402C18.9913 2.24045 19.369 2.63255 19.8185 2.78384C19.663 2.54975 19.5528 2.26995 19.515 1.99168C19.4579 1.57352 19.4872 1.14452 19.3531 0.738298C19.2597 0.455368 19.0486 0.201206 18.833 0C18.9622 0.236225 18.9659 0.523864 18.9456 0.784447C18.92 1.11207 18.8756 1.43627 18.9226 1.76402Z" fill="black"/>
<path d="M20.119 2.16204C20.1394 2.06157 20.1581 1.96019 20.1641 1.85762C20.1875 1.46279 20.0984 1.09167 19.8172 0.8036C19.6574 0.639853 19.4622 0.500978 19.2554 0.402344C19.5876 0.838833 19.5162 1.40944 19.5938 1.91995C19.6913 2.56051 20.1185 2.91999 20.1185 2.91999C20.0965 2.86472 20.0771 2.808 20.0617 2.75059C20.0365 2.65564 20.0471 2.5621 20.0606 2.46646C20.075 2.36432 20.0984 2.26333 20.119 2.16204Z" fill="black"/>
<path d="M4.353 11.6282C4.67369 11.6992 4.98873 11.7883 5.3199 11.7872C5.80134 11.7857 6.24211 11.466 6.45445 11.042C6.20097 11.1634 5.90858 11.2335 5.62783 11.2323C5.20577 11.2306 4.78499 11.142 4.36409 11.2182C4.07088 11.2713 3.78992 11.445 3.56055 11.6304C3.8124 11.5353 4.09768 11.5717 4.353 11.6282Z" fill="black"/>
<path d="M5.56807 11.1455C6.216 11.1382 6.63138 10.7652 6.63138 10.7652C6.57358 10.7794 6.51464 10.7906 6.45569 10.7979C6.35808 10.8098 6.26694 10.7862 6.17417 10.7595C6.07485 10.7309 5.97806 10.6936 5.88075 10.6592C5.78409 10.625 5.68636 10.5925 5.58558 10.5722C5.19786 10.494 4.81796 10.5308 4.49359 10.769C4.30913 10.9045 4.14448 11.0785 4.01807 11.2696C4.49655 11.0013 5.0517 11.1514 5.56807 11.1455Z" fill="black"/>
<path d="M16.0476 8.22845C16.2822 7.99843 16.5286 7.78305 16.7084 7.50496C16.9697 7.10071 16.9424 6.55681 16.7027 6.14746C16.6662 6.4262 16.5654 6.70942 16.4112 6.94407C16.1796 7.29682 15.8758 7.60115 15.7101 7.99548C15.5946 8.27019 15.5869 8.60042 15.6172 8.89371C15.6748 8.6309 15.861 8.41159 16.0476 8.22845Z" fill="black"/>
<path d="M16.5665 5.84863C16.5469 5.90471 16.5242 5.96024 16.498 6.01371C16.4546 6.10198 16.3853 6.16551 16.3122 6.22878C16.2341 6.29651 16.15 6.35717 16.0681 6.41989C15.9866 6.48226 15.906 6.54643 15.8341 6.61981C15.557 6.9021 15.3805 7.24047 15.4033 7.64236C15.4163 7.8708 15.4721 8.10373 15.5635 8.31388C15.5997 7.76656 16.0284 7.38315 16.3051 6.9473C16.6525 6.40024 16.5665 5.84863 16.5665 5.84863Z" fill="black"/>
<path d="M1.26059 9.12501C1.43165 9.13328 1.60735 9.18542 1.75786 9.26753C1.64219 9.00253 1.38401 8.79371 1.09093 8.77718C0.889339 8.76593 0.694682 8.81006 0.497115 8.84294C0.339789 8.86914 0.164911 8.88211 0.0146484 8.8161C0.148429 8.93635 0.313846 9.05112 0.490694 9.09291C0.744427 9.15293 1.00356 9.11243 1.26059 9.12501Z" fill="black"/>
<path d="M0.554762 9.37176C0.744581 9.52738 0.974726 9.56197 1.21343 9.52673C1.27538 9.51757 1.33591 9.50092 1.39589 9.48324C1.45629 9.46543 1.5164 9.44578 1.57783 9.43161C1.6352 9.41838 1.69141 9.40699 1.75048 9.41735C1.78623 9.42365 1.82176 9.43242 1.85648 9.44291C1.85648 9.44291 1.61559 9.20241 1.22114 9.17715C0.906873 9.15698 0.563923 9.23045 0.28125 9.05176C0.352229 9.17214 0.446967 9.28336 0.554762 9.37176Z" fill="black"/>
<path d="M22.6036 3.89661C22.4243 3.96249 22.2661 4.10321 22.1416 4.2456C22.2902 4.15771 22.4744 4.14932 22.6418 4.15676C22.8522 4.16618 23.0609 4.18767 23.2698 4.15047C23.5736 4.09636 23.8165 3.84592 23.9039 3.55469C23.7573 3.65936 23.5805 3.73582 23.403 3.76608C23.1362 3.81159 22.8609 3.802 22.6036 3.89661Z" fill="black"/>
<path d="M23.6957 3.40641C23.6298 3.39935 23.5645 3.3865 23.4993 3.37537C23.4345 3.36437 23.3693 3.3547 23.3033 3.35298C23.0499 3.34643 22.8141 3.41155 22.6356 3.59781C22.5341 3.70368 22.4493 3.83164 22.3906 3.96632C22.6631 3.74414 23.0302 3.77766 23.3556 3.71704C23.7639 3.64092 23.985 3.35953 23.985 3.35953C23.95 3.37486 23.9141 3.38847 23.8778 3.39947C23.8173 3.4178 23.7572 3.41296 23.6957 3.40641Z" fill="black"/>
<path d="M15.0572 11.146C14.9699 10.8548 14.7269 10.6043 14.4231 10.5502C14.2142 10.513 14.0055 10.5345 13.7951 10.5439C13.6277 10.5514 13.4436 10.5429 13.2949 10.4551C13.4192 10.5975 13.5776 10.7382 13.7568 10.8041C14.0143 10.8986 14.2896 10.8891 14.5563 10.9347C14.7337 10.9648 14.9106 11.0414 15.0572 11.146Z" fill="black"/>
<path d="M14.4567 11.3478C14.5225 11.3461 14.5879 11.3364 14.6527 11.3254C14.7179 11.3144 14.7832 11.3015 14.8491 11.2944C14.9107 11.2878 14.9708 11.283 15.0311 11.3012C15.0675 11.3122 15.1035 11.3258 15.1384 11.3411C15.1384 11.3411 14.9172 11.0599 14.5089 10.9837C14.1835 10.923 13.8164 10.9564 13.5439 10.7344C13.6026 10.8691 13.6876 10.9969 13.7889 11.1029C13.9676 11.2892 14.2034 11.3543 14.4567 11.3478Z" fill="black"/>
<path d="M13.0822 2.32424C13.2596 2.35451 13.4364 2.43101 13.5831 2.53563C13.4957 2.24444 13.2527 1.99396 12.9489 1.93985C12.74 1.90265 12.5314 1.9241 12.3209 1.93356C12.1535 1.94101 11.9695 1.93253 11.8208 1.84473C11.9451 1.98711 12.1033 2.12783 12.2827 2.19371C12.5401 2.28819 12.8154 2.27865 13.0822 2.32424Z" fill="black"/>
<path d="M13.0347 2.37233C12.7093 2.31167 12.3422 2.34506 12.0698 2.12305C12.1284 2.25773 12.2134 2.38556 12.3147 2.49155C12.4933 2.67782 12.7291 2.74293 12.9825 2.73638C13.0482 2.73467 13.1136 2.725 13.1785 2.71399C13.2437 2.70299 13.3089 2.69015 13.3748 2.68296C13.4364 2.67641 13.4966 2.67153 13.5567 2.68976C13.5932 2.70077 13.6292 2.71438 13.664 2.7297C13.6642 2.7297 13.443 2.44844 13.0347 2.37233Z" fill="black"/>
<path d="M11.0306 14.0131C10.8365 13.9274 10.6287 13.8985 10.4222 13.8576C10.2578 13.8252 10.0809 13.773 9.95752 13.6523C10.0445 13.8202 10.1646 13.9946 10.3232 14.1012C10.5507 14.2543 10.8204 14.3105 11.0687 14.418C11.2339 14.4895 11.3874 14.606 11.5049 14.7425C11.4893 14.439 11.3128 14.138 11.0306 14.0131Z" fill="black"/>
<path d="M11.0107 14.4541C10.7092 14.3177 10.3446 14.263 10.1328 13.9824C10.1578 14.1272 10.2097 14.2717 10.2832 14.3987C10.4122 14.622 10.6259 14.7413 10.8736 14.7952C10.9379 14.8092 11.0037 14.8152 11.0693 14.8201C11.1353 14.8249 11.2018 14.828 11.2674 14.8367C11.3287 14.845 11.3883 14.8545 11.4425 14.8867C11.4753 14.906 11.5069 14.9278 11.5372 14.951C11.5371 14.9509 11.3892 14.6252 11.0107 14.4541Z" fill="black"/>
<path d="M8.65996 7.04499C8.83 7.18386 8.97144 7.37141 9.06408 7.57082C9.14675 7.20942 9.0396 6.79742 8.74995 6.55717C8.55071 6.39196 8.31637 6.28914 8.08747 6.17256C7.9054 6.07971 7.71519 5.95997 7.61035 5.77734C7.65663 6.00317 7.73976 6.24761 7.89033 6.42553C8.10647 6.68055 8.40434 6.83616 8.65996 7.04499Z" fill="black"/>
<path d="M8.30524 7.42249C8.37609 7.46033 8.45118 7.48931 8.52661 7.51667C8.60247 7.54432 8.67948 7.56984 8.7535 7.60195C8.82281 7.63196 8.88947 7.66312 8.94242 7.71877C8.97453 7.75242 9.00437 7.7886 9.03228 7.8258C9.03228 7.8258 8.96704 7.39428 8.5797 7.06785C8.27108 6.8077 7.86143 6.6222 7.70608 6.22266C7.68733 6.40083 7.70034 6.58761 7.74422 6.76108C7.82145 7.06605 8.03237 7.27693 8.30524 7.42249Z" fill="black"/>
<path d="M7.94421 12.4525C8.19494 12.5079 8.44119 12.5777 8.70006 12.5768C9.0764 12.5755 9.42093 12.3257 9.58703 11.9941C9.38882 12.0891 9.16035 12.1439 8.94082 12.1429C8.61084 12.1417 8.28189 12.0724 7.95281 12.132C7.72357 12.1735 7.50391 12.3093 7.32471 12.4542C7.52159 12.3799 7.74454 12.4085 7.94421 12.4525Z" fill="black"/>
<path d="M8.89422 12.075C9.40079 12.0692 9.72554 11.7776 9.72554 11.7776C9.68034 11.7886 9.63436 11.7975 9.58825 11.803C9.51188 11.8124 9.44077 11.794 9.36817 11.7731C9.29051 11.7508 9.21491 11.7216 9.13879 11.6946C9.06319 11.6678 8.98682 11.6424 8.90809 11.6266C8.60496 11.5654 8.30798 11.5942 8.05438 11.7805C7.91028 11.8865 7.78151 12.0223 7.68262 12.1718C8.0566 11.9622 8.49061 12.0796 8.89422 12.075Z" fill="black"/>
<path d="M21.2439 1.85044C21.1339 2.05584 21.1039 2.31235 21.1061 2.54289C21.1701 2.34232 21.331 2.18525 21.4896 2.05635C21.6888 1.89427 21.8965 1.7447 22.0566 1.54139C22.2894 1.2457 22.3077 0.820518 22.1512 0.484375C22.1024 0.698681 22.0034 0.911831 21.8662 1.08316C21.6602 1.34083 21.4016 1.55552 21.2439 1.85044Z" fill="black"/>
<path d="M21.0318 1.55248C21.0252 1.73129 21.0517 1.91653 21.1074 2.08683C21.1755 1.66344 21.537 1.39635 21.7842 1.07724C22.0944 0.676801 22.0677 0.241211 22.0677 0.241211C22.0484 0.283379 22.0266 0.325033 22.0024 0.364589C21.9622 0.430216 21.9035 0.474482 21.8422 0.518405C21.7764 0.565453 21.7066 0.60655 21.6382 0.649403C21.5702 0.691956 21.5029 0.736092 21.4416 0.78785C21.2052 0.987515 21.0433 1.23795 21.0318 1.55248Z" fill="black"/>
<path d="M11.4144 5.41016C11.339 5.16469 11.2784 4.91605 11.1501 4.69126C10.9636 4.3644 10.5764 4.18768 10.2061 4.20643C10.3863 4.33208 10.5467 4.50392 10.6539 4.69545C10.8153 4.98326 10.9171 5.30357 11.1312 5.56056C11.2802 5.7395 11.5066 5.86382 11.7211 5.94846C11.5594 5.81365 11.4743 5.60551 11.4144 5.41016Z" fill="black"/>
<path d="M11.2984 5.77697C10.9317 5.55479 10.8199 5.11937 10.6171 4.77026C10.3624 4.33236 9.94873 4.19336 9.94873 4.19336C9.98058 4.22714 10.011 4.26293 10.0386 4.30026C10.0844 4.36207 10.1033 4.43309 10.121 4.50655C10.1399 4.58515 10.1516 4.66529 10.1658 4.74483C10.1798 4.82382 10.1953 4.9028 10.2203 4.97922C10.3165 5.27302 10.4878 5.51733 10.7748 5.64628C10.938 5.71948 11.1197 5.76452 11.2984 5.77697Z" fill="black"/>
<path d="M21.0489 5.40933C20.7854 5.38574 20.504 5.46828 20.2642 5.57295C20.5022 5.55082 20.7377 5.64919 20.943 5.75754C21.2008 5.89381 21.4494 6.04416 21.7331 6.12121C22.1454 6.23308 22.5979 6.06329 22.8795 5.75035C22.6341 5.79462 22.3673 5.78584 22.1272 5.71876C21.7663 5.61798 21.427 5.44311 21.0489 5.40933Z" fill="black"/>
<path d="M22.7056 5.44164C22.6273 5.39382 22.5533 5.33906 22.4781 5.28667C22.4034 5.23465 22.3273 5.18384 22.2459 5.1427C21.9325 4.98447 21.5987 4.92655 21.265 5.05417C21.0753 5.12673 20.8934 5.23679 20.7402 5.37066C21.2129 5.25383 21.6526 5.51292 22.0959 5.62936C22.6523 5.77555 23.0956 5.55418 23.0956 5.55418C23.0428 5.5526 22.9898 5.5484 22.9376 5.5407C22.8513 5.52781 22.7788 5.48633 22.7056 5.44164Z" fill="black"/>
<path d="M14.3369 2.53521C14.4531 2.46654 14.5969 2.4599 14.7278 2.46577C14.8923 2.47309 15.0555 2.49 15.2188 2.4608C15.4563 2.41846 15.6463 2.22265 15.7145 1.99512C15.5999 2.07701 15.4617 2.13673 15.323 2.16045C15.1146 2.19607 14.8993 2.18862 14.698 2.26251C14.5578 2.31396 14.4342 2.4239 14.3369 2.53521Z" fill="black"/>
<path d="M15.7781 1.84253C15.7508 1.85443 15.7226 1.86518 15.6942 1.87369C15.647 1.88795 15.6 1.88418 15.5519 1.87905C15.5005 1.87357 15.4495 1.86346 15.3984 1.85482C15.3477 1.8463 15.2966 1.83872 15.2453 1.83726C15.0472 1.83213 14.8629 1.88298 14.7232 2.02867C14.6439 2.11146 14.5776 2.21155 14.5317 2.31673C14.7447 2.14301 15.0318 2.16921 15.286 2.12182C15.6052 2.06249 15.7781 1.84253 15.7781 1.84253Z" fill="black"/>
<path d="M22.8654 2.45922C23.0665 2.53324 23.2818 2.52579 23.4903 2.56128C23.6291 2.58487 23.7672 2.64472 23.8818 2.72661C23.8136 2.49895 23.6237 2.30322 23.3862 2.26093C23.2228 2.23186 23.0598 2.2486 22.8953 2.25596C22.7644 2.26187 22.6205 2.25519 22.5044 2.18652C22.6015 2.2977 22.7252 2.40764 22.8654 2.45922Z" fill="black"/>
<path d="M22.6992 2.4043C22.7451 2.50948 22.8115 2.60957 22.8908 2.69236C23.0303 2.838 23.2146 2.88886 23.4128 2.88372C23.4643 2.88244 23.5153 2.87482 23.5659 2.86617C23.617 2.85752 23.668 2.84742 23.7195 2.84194C23.7675 2.83685 23.8145 2.83304 23.8617 2.84729C23.8903 2.85594 23.9183 2.86656 23.9455 2.8785C23.9455 2.8785 23.7726 2.65854 23.4535 2.59908C23.1992 2.55165 22.9123 2.57785 22.6992 2.4043Z" fill="black"/>
<path d="M4.04192 8.99322C3.87855 8.96415 3.71549 8.98089 3.55106 8.98838C3.42018 8.99429 3.27621 8.98757 3.16016 8.91895C3.25738 9.03017 3.38101 9.14019 3.52117 9.19169C3.72238 9.2657 3.93763 9.25826 4.1462 9.29375C4.28491 9.31733 4.42314 9.37718 4.53774 9.45908C4.46937 9.23124 4.27943 9.03556 4.04192 8.99322Z" fill="black"/>
<path d="M3.35449 9.13672C3.40034 9.24195 3.46661 9.34199 3.54602 9.42479C3.68554 9.57047 3.86984 9.62128 4.06805 9.61619C4.1195 9.61486 4.17049 9.60728 4.22118 9.59864C4.27225 9.58999 4.32319 9.57989 4.37469 9.57441C4.42277 9.56927 4.46982 9.5655 4.51695 9.57976C4.5455 9.58841 4.57354 9.59902 4.60077 9.61092C4.60077 9.61092 4.42786 9.39097 4.10872 9.3315C3.85447 9.28424 3.56747 9.3104 3.35449 9.13672Z" fill="black"/>
<path d="M18.4599 3.01174C18.5891 3.0677 18.7091 3.15875 18.8009 3.26535C18.7888 3.02797 18.6508 2.79268 18.4303 2.69512C18.2785 2.62804 18.1161 2.60552 17.9546 2.57358C17.8261 2.54815 17.6879 2.50744 17.5913 2.41309C17.6593 2.54434 17.7533 2.68061 17.8772 2.76392C18.0551 2.88378 18.2659 2.92766 18.4599 3.01174Z" fill="black"/>
<path d="M18.3075 3.30624C18.3578 3.31711 18.4091 3.32195 18.4605 3.32563C18.5121 3.32944 18.5639 3.3318 18.6153 3.3386C18.6633 3.34502 18.7098 3.3526 18.7522 3.37765C18.7779 3.39284 18.8027 3.40988 18.8262 3.42795C18.8262 3.42795 18.7107 3.17327 18.4148 3.03953C18.179 2.93289 17.8941 2.89017 17.7285 2.6709C17.748 2.78409 17.7886 2.89702 17.846 2.99634C17.9468 3.17075 18.1139 3.26403 18.3075 3.30624Z" fill="black"/>
<path d="M17.8125 8.81194C17.9905 8.63719 18.1779 8.4737 18.3144 8.26239C18.5129 7.95532 18.492 7.54229 18.3102 7.23145C18.2824 7.44314 18.2059 7.65822 18.0888 7.83652C17.9129 8.10442 17.6821 8.33551 17.5562 8.63509C17.4685 8.84379 17.4626 9.09466 17.4856 9.31735C17.5294 9.11756 17.6708 8.95107 17.8125 8.81194Z" fill="black"/>
<path d="M18.2071 7.00391C18.1922 7.0465 18.1749 7.08867 18.155 7.1293C18.1222 7.19634 18.0694 7.24454 18.014 7.29262C17.9546 7.34399 17.8908 7.39009 17.8285 7.43778C17.7667 7.48522 17.7055 7.53393 17.6509 7.58959C17.4405 7.80402 17.3064 8.06105 17.3238 8.36629C17.3336 8.53984 17.376 8.71673 17.4454 8.87641C17.4729 8.46077 17.7985 8.16953 18.0087 7.83848C18.2723 7.42284 18.2071 7.00391 18.2071 7.00391Z" fill="black"/>
<path d="M9.88224 9.61124C9.72358 9.58294 9.5651 9.59934 9.40529 9.60653C9.2781 9.61218 9.13832 9.60576 9.02539 9.53906C9.11983 9.64711 9.23996 9.75401 9.37622 9.80405C9.57165 9.87585 9.78086 9.86861 9.9834 9.9032C10.1182 9.92615 10.2525 9.98428 10.3639 10.0638C10.2977 9.84258 10.1129 9.65238 9.88224 9.61124Z" fill="black"/>
<path d="M9.21436 9.75098C9.25892 9.85316 9.32335 9.95034 9.40037 10.0308C9.53595 10.1723 9.71502 10.2218 9.90746 10.2167C9.9575 10.2153 10.007 10.208 10.0563 10.1996C10.1059 10.1912 10.1554 10.1814 10.2053 10.176C10.2521 10.1711 10.2977 10.1674 10.3435 10.1813C10.3712 10.1897 10.3985 10.2001 10.425 10.2117C10.425 10.2117 10.257 9.99803 9.94697 9.94028C9.70021 9.8943 9.42134 9.91973 9.21436 9.75098Z" fill="black"/>
</svg>
