<svg width="24" height="24" viewBox="0 0 24 24" fill="none" xmlns="http://www.w3.org/2000/svg">
<g clip-path="url(#clip0_3870_26239)">
<path d="M20 22H4C3.73478 22 3.48043 21.8947 3.29289 21.7071C3.10536 21.5196 3 21.2653 3 21V3.00004C3 2.73482 3.10536 2.48047 3.29289 2.29293C3.48043 2.10539 3.73478 2.00004 4 2.00004H20C20.2652 2.00004 20.5196 2.10539 20.7071 2.29293C20.8946 2.48047 21 2.73482 21 3.00004V21C21 21.2653 20.8946 21.5196 20.7071 21.7071C20.5196 21.8947 20.2652 22 20 22ZM8 7.00004V9.00004H16V7.00004H8ZM8 11V13H16V11H8ZM8 15V17H16V15H8Z" fill="#454F5B"/>
</g>
<defs>
<clipPath id="clip0_3870_26239">
<rect width="24" height="24" fill="white"/>
</clipPath>
</defs>
</svg>
