<svg width="24" height="25" viewBox="0 0 24 25" fill="none" xmlns="http://www.w3.org/2000/svg">
<path d="M9 1.61999V3.57999H15V1.61999H17V3.57999H21C21.2652 3.57999 21.5196 3.68324 21.7071 3.86702C21.8946 4.05081 22 4.30007 22 4.55999V20.24C22 20.4999 21.8946 20.7492 21.7071 20.933C21.5196 21.1167 21.2652 21.22 21 21.22H3C2.73478 21.22 2.48043 21.1167 2.29289 20.933C2.10536 20.7492 2 20.4999 2 20.24V4.55999C2 4.30007 2.10536 4.05081 2.29289 3.86702C2.48043 3.68324 2.73478 3.57999 3 3.57999H7V1.61999H9ZM20 8.47999H4V19.26H20V8.47999ZM15.036 10.5733L16.45 11.959L11.5 16.81L7.964 13.3447L9.38 11.959L11.501 14.0385L15.037 10.5733H15.036Z" fill="#B72136"/>
</svg>
