<svg width="24" height="23" viewBox="0 0 24 23" fill="none" xmlns="http://www.w3.org/2000/svg">
<path d="M21 15.2822V18.4353C21.0001 18.6611 20.9042 18.8785 20.7316 19.0437C20.559 19.2088 20.3226 19.3095 20.07 19.3253C19.633 19.352 19.276 19.3663 19 19.3663C10.163 19.3663 3 12.9788 3 5.09863C3 4.85251 3.015 4.53417 3.046 4.14448C3.06372 3.91927 3.17658 3.70843 3.3618 3.55452C3.54703 3.4006 3.79082 3.31507 4.044 3.31517H7.58C7.70404 3.31506 7.8237 3.35606 7.91573 3.43022C8.00776 3.50438 8.0656 3.60639 8.078 3.71645C8.101 3.92155 8.122 4.08473 8.142 4.20868C8.34073 5.44544 8.748 6.64831 9.35 7.77649C9.445 7.95484 9.383 8.16796 9.203 8.28211L7.045 9.65715C8.36445 12.3987 10.8145 14.5836 13.889 15.7601L15.429 13.8394C15.4919 13.7609 15.5838 13.7046 15.6885 13.6803C15.7932 13.656 15.9042 13.6653 16.002 13.7065C17.267 14.2423 18.6156 14.6046 20.002 14.781C20.141 14.7989 20.324 14.8185 20.552 14.8381C20.6752 14.8494 20.7894 14.901 20.8724 14.9831C20.9553 15.0651 21.0012 15.1717 21.001 15.2822H21Z" fill="#FFC107"/>
</svg>
