<svg width="24" height="24" viewBox="0 0 24 24" fill="none" xmlns="http://www.w3.org/2000/svg">
<path d="M17 1.99999H20C20.2652 1.99999 20.5196 2.10535 20.7071 2.29289C20.8946 2.48042 21 2.73478 21 2.99999V21C21 21.2652 20.8946 21.5196 20.7071 21.7071C20.5196 21.8946 20.2652 22 20 22H4C3.73478 22 3.48043 21.8946 3.29289 21.7071C3.10536 21.5196 3 21.2652 3 21V2.99999C3 2.73478 3.10536 2.48042 3.29289 2.29289C3.48043 2.10535 3.73478 1.99999 4 1.99999H7V-7.62939e-06H9V1.99999H15V-7.62939e-06H17V1.99999ZM7 7.99999V9.99999H17V7.99999H7ZM7 12V14H17V12H7Z" fill="#404EED"/>
</svg>
