<svg width="31" height="31" viewBox="0 0 31 31" fill="none" xmlns="http://www.w3.org/2000/svg">
<path fill-rule="evenodd" clip-rule="evenodd" d="M18.0833 5.13787L22.9167 10.333H19.0055C18.4966 10.333 18.0833 9.84083 18.0833 9.23504V5.13787ZM25.4986 9.46501L19.7572 3.00667C19.513 2.73672 19.1656 2.58301 18.8013 2.58301H8.468C6.64675 2.58301 5.1665 4.03226 5.1665 5.81217V25.1872C5.1665 26.9671 6.64675 28.4163 8.468 28.4163H22.5317C24.3529 28.4163 25.8332 26.9671 25.8332 25.1872V10.333C25.8332 10.0114 25.7143 9.70268 25.4986 9.46501V9.46501Z" fill="#FFD79D"/>
<path d="M8.91373 19.2119C8.80302 19.2119 8.71002 19.1765 8.63473 19.1056C8.56387 19.0304 8.52844 18.9396 8.52844 18.8333C8.52844 18.727 8.56387 18.6384 8.63473 18.5676C8.71002 18.4923 8.80302 18.4546 8.91373 18.4546C9.02002 18.4546 9.10859 18.4923 9.17944 18.5676C9.25473 18.6384 9.29237 18.727 9.29237 18.8333C9.29237 18.9396 9.25473 19.0304 9.17944 19.1056C9.10859 19.1765 9.02002 19.2119 8.91373 19.2119ZM11.5132 19.2584C11.1854 19.2584 10.8976 19.1831 10.6496 19.0326C10.406 18.882 10.2156 18.6761 10.0783 18.4148C9.94545 18.1535 9.87902 17.8568 9.87902 17.5246C9.87902 17.1925 9.94766 16.898 10.0849 16.6411C10.2222 16.3799 10.4127 16.1761 10.6562 16.03C10.8998 15.8794 11.1877 15.8041 11.5198 15.8041C11.7899 15.8041 12.0291 15.8595 12.2372 15.9702C12.4454 16.0809 12.607 16.2359 12.7222 16.4352V14.3959H13.2802V19.1787H12.7753L12.7222 18.634C12.6159 18.7934 12.4631 18.9374 12.2638 19.0658C12.0645 19.1942 11.8143 19.2584 11.5132 19.2584ZM11.5729 18.7735C11.7944 18.7735 11.9892 18.7226 12.1575 18.6207C12.3302 18.5144 12.4631 18.3683 12.5561 18.1823C12.6535 17.9963 12.7022 17.7793 12.7022 17.5313C12.7022 17.2833 12.6535 17.0663 12.5561 16.8803C12.4631 16.6943 12.3302 16.5504 12.1575 16.4485C11.9892 16.3422 11.7944 16.2891 11.5729 16.2891C11.3559 16.2891 11.1611 16.3422 10.9884 16.4485C10.8201 16.5504 10.6872 16.6943 10.5898 16.8803C10.4968 17.0663 10.4503 17.2833 10.4503 17.5313C10.4503 17.7793 10.4968 17.9963 10.5898 18.1823C10.6872 18.3683 10.8201 18.5144 10.9884 18.6207C11.1611 18.7226 11.3559 18.7735 11.5729 18.7735ZM15.6911 19.2584C15.3811 19.2584 15.1021 19.1876 14.8541 19.0459C14.6061 18.9041 14.409 18.7049 14.2628 18.448C14.1211 18.1867 14.0503 17.8811 14.0503 17.5313C14.0503 17.1814 14.1233 16.8781 14.2695 16.6212C14.4156 16.3599 14.6127 16.1584 14.8607 16.0167C15.1131 15.875 15.3943 15.8041 15.7043 15.8041C16.0143 15.8041 16.2933 15.875 16.5413 16.0167C16.7893 16.1584 16.9842 16.3599 17.1259 16.6212C17.2721 16.8781 17.3451 17.1814 17.3451 17.5313C17.3451 17.8811 17.2721 18.1867 17.1259 18.448C16.9798 18.7049 16.7805 18.9041 16.5281 19.0459C16.2801 19.1876 16.0011 19.2584 15.6911 19.2584ZM15.6911 18.7801C15.8815 18.7801 16.0586 18.7336 16.2225 18.6406C16.3863 18.5476 16.5192 18.4081 16.6211 18.2221C16.7229 18.0361 16.7738 17.8059 16.7738 17.5313C16.7738 17.2567 16.7229 17.0264 16.6211 16.8404C16.5236 16.6544 16.393 16.5149 16.2291 16.4219C16.0653 16.3289 15.8903 16.2824 15.7043 16.2824C15.5139 16.2824 15.3368 16.3289 15.1729 16.4219C15.0091 16.5149 14.8762 16.6544 14.7743 16.8404C14.6725 17.0264 14.6216 17.2567 14.6216 17.5313C14.6216 17.8059 14.6725 18.0361 14.7743 18.2221C14.8762 18.4081 15.0068 18.5476 15.1663 18.6406C15.3301 18.7336 15.5051 18.7801 15.6911 18.7801ZM19.6356 19.2584C19.3211 19.2584 19.0377 19.1876 18.7853 19.0459C18.5373 18.8997 18.3402 18.6982 18.1941 18.4414C18.0523 18.1801 17.9815 17.8767 17.9815 17.5313C17.9815 17.1859 18.0523 16.8847 18.1941 16.6279C18.3402 16.3666 18.5373 16.1651 18.7853 16.0234C19.0377 15.8772 19.3211 15.8041 19.6356 15.8041C20.0253 15.8041 20.353 15.906 20.6187 16.1097C20.8888 16.3134 21.0593 16.5858 21.1302 16.9268H20.5589C20.5146 16.7231 20.4061 16.5659 20.2334 16.4551C20.0607 16.34 19.8592 16.2824 19.6289 16.2824C19.4429 16.2824 19.268 16.3289 19.1041 16.4219C18.9403 16.5149 18.8074 16.6544 18.7056 16.8404C18.6037 17.0264 18.5528 17.2567 18.5528 17.5313C18.5528 17.8059 18.6037 18.0361 18.7056 18.2221C18.8074 18.4081 18.9403 18.5499 19.1041 18.6473C19.268 18.7403 19.4429 18.7868 19.6289 18.7868C19.8592 18.7868 20.0607 18.7314 20.2334 18.6207C20.4061 18.5056 20.5146 18.3439 20.5589 18.1358H21.1302C21.0638 18.4679 20.8955 18.7381 20.6253 18.9462C20.3552 19.1544 20.0253 19.2584 19.6356 19.2584Z" fill="white"/>
</svg>
