<svg width="12" height="12" viewBox="0 0 24 24" fill="none" xmlns="http://www.w3.org/2000/svg">
<g id="icon/ color/ ic_notification_package">
<g id="receive">
<path id="Path" fill-rule="evenodd" clip-rule="evenodd" d="M15.0481 20.0199C13.9573 18.14 14.2658 15.7617 15.8001 14.2224C17.3344 12.683 19.7117 12.3667 21.5951 13.4513C23.4786 14.5359 24.3982 16.7508 23.8369 18.8505C23.2756 20.9502 21.3735 22.4108 19.2001 22.4109C17.4871 22.4173 15.9023 21.5047 15.0481 20.0199Z" fill="url(#paint0_linear_2142_24432)"/>
<path id="Path_2" fill-rule="evenodd" clip-rule="evenodd" d="M19.2001 5.5774V12.8109C17.4834 12.811 15.8975 13.7279 15.0407 15.2155C14.1839 16.7031 14.1868 18.535 15.0481 20.0199L9.6001 23.1649V11.1189L19.1991 5.5769L19.2001 5.5774Z" fill="#FFE16A"/>
<path id="Path_3" fill-rule="evenodd" clip-rule="evenodd" d="M9.60008 11.119L6.25708 9.18897L15.8566 3.64697L19.1991 5.57697L9.60008 11.119Z" fill="#FFC107"/>
<path id="Path_4" fill-rule="evenodd" clip-rule="evenodd" d="M15.8565 3.64688L6.25705 9.18888L3.81055 7.77637L13.4095 2.23438L15.8565 3.64688Z" fill="url(#paint1_linear_2142_24432)"/>
<path id="Path_5" fill-rule="evenodd" clip-rule="evenodd" d="M9.59998 0.0349121L13.4095 2.23441L3.81048 7.77641H3.80998L0.000976562 5.57691L9.59998 0.0349121Z" fill="#FFE16A"/>
<path id="Path_6" fill-rule="evenodd" clip-rule="evenodd" d="M9.6 11.1189V23.1649L0 17.6224V5.5774L0.001 5.5769L3.81 7.7764V15.7639L4.9725 15.2839L6.24 16.7239V9.1989L6.257 9.1889L9.6 11.1189Z" fill="#FFC107"/>
<path id="Path_7" fill-rule="evenodd" clip-rule="evenodd" d="M6.25706 9.18887L6.24006 9.19887V16.7239L4.97256 15.2839L3.81006 15.7639V7.77637H3.81056L6.25706 9.18887Z" fill="url(#paint2_linear_2142_24432)"/>
<path id="Path_8" fill-rule="evenodd" clip-rule="evenodd" d="M1.2416 17.7184C1.0483 17.7184 0.891602 17.5617 0.891602 17.3684V16.0724C0.891602 15.8791 1.0483 15.7224 1.2416 15.7224C1.4349 15.7224 1.5916 15.8791 1.5916 16.0724V17.3684C1.5916 17.5617 1.4349 17.7184 1.2416 17.7184Z" fill="#FFE16A"/>
<path id="Path_9" fill-rule="evenodd" clip-rule="evenodd" d="M2.6625 18.5499C2.4692 18.5499 2.3125 18.3932 2.3125 18.1999V17.0324C2.3125 16.8391 2.4692 16.6824 2.6625 16.6824C2.8558 16.6824 3.0125 16.8391 3.0125 17.0324V18.1999C3.0125 18.3932 2.8558 18.5499 2.6625 18.5499Z" fill="#FFE16A"/>
<path id="Path_10" fill-rule="evenodd" clip-rule="evenodd" d="M4.08389 19.3703C3.89059 19.3703 3.73389 19.2136 3.73389 19.0203V17.9923C3.73389 17.799 3.89059 17.6423 4.08389 17.6423C4.27719 17.6423 4.43389 17.799 4.43389 17.9923V19.0203C4.43389 19.2136 4.27719 19.3703 4.08389 19.3703Z" fill="#FFE16A"/>
<path id="Path_11" fill-rule="evenodd" clip-rule="evenodd" d="M5.50503 20.1908C5.31173 20.1908 5.15503 20.0341 5.15503 19.8408V18.9523C5.15503 18.759 5.31173 18.6023 5.50503 18.6023C5.69833 18.6023 5.85503 18.759 5.85503 18.9523V19.8408C5.85503 20.0341 5.69833 20.1908 5.50503 20.1908Z" fill="#FFE16A"/>
<path id="Path_12" fill-rule="evenodd" clip-rule="evenodd" d="M6.92593 21.0305C6.73263 21.0305 6.57593 20.8738 6.57593 20.6805V19.9125C6.57593 19.7192 6.73263 19.5625 6.92593 19.5625C7.11923 19.5625 7.27593 19.7192 7.27593 19.9125V20.6805C7.27593 20.8738 7.11923 21.0305 6.92593 21.0305Z" fill="#FFE16A"/>
<path id="Path_13" fill-rule="evenodd" clip-rule="evenodd" d="M11.5888 18.0469C11.4302 18.0471 11.2914 17.9407 11.2503 17.7876C11.2092 17.6345 11.2761 17.4729 11.4135 17.3937L13.008 16.4732C13.1163 16.4106 13.2497 16.4106 13.358 16.4732C13.4663 16.5357 13.533 16.6512 13.533 16.7763C13.533 16.9013 13.4663 17.0169 13.358 17.0794L11.7635 17.9998C11.7104 18.0306 11.6501 18.0468 11.5888 18.0469Z" fill="#B78103"/>
<path id="Path_14" d="M18.11 19.32C18.0075 19.3201 17.9101 19.2752 17.8436 19.1972L16.6836 17.8382C16.6013 17.7433 16.5763 17.6115 16.618 17.493C16.6597 17.3744 16.7617 17.2874 16.8853 17.2648C17.0089 17.2422 17.1351 17.2876 17.216 17.3838L18.154 18.4827L21.229 15.981C21.3259 15.9012 21.4582 15.8793 21.5756 15.9238C21.693 15.9683 21.7776 16.0723 21.7973 16.1963C21.8169 16.3203 21.7687 16.4453 21.6708 16.5239L18.3308 19.2415C18.2685 19.2924 18.1905 19.3201 18.11 19.32Z" fill="#005249"/>
<path id="Path_15" fill-rule="evenodd" clip-rule="evenodd" d="M12.5426 11.3317C12.4654 11.2499 12.3536 11.2102 12.2421 11.225C12.1306 11.2397 12.033 11.3072 11.9798 11.4062L11.1348 12.9782C11.0765 13.0867 11.0794 13.2178 11.1425 13.3235C11.2056 13.4292 11.3197 13.4939 11.4428 13.494C11.5734 13.4943 11.6938 13.4237 11.7574 13.3097L11.9501 12.9623V15.971C11.9501 16.1643 12.1068 16.321 12.3001 16.321C12.4934 16.321 12.6501 16.1643 12.6501 15.971V12.4525L12.9346 12.7603C12.9977 12.8277 13.0852 12.8672 13.1775 12.8698C13.2699 12.8725 13.3595 12.8382 13.4264 12.7745C13.4937 12.7105 13.5329 12.6224 13.5353 12.5296C13.5377 12.4368 13.5031 12.3468 13.4391 12.2795L12.5426 11.3317Z" fill="#B78103"/>
</g>
</g>
<defs>
<linearGradient id="paint0_linear_2142_24432" x1="9.59939" y1="17.6109" x2="19.1995" y2="27.2114" gradientUnits="userSpaceOnUse">
<stop stop-color="#5BE584"/>
<stop offset="1" stop-color="#00AB55"/>
</linearGradient>
<linearGradient id="paint1_linear_2142_24432" x1="-2.21245" y1="5.71163" x2="3.81021" y2="16.1436" gradientUnits="userSpaceOnUse">
<stop stop-color="#FFE16A"/>
<stop offset="1" stop-color="#B78103"/>
</linearGradient>
<linearGradient id="paint2_linear_2142_24432" x1="2.58656" y1="12.2501" x2="7.13999" y2="13.4954" gradientUnits="userSpaceOnUse">
<stop stop-color="#FFE16A"/>
<stop offset="1" stop-color="#B78103"/>
</linearGradient>
</defs>
</svg>
