<svg width="32" height="32" viewBox="0 0 32 32" fill="none" xmlns="http://www.w3.org/2000/svg">
<path opacity="0.48" d="M20.846 16.6878L17.5594 13.334C17.5578 13.3324 17.5564 13.3311 17.5549 13.3295C17.552 13.3264 17.5488 13.3233 17.5457 13.3201C17.5435 13.3181 17.5414 13.3159 17.5394 13.3139C17.5365 13.311 17.5336 13.3083 17.5307 13.3054C17.5289 13.3038 17.5273 13.3022 17.5258 13.3007C17.2216 13.0073 16.8081 12.8267 16.3522 12.8267C15.8851 12.8267 15.4626 13.016 15.1567 13.3221L11.7765 16.7024C11.1165 17.3623 11.1165 18.4325 11.7765 19.0927C12.1066 19.4228 12.5392 19.5877 12.9718 19.5877C13.4041 19.5877 13.8367 19.4228 14.1668 19.0927L14.5475 18.712C14.5898 18.6697 14.6619 18.6997 14.6619 18.7595V25.3697C14.6619 26.3173 15.4373 27.1156 16.3846 27.0977C17.3031 27.0802 18.0423 26.3303 18.0423 25.4078V18.8208C18.0423 18.7608 18.1153 18.7311 18.1573 18.7738L18.4579 19.0806C18.7889 19.4183 19.2269 19.5877 19.665 19.5877C20.1032 19.5877 20.5417 19.4186 20.8738 19.0788C21.5212 18.4173 21.4939 17.3487 20.846 16.6878Z" fill="#B3D0C3"/>
<path d="M25.9664 11.4555C25.6985 7.29942 22.2331 4 18.0114 4C17.2471 4 16.4889 4.10876 15.7578 4.32316C13.8475 4.88422 12.2128 6.15247 11.1881 7.84817C10.5946 7.55275 9.94155 7.39856 9.26748 7.39856C7.0895 7.39856 5.27899 9.00474 4.98604 11.1216C3.95591 11.6028 3.07863 12.3489 2.43321 13.2967C1.7137 14.3537 1.33325 15.5872 1.33325 16.864C1.33325 20.3125 4.03245 23.0956 7.47845 23.1999L13.2309 23.2005V21.0096C13.1454 21.0165 13.0592 21.0199 12.9729 21.0199C12.1388 21.0199 11.3546 20.6952 10.7649 20.1052C9.54744 18.888 9.54744 16.907 10.7649 15.6895L14.1451 12.3093C14.7346 11.7194 15.519 11.3944 16.3533 11.3944C17.1666 11.3944 17.9366 11.7053 18.5216 12.2701C18.5228 12.2713 18.531 12.2791 18.5395 12.2876L21.8701 15.6853C23.0645 16.9038 23.0775 18.8757 21.8989 20.0804C21.3061 20.6864 20.5132 21.0199 19.6664 21.0199C19.6026 21.0199 19.539 21.0181 19.4759 21.0143V23.2008L24.9426 23.1996C28.1522 23.0848 30.6666 20.4778 30.6666 17.2646C30.6666 14.4401 28.68 12.0298 25.9664 11.4555Z" fill="#B3D0C3"/>
</svg>
