<svg width="28" height="28" viewBox="0 0 28 28" fill="none" xmlns="http://www.w3.org/2000/svg">
<path d="M3.5 18.375C3.5 18.1429 3.59219 17.9204 3.75628 17.7563C3.92038 17.5922 4.14294 17.5 4.375 17.5H9.625C9.85706 17.5 10.0796 17.5922 10.2437 17.7563C10.4078 17.9204 10.5 18.1429 10.5 18.375C10.5 18.6071 10.4078 18.8296 10.2437 18.9937C10.0796 19.1578 9.85706 19.25 9.625 19.25H4.375C4.14294 19.25 3.92038 19.1578 3.75628 18.9937C3.59219 18.8296 3.5 18.6071 3.5 18.375ZM3.5 13.125C3.5 12.8929 3.59219 12.6704 3.75628 12.5063C3.92038 12.3422 4.14294 12.25 4.375 12.25H16.625C16.8571 12.25 17.0796 12.3422 17.2437 12.5063C17.4078 12.6704 17.5 12.8929 17.5 13.125C17.5 13.3571 17.4078 13.5796 17.2437 13.7437C17.0796 13.9078 16.8571 14 16.625 14H4.375C4.14294 14 3.92038 13.9078 3.75628 13.7437C3.59219 13.5796 3.5 13.3571 3.5 13.125ZM3.5 7.875C3.5 7.64294 3.59219 7.42038 3.75628 7.25628C3.92038 7.09219 4.14294 7 4.375 7H23.625C23.8571 7 24.0796 7.09219 24.2437 7.25628C24.4078 7.42038 24.5 7.64294 24.5 7.875C24.5 8.10706 24.4078 8.32962 24.2437 8.49372C24.0796 8.65781 23.8571 8.75 23.625 8.75H4.375C4.14294 8.75 3.92038 8.65781 3.75628 8.49372C3.59219 8.32962 3.5 8.10706 3.5 7.875Z" fill="black"/>
</svg>
