<svg width="24" height="24" viewBox="0 0 24 24" fill="none" xmlns="http://www.w3.org/2000/svg">
<path fill-rule="evenodd" clip-rule="evenodd" d="M21.75 4.5C21.75 3.90326 21.5129 3.33097 21.091 2.90901C20.669 2.48705 20.0967 2.25 19.5 2.25H4.5C3.90326 2.25 3.33097 2.48705 2.90901 2.90901C2.48705 3.33097 2.25 3.90326 2.25 4.5V12C2.25 12.1989 2.32902 12.3897 2.46967 12.5303C2.61032 12.671 2.80109 12.75 3 12.75C3.19891 12.75 3.38968 12.671 3.53033 12.5303C3.67098 12.3897 3.75 12.1989 3.75 12V4.5C3.75 4.30109 3.82902 4.11032 3.96967 3.96967C4.11032 3.82902 4.30109 3.75 4.5 3.75H19.5C19.6989 3.75 19.8897 3.82902 20.0303 3.96967C20.171 4.11032 20.25 4.30109 20.25 4.5V19.5C20.25 19.6989 20.171 19.8897 20.0303 20.0303C19.8897 20.171 19.6989 20.25 19.5 20.25H13.5C13.3011 20.25 13.1103 20.329 12.9697 20.4697C12.829 20.6103 12.75 20.8011 12.75 21C12.75 21.1989 12.829 21.3897 12.9697 21.5303C13.1103 21.671 13.3011 21.75 13.5 21.75H19.5C20.0967 21.75 20.669 21.5129 21.091 21.091C21.5129 20.669 21.75 20.0967 21.75 19.5V4.5Z" fill="#103262"/>
<path fill-rule="evenodd" clip-rule="evenodd" d="M6.75 9C6.75 8.80109 6.82902 8.61032 6.96967 8.46967C7.11032 8.32902 7.30109 8.25 7.5 8.25H15C15.1989 8.25 15.3897 8.32902 15.5303 8.46967C15.671 8.61032 15.75 8.80109 15.75 9V16.5C15.75 16.6989 15.671 16.8897 15.5303 17.0303C15.3897 17.171 15.1989 17.25 15 17.25C14.8011 17.25 14.6103 17.171 14.4697 17.0303C14.329 16.8897 14.25 16.6989 14.25 16.5V9.75H7.5C7.30109 9.75 7.11032 9.67098 6.96967 9.53033C6.82902 9.38968 6.75 9.19891 6.75 9Z" fill="#103262"/>
<path fill-rule="evenodd" clip-rule="evenodd" d="M15.531 8.46888C15.6008 8.53854 15.6562 8.62131 15.694 8.71242C15.7318 8.80354 15.7513 8.90122 15.7513 8.99988C15.7513 9.09853 15.7318 9.19621 15.694 9.28733C15.6562 9.37844 15.6008 9.46121 15.531 9.53088L3.53097 21.5309C3.39014 21.6717 3.19913 21.7508 2.99997 21.7508C2.80081 21.7508 2.6098 21.6717 2.46897 21.5309C2.32814 21.39 2.24902 21.199 2.24902 20.9999C2.24902 20.8007 2.32814 20.6097 2.46897 20.4689L14.469 8.46888C14.5386 8.39903 14.6214 8.34362 14.7125 8.30581C14.8036 8.268 14.9013 8.24854 15 8.24854C15.0986 8.24854 15.1963 8.268 15.2874 8.30581C15.3785 8.34362 15.4613 8.39903 15.531 8.46888Z" fill="#103262"/>
</svg>
