<svg width="16" height="16" viewBox="0 0 16 16" fill="none" xmlns="http://www.w3.org/2000/svg">
<path fill-rule="evenodd" clip-rule="evenodd" d="M8.83674 1.62584C8.59074 0.790836 7.40874 0.790836 7.16274 1.62584L7.06874 1.94484C6.98969 2.21278 6.8517 2.45965 6.66487 2.66736C6.47805 2.87506 6.24713 3.03835 5.98903 3.14525C5.73093 3.25216 5.45219 3.29997 5.17321 3.28519C4.89424 3.27041 4.6221 3.19341 4.37674 3.05984L4.08474 2.89984C3.32074 2.48484 2.48474 3.31984 2.90074 4.08484L3.05974 4.37683C3.19332 4.6222 3.27032 4.89433 3.2851 5.1733C3.29988 5.45228 3.25206 5.73102 3.14516 5.98912C3.03826 6.24723 2.87497 6.47814 2.66726 6.66497C2.45956 6.85179 2.21269 6.98978 1.94474 7.06883L1.62574 7.16284C0.790744 7.40883 0.790744 8.59084 1.62574 8.83683L1.94474 8.93083C2.21283 9.00986 2.45983 9.14787 2.66764 9.33476C2.87545 9.52165 3.03881 9.75268 3.14572 10.0109C3.25264 10.2691 3.30041 10.548 3.28553 10.8271C3.27066 11.1062 3.19351 11.3784 3.05974 11.6238L2.89974 11.9148C2.48474 12.6788 3.31974 13.5148 4.08474 13.0988L4.37674 12.9398C4.62217 12.8063 4.89437 12.7293 5.1734 12.7146C5.45243 12.6999 5.73121 12.7478 5.98933 12.8548C6.24744 12.9618 6.47835 13.1252 6.66512 13.333C6.85189 13.5408 6.9898 13.7878 7.06874 14.0558L7.16274 14.3738C7.40874 15.2088 8.59074 15.2088 8.83674 14.3738L8.93074 14.0548C9.00976 13.7867 9.14778 13.5397 9.33467 13.3319C9.52156 13.1241 9.75259 12.9608 10.0108 12.8539C10.269 12.7469 10.5479 12.6992 10.827 12.714C11.1061 12.7289 11.3783 12.8061 11.6237 12.9398L11.9147 13.0998C12.6787 13.5148 13.5147 12.6798 13.0987 11.9148L12.9397 11.6238C12.806 11.3784 12.7289 11.1061 12.7141 10.8269C12.6993 10.5478 12.7471 10.2689 12.8541 10.0106C12.9611 9.75237 13.1246 9.52136 13.3325 9.33452C13.5405 9.14767 13.7876 9.00974 14.0557 8.93083L14.3737 8.83683C15.2087 8.59084 15.2087 7.40883 14.3737 7.16284L14.0547 7.06883C13.7868 6.98978 13.5399 6.85179 13.3322 6.66497C13.1245 6.47814 12.9612 6.24723 12.8543 5.98912C12.7474 5.73102 12.6996 5.45228 12.7144 5.1733C12.7292 4.89433 12.8062 4.6222 12.9397 4.37683L13.0997 4.08484C13.5147 3.32084 12.6797 2.48484 11.9147 2.90084L11.6237 3.05984C11.3783 3.19379 11.106 3.27109 10.8268 3.28606C10.5476 3.30104 10.2685 3.25331 10.0102 3.14638C9.75183 3.03945 9.52069 2.87603 9.33373 2.66811C9.14677 2.4602 9.00873 2.21306 8.92974 1.94484L8.83574 1.62584H8.83674ZM6.20374 1.34284C6.73074 -0.447164 9.26874 -0.447164 9.79574 1.34284L9.88974 1.66184C9.92655 1.78679 9.99085 1.90192 10.0779 1.99879C10.165 2.09567 10.2727 2.17183 10.393 2.22169C10.5133 2.27155 10.6433 2.29385 10.7734 2.28695C10.9035 2.28006 11.0304 2.24414 11.1447 2.18184L11.4367 2.02184C13.0767 1.12984 14.8707 2.92284 13.9767 4.56284L13.8177 4.85484C13.7554 4.96923 13.7195 5.09611 13.7126 5.22619C13.7057 5.35627 13.728 5.48624 13.7779 5.60658C13.8278 5.72692 13.9039 5.83457 14.0008 5.92165C14.0977 6.00873 14.2128 6.07303 14.3377 6.10984L14.6567 6.20384C16.4467 6.73083 16.4467 9.26884 14.6567 9.79583L14.3377 9.88984C14.2128 9.92664 14.0977 9.99094 14.0008 10.078C13.9039 10.1651 13.8278 10.2728 13.7779 10.3931C13.728 10.5134 13.7057 10.6434 13.7126 10.7735C13.7195 10.9036 13.7554 11.0304 13.8177 11.1448L13.9777 11.4368C14.8707 13.0768 13.0757 14.8708 11.4367 13.9768L11.1447 13.8178C11.0304 13.7555 10.9035 13.7196 10.7734 13.7127C10.6433 13.7058 10.5133 13.7281 10.393 13.778C10.2727 13.8278 10.165 13.904 10.0779 14.0009C9.99085 14.0977 9.92655 14.2129 9.88974 14.3378L9.79574 14.6568C9.26874 16.4468 6.73074 16.4468 6.20374 14.6568L6.10974 14.3378C6.07294 14.2129 6.00864 14.0977 5.92156 14.0009C5.83448 13.904 5.72682 13.8278 5.60648 13.778C5.48615 13.7281 5.35617 13.7058 5.2261 13.7127C5.09602 13.7196 4.96914 13.7555 4.85474 13.8178L4.56274 13.9778C2.92274 14.8708 1.12974 13.0758 2.02274 11.4368L2.18174 11.1448C2.24405 11.0304 2.27997 10.9036 2.28686 10.7735C2.29376 10.6434 2.27146 10.5134 2.2216 10.3931C2.17173 10.2728 2.09558 10.1651 1.9987 10.078C1.90183 9.99094 1.7867 9.92664 1.66174 9.88984L1.34274 9.79583C-0.447256 9.26884 -0.447256 6.73083 1.34274 6.20384L1.66174 6.10984C1.7867 6.07303 1.90183 6.00873 1.9987 5.92165C2.09558 5.83457 2.17173 5.72692 2.2216 5.60658C2.27146 5.48624 2.29376 5.35627 2.28686 5.22619C2.27997 5.09611 2.24405 4.96923 2.18174 4.85484L2.02174 4.56284C1.12974 2.92284 2.92374 1.12984 4.56274 2.02284L4.85474 2.18184C4.96914 2.24414 5.09602 2.28006 5.2261 2.28695C5.35617 2.29385 5.48615 2.27155 5.60648 2.22169C5.72682 2.17183 5.83448 2.09567 5.92156 1.99879C6.00864 1.90192 6.07294 1.78679 6.10974 1.66184L6.20374 1.34284Z" fill="#BABEC3"/>
<path fill-rule="evenodd" clip-rule="evenodd" d="M7.99991 5.754C7.40423 5.754 6.83295 5.99063 6.41174 6.41184C5.99054 6.83304 5.75391 7.40432 5.75391 8C5.75391 8.59567 5.99054 9.16695 6.41174 9.58816C6.83295 10.0094 7.40423 10.246 7.99991 10.246C8.59558 10.246 9.16686 10.0094 9.58807 9.58816C10.0093 9.16695 10.2459 8.59567 10.2459 8C10.2459 7.40432 10.0093 6.83304 9.58807 6.41184C9.16686 5.99063 8.59558 5.754 7.99991 5.754ZM4.75391 8C4.75391 7.57373 4.83787 7.15163 5.00099 6.75781C5.16412 6.36399 5.40322 6.00615 5.70464 5.70473C6.00606 5.40331 6.36389 5.16421 6.75772 5.00109C7.15154 4.83796 7.57364 4.754 7.99991 4.754C8.42618 4.754 8.84827 4.83796 9.2421 5.00109C9.63592 5.16421 9.99376 5.40331 10.2952 5.70473C10.5966 6.00615 10.8357 6.36399 10.9988 6.75781C11.1619 7.15163 11.2459 7.57373 11.2459 8C11.2459 8.86089 10.9039 9.68652 10.2952 10.2953C9.68643 10.904 8.8608 11.246 7.99991 11.246C7.13901 11.246 6.31338 10.904 5.70464 10.2953C5.09589 9.68652 4.75391 8.86089 4.75391 8Z" fill="#BABEC3"/>
</svg>
