<svg width="36" height="36" viewBox="0 0 36 36" fill="none" xmlns="http://www.w3.org/2000/svg">
<path d="M19.414 18L25.707 11.707C25.8945 11.5195 25.9998 11.2651 25.9998 11C25.9998 10.7348 25.8945 10.4805 25.707 10.293C25.5195 10.1055 25.2651 10.0001 25 10.0001C24.7348 10.0001 24.4805 10.1055 24.293 10.293L18 16.586L11.707 10.293C11.6141 10.2001 11.5039 10.1265 11.3826 10.0762C11.2613 10.026 11.1313 10.0001 11 10.0001C10.8687 10.0001 10.7387 10.026 10.6173 10.0762C10.496 10.1265 10.3858 10.2001 10.293 10.293C10.1055 10.4805 10.0001 10.7348 10.0001 11C10.0001 11.2651 10.1055 11.5195 10.293 11.707L16.586 18L10.293 24.293C10.1055 24.4805 10.0001 24.7348 10.0001 25C10.0001 25.2651 10.1055 25.5195 10.293 25.707C10.4805 25.8945 10.7348 25.9998 11 25.9998C11.2651 25.9998 11.5195 25.8945 11.707 25.707L18 19.414L24.293 25.707C24.3856 25.8002 24.4958 25.8741 24.6171 25.9246C24.7385 25.975 24.8686 26.001 25 26.001C25.1314 26.001 25.2615 25.975 25.3828 25.9246C25.5042 25.8741 25.6143 25.8002 25.707 25.707C25.7999 25.6142 25.8737 25.504 25.924 25.3827C25.9743 25.2613 26.0002 25.1313 26.0002 25C26.0002 24.8686 25.9743 24.7386 25.924 24.6173C25.8737 24.496 25.7999 24.3858 25.707 24.293L19.414 18Z" fill="#5C5F62"/>
</svg>
