<svg width="40" height="27" viewBox="0 0 40 27" fill="none" xmlns="http://www.w3.org/2000/svg">
<path d="M0.116333 14.5233C0.116333 13.682 0.798318 13 1.63959 13V13C2.48086 13 3.16284 13.682 3.16284 14.5233V26.6709H0.116333V14.5233Z" fill="#008060"/>
<path d="M6.20935 1.61186C6.20935 0.770591 6.89134 0.0886078 7.73261 0.0886078V0.0886078C8.57388 0.0886078 9.25586 0.770592 9.25586 1.61186V26.6709H6.20935V1.61186Z" fill="#008060"/>
<path d="M12.3024 11.4853C12.3024 10.644 12.9844 9.96202 13.8256 9.96202V9.96202C14.6669 9.96202 15.3489 10.644 15.3489 11.4853V26.6709H12.3024V11.4853Z" fill="#008060"/>
<path d="M18.3954 11.4853C18.3954 10.644 19.0774 9.96202 19.9186 9.96202V9.96202C20.7599 9.96202 21.4419 10.644 21.4419 11.4853V26.6709H18.3954V11.4853Z" fill="#008060"/>
<path d="M24.4884 4.64983C24.4884 3.80856 25.1704 3.12658 26.0117 3.12658V3.12658C26.8529 3.12658 27.5349 3.80856 27.5349 4.64983V26.6709H24.4884V4.64983Z" fill="#008060"/>
<path d="M30.5814 13.0043C30.5814 12.163 31.2634 11.481 32.1047 11.481V11.481C32.9459 11.481 33.6279 12.163 33.6279 13.0043V26.6709H30.5814V13.0043Z" fill="#008060"/>
<path d="M36.6744 11.4853C36.6744 10.644 37.3564 9.96202 38.1977 9.96202V9.96202C39.039 9.96202 39.721 10.644 39.721 11.4853V26.6709H36.6744V11.4853Z" fill="#008060"/>
</svg>
