<svg width="18" height="18" viewBox="0 0 18 18" fill="none" xmlns="http://www.w3.org/2000/svg">
<path fill-rule="evenodd" clip-rule="evenodd" d="M12.495 3.45L14.55 5.505C15.1245 6.05233 15.1479 6.96125 14.6025 7.5375L7.85248 14.2875C7.60801 14.5299 7.28758 14.6809 6.94498 14.715L3.81748 15H3.74998C3.55063 15.0012 3.35902 14.9229 3.21748 14.7825C3.05926 14.6249 2.97953 14.4049 2.99998 14.1825L3.32248 11.055C3.35661 10.7124 3.50756 10.392 3.74998 10.1475L10.5 3.3975C11.0818 2.90592 11.9398 2.92849 12.495 3.45ZM9.98998 6L12 8.01L13.5 6.5475L11.4525 4.5L9.98998 6Z" fill="white"/>
</svg>
