<svg width="71" height="25" viewBox="0 0 71 25" fill="none" xmlns="http://www.w3.org/2000/svg">
<path d="M16.4545 8.25H21.4545C20.8182 3.64773 16.7614 0.40909 11.5 0.40909C5.35227 0.40909 0.613636 4.84091 0.613636 12.3864C0.613636 19.75 5.04545 24.3182 11.6023 24.3182C17.4773 24.3182 21.6705 20.6023 21.6705 14.4773V11.5455H11.9318V15.25H16.9318C16.8636 18.1364 14.8977 19.9659 11.625 19.9659C7.93182 19.9659 5.60227 17.2045 5.60227 12.3409C5.60227 7.5 8.02273 4.76136 11.5795 4.76136C14.1136 4.76136 15.8295 6.06818 16.4545 8.25ZM30.2869 0.727272H25.3665V24H30.2869V0.727272ZM39.2557 0.727272H34.3352V24H39.2557V0.727272ZM43.304 24H48.2244V17.3864L50.6449 14.4318L57.0199 24H62.9062L54.1676 11.1477L62.804 0.727272H56.9062L48.5312 10.9886H48.2244V0.727272H43.304V24ZM70.2869 0.727272H65.3665V24H70.2869V0.727272Z" fill="black"/>
</svg>
