<svg width="43" height="43" viewBox="0 0 43 43" fill="none" xmlns="http://www.w3.org/2000/svg">
<path d="M12.5674 14.0926C9.3054 18.2851 9.36251 25.7328 13.5315 29.4248C18.2649 33.6139 24.9265 33.5702 29.1156 29.717C34.1379 25.0945 33.849 17.4016 29.4079 13.0444C24.9433 8.66382 16.9648 8.43538 12.5674 14.0926Z" fill="#FCC11A"/>
<path d="M17.8047 12.6548C16.5147 12.0837 15.1038 13.6391 14.489 14.7006C13.8743 15.7655 13.3032 17.8517 14.6133 18.3859C15.9235 18.9166 16.8641 18.0163 17.8081 16.4609C18.7454 14.9055 19.2795 13.3098 17.8047 12.6548Z" fill="#FEE269"/>
<path d="M21.164 6.80944C20.8516 7.39397 20.9558 7.84413 21.5772 7.99194C22.1987 8.13976 26.0654 8.76796 26.3912 8.78811C26.8649 8.81835 27.0396 8.46226 26.9825 8.04905C26.922 7.63585 25.978 1.84765 25.8907 1.31686C25.8033 0.786084 25.2423 0.255302 24.7082 0.96413C24.174 1.67296 21.3992 6.36937 21.164 6.80944Z" fill="#FFA722"/>
<path d="M31.175 10.8273C30.567 11.0154 30.5838 11.3883 30.9096 11.862C31.2355 12.3356 33.4795 15.7588 33.6845 15.9973C33.8927 16.2325 34.2455 16.293 34.5411 15.9369C34.8367 15.5841 38.5253 10.4107 38.7941 10.0882C39.2375 9.55742 38.9721 8.9964 38.2935 9.17109C37.7762 9.30883 31.558 10.7097 31.175 10.8273Z" fill="#FFA722"/>
<path d="M35.8109 20.7811C35.3742 20.5325 34.8065 20.6031 34.6587 21.1641C34.5109 21.7251 33.8625 25.8 33.802 26.1561C33.7416 26.5122 34.0103 26.8649 34.4504 26.7776C34.8905 26.6902 40.9844 25.7866 41.3909 25.6858C42.0997 25.5077 42.3349 24.7989 41.5991 24.2681C41.1221 23.9221 36.2241 21.0163 35.8109 20.7811Z" fill="#FFA722"/>
<path d="M30.9364 30.4359C31.4068 30.184 31.8233 30.3755 31.9409 30.9096C32.0585 31.4404 33.3585 36.8759 33.5668 37.8803C33.671 38.3842 33.0932 38.7974 32.6228 38.5018C32.1492 38.2062 27.0161 34.6284 26.6868 34.3362C26.2132 33.923 26.5424 33.493 26.7742 33.2746C27.2445 32.8278 30.493 30.6745 30.9364 30.4359Z" fill="#FFA722"/>
<path d="M16.6423 33.4191C16.0477 33.362 15.873 33.8927 15.9637 34.363C16.051 34.8367 16.9379 40.8265 16.9984 41.2733C17.0857 41.9216 17.7677 42.1904 18.2078 41.5387C18.6478 40.887 21.6847 36.0293 21.9299 35.5724C22.3734 34.746 22.0475 34.568 21.6041 34.363C21.164 34.1581 17.2638 33.4795 16.6423 33.4191Z" fill="#FFA722"/>
<path d="M8.13979 26.5391C8.553 25.8605 9.08378 26.0385 9.47011 26.6869C9.73214 27.1303 11.9493 30.1134 12.1576 30.4359C12.3659 30.7618 12.4532 31.3799 11.8049 31.5277C11.1498 31.6789 5.8655 33.0663 5.03909 33.2142C4.21268 33.362 3.73901 32.7136 4.26979 32.0048C4.57885 31.5882 7.90464 26.9254 8.13979 26.5391Z" fill="#FFA722"/>
<path d="M7.01777 21.3992C7.77363 21.7352 8.12972 21.6142 8.28761 21.0734C8.49589 20.3645 9.11402 17.116 9.14425 16.377C9.16441 15.8966 8.9662 15.433 8.22714 15.5505C7.48808 15.6681 2.17355 16.4105 1.49496 16.6457C0.705503 16.9212 0.762612 17.7879 1.28667 18.0634C1.90816 18.3892 6.48363 21.1641 7.01777 21.3992Z" fill="#FFA722"/>
<path d="M16.2023 8.99641C16.6289 8.65711 16.4979 8.17 16.1149 7.90461C15.732 7.63922 10.9885 4.2093 10.3872 3.73899C9.85641 3.32579 9.20469 3.4736 9.38273 4.41758C9.51039 5.09618 11.0221 11.0356 11.1262 11.4454C11.2438 11.9191 11.5999 12.1542 12.0131 11.8586C12.4196 11.5663 15.7588 9.35251 16.2023 8.99641Z" fill="#FFA722"/>
</svg>
