<svg width="17" height="18" viewBox="0 0 17 18" fill="none" xmlns="http://www.w3.org/2000/svg">
<path d="M15.043 3.96613L8.66801 1.71613C8.55895 1.67767 8.44105 1.67767 8.33199 1.71613L1.96722 3.96261L1.96655 3.96282L1.95699 3.9662C1.95513 3.9669 1.95347 3.96796 1.95168 3.96866C1.92865 3.97703 1.90619 3.98708 1.88448 3.99875C1.88202 4.00016 1.87943 4.00122 1.87697 4.00262C1.8555 4.01476 1.83484 4.02846 1.81515 4.04361C1.81083 4.04692 1.80656 4.0503 1.80233 4.05374C1.78314 4.06909 1.76495 4.08579 1.74788 4.10373C1.74635 4.10549 1.74496 4.10732 1.74343 4.109C1.72771 4.12635 1.71305 4.14474 1.69954 4.16406C1.69675 4.168 1.69389 4.17179 1.69123 4.1758C1.67729 4.19667 1.66471 4.21851 1.65358 4.24119C1.65186 4.24471 1.65039 4.24822 1.64873 4.25174C1.63835 4.27398 1.62936 4.29693 1.62184 4.32043C1.62118 4.32261 1.62025 4.32472 1.61958 4.32697C1.61208 4.35194 1.60625 4.37743 1.60212 4.40326C1.60125 4.40868 1.60052 4.41409 1.59979 4.41943C1.59597 4.44604 1.59395 4.47289 1.59375 4.4998V10.1248C1.59375 10.274 1.64972 10.4171 1.74935 10.5225C1.84898 10.628 1.9841 10.6873 2.125 10.6873C2.2659 10.6873 2.40102 10.628 2.50065 10.5225C2.60028 10.4171 2.65625 10.274 2.65625 10.1248V5.28027L4.8865 6.06742C4.29527 7.07827 4.10609 8.29586 4.36032 9.45399C4.61455 10.6121 5.29151 11.6165 6.24318 12.2477C4.97592 12.755 3.89454 13.6772 3.15629 14.88C3.11723 14.9419 3.09016 15.0114 3.07663 15.0844C3.0631 15.1574 3.06339 15.2325 3.07748 15.3054C3.09158 15.3783 3.11919 15.4475 3.15872 15.5091C3.19826 15.5706 3.24893 15.6232 3.3078 15.6638C3.36667 15.7045 3.43257 15.7323 3.50168 15.7458C3.5708 15.7593 3.64175 15.7581 3.71044 15.7424C3.77912 15.7266 3.84417 15.6966 3.90182 15.654C3.95946 15.6115 4.00856 15.5572 4.04627 15.4944C4.5289 14.7093 5.18903 14.0643 5.96675 13.6177C6.74448 13.1712 7.61519 12.9373 8.4999 12.9373C9.38461 12.9373 10.2553 13.1712 11.033 13.6177C11.8108 14.0643 12.4709 14.7093 12.9535 15.4944C12.9915 15.5567 13.0406 15.6105 13.0982 15.6526C13.1558 15.6947 13.2207 15.7243 13.2892 15.7398C13.3576 15.7553 13.4283 15.7563 13.4971 15.7427C13.566 15.7292 13.6316 15.7014 13.6902 15.6609C13.7488 15.6204 13.7993 15.5681 13.8388 15.5069C13.8783 15.4456 13.9059 15.3768 13.9202 15.3042C13.9344 15.2317 13.935 15.1568 13.9219 15.084C13.9087 15.0112 13.8821 14.9419 13.8436 14.88C13.1053 13.6772 12.024 12.7551 10.7567 12.2477C11.7084 11.6166 12.3854 10.6122 12.6396 9.45402C12.8939 8.29589 12.7047 7.07828 12.1134 6.06742L15.043 5.03347C15.1488 4.99616 15.2408 4.92453 15.3061 4.82875C15.3713 4.73297 15.4064 4.61788 15.4064 4.4998C15.4064 4.38172 15.3713 4.26664 15.3061 4.17085C15.2408 4.07507 15.1488 4.00345 15.043 3.96613ZM11.6875 8.4373C11.6876 8.97086 11.5683 9.49685 11.3392 9.97212C11.1102 10.4474 10.778 10.8584 10.3699 11.1714C9.96182 11.4844 9.48945 11.6905 8.99156 11.7728C8.49367 11.8551 7.98445 11.8112 7.50568 11.6448C7.0269 11.4783 6.59222 11.194 6.23729 10.8153C5.88237 10.4365 5.61731 9.97407 5.46386 9.46584C5.31042 8.95762 5.27297 8.41812 5.35458 7.8916C5.43618 7.36508 5.63453 6.86655 5.93333 6.43691L8.33199 7.28347C8.44105 7.32193 8.55895 7.32193 8.66801 7.28347L11.0667 6.43691C11.4704 7.01621 11.688 7.71735 11.6875 8.4373ZM11.0701 5.24982C11.0687 5.25032 11.0674 5.25067 11.0661 5.25123L8.5 6.15686L5.93386 5.25123C5.93254 5.25067 5.93121 5.25025 5.92988 5.24982L3.80501 4.4998L8.5 2.84275L13.1951 4.4998L11.0701 5.24982Z" fill="black"/>
</svg>
