<svg width="15" height="10" viewBox="0 0 15 10" fill="none" xmlns="http://www.w3.org/2000/svg">
<path fill-rule="evenodd" clip-rule="evenodd" d="M0 0.833333C0 1.29167 0.375 1.66667 0.833333 1.66667H14.1667C14.625 1.66667 15 1.29167 15 0.833333C15 0.375 14.625 0 14.1667 0H0.833333C0.375 0 0 0.375 0 0.833333ZM6.66667 10H8.33333C8.79167 10 9.16667 9.625 9.16667 9.16667C9.16667 8.70833 8.79167 8.33333 8.33333 8.33333H6.66667C6.20833 8.33333 5.83333 8.70833 5.83333 9.16667C5.83333 9.625 6.20833 10 6.66667 10ZM11.6667 5.83333H3.33333C2.875 5.83333 2.5 5.45833 2.5 5C2.5 4.54167 2.875 4.16667 3.33333 4.16667H11.6667C12.125 4.16667 12.5 4.54167 12.5 5C12.5 5.45833 12.125 5.83333 11.6667 5.83333Z" fill="#212B36"/>
</svg>
