<svg width="32" height="33" viewBox="0 0 32 33" fill="none" xmlns="http://www.w3.org/2000/svg">
<rect y="0.75" width="32" height="32" rx="8" fill="#FFE7D9"/>
<path fill-rule="evenodd" clip-rule="evenodd" d="M7.66602 16.75C7.66602 12.1476 11.397 8.41666 15.9993 8.41666C18.2095 8.41666 20.3291 9.29464 21.8919 10.8574C23.4547 12.4202 24.3327 14.5399 24.3327 16.75C24.3327 21.3524 20.6017 25.0833 15.9993 25.0833C11.397 25.0833 7.66602 21.3524 7.66602 16.75ZM15.9993 17.5833H19.3327C19.7929 17.5833 20.166 17.2102 20.166 16.75C20.166 16.2898 19.7929 15.9167 19.3327 15.9167H16.8327V13.4167C16.8327 12.9564 16.4596 12.5833 15.9993 12.5833C15.5391 12.5833 15.166 12.9564 15.166 13.4167V16.75C15.166 17.2102 15.5391 17.5833 15.9993 17.5833Z" fill="#EB5757"/>
</svg>
