<svg width="20" height="20" viewBox="0 0 20 20" fill="none" xmlns="http://www.w3.org/2000/svg">
<path d="M4.16688 8.33383C4.1665 8.13912 4.23431 7.95042 4.35854 7.80049C4.49983 7.63007 4.70313 7.52287 4.92357 7.50255C5.14401 7.48222 5.36347 7.55044 5.53354 7.69216L10.0002 11.4255L14.4752 7.82549C14.6474 7.68568 14.8682 7.62027 15.0887 7.64373C15.3092 7.66719 15.5113 7.77759 15.6502 7.95049C15.8036 8.1248 15.8773 8.35518 15.8535 8.58614C15.8298 8.81709 15.7108 9.02768 15.5252 9.16716L10.5252 13.1922C10.2177 13.4449 9.77438 13.4449 9.46688 13.1922L4.46688 9.02549C4.26234 8.85594 4.1509 8.59902 4.16688 8.33383Z" fill="#323338"/>
</svg>
