<svg width="16" height="18" viewBox="0 0 16 18" fill="none" xmlns="http://www.w3.org/2000/svg">
<path d="M13.8333 2.33366H13V1.50033C13 1.04199 12.625 0.666992 12.1667 0.666992C11.7083 0.666992 11.3333 1.04199 11.3333 1.50033V2.33366H4.66667V1.50033C4.66667 1.04199 4.29167 0.666992 3.83333 0.666992C3.375 0.666992 3 1.04199 3 1.50033V2.33366H2.16667C1.24167 2.33366 0.508333 3.08366 0.508333 4.00033L0.5 15.667C0.5 16.109 0.675595 16.5329 0.988155 16.8455C1.30072 17.1581 1.72464 17.3337 2.16667 17.3337H13.8333C14.75 17.3337 15.5 16.5837 15.5 15.667V4.00033C15.5 3.08366 14.75 2.33366 13.8333 2.33366ZM13.8333 15.667H2.16667V7.33366H13.8333V15.667Z" fill="#212B36"/>
</svg>
